<?xml version="1.0" standalone="no"?>
<!DOCTYPE svg PUBLIC "-//W3C//DTD SVG 1.1//EN" "http://www.w3.org/Graphics/SVG/1.1/DTD/svg11.dtd" >
<svg xmlns="http://www.w3.org/2000/svg" xmlns:xlink="http://www.w3.org/1999/xlink" version="1.1">
<metadata>
Created by FontForge 20190801 at Mon Jun 15 19:28:00 2020
 By Jimmy Wärting
Copyright 2020 The Kanit Project Authors (https://github.com/cadsondemak/kanit)
</metadata>
<defs>
<font id="Kanit-SemiBoldItalic" horiz-adv-x="0" >
  <font-face 
    font-family="Kanit SemiBold"
    font-weight="600"
    font-style="italic"
    font-stretch="normal"
    units-per-em="1000"
    panose-1="0 0 0 0 0 0 0 0 0 0"
    ascent="800"
    descent="-200"
    x-height="474"
    cap-height="644"
    bbox="-545.025 -370 1275 1100"
    underline-thickness="50"
    underline-position="-125"
    slope="-12"
    unicode-range="U+000D-FB02"
  />
<missing-glyph horiz-adv-x="474" 
d="M-25 0v714h411v-714h-411zM26 51h309v612h-309v-612z" />
    <glyph glyph-name="fi" unicode="fi" horiz-adv-x="565" 
d="M18 0l74 352h-63l26 122h63l8 37q11 51 40.5 91.5t81 64.5t127.5 24q81 0 129 -20l-25 -114q-10 6 -33 9.5t-42 3.5q-62 0 -86 -15t-32 -48l-7 -33h278l-100 -474h-161l74 352h-117l-74 -352h-161z" />
    <glyph glyph-name="fl" unicode="fl" horiz-adv-x="565" 
d="M18 0l74 352h-63l26 122h63l8 37q11 49 38 89.5t72 65t109 24.5q32 0 63.5 -3.5t61.5 -13.5h130l-143 -673h-161l74 352h-117l-74 -352h-161zM279 474h117l20 92q-10 2 -25.5 4t-26.5 1q-65 -2 -78 -64z" />
    <glyph glyph-name="uni0E240E45" unicode="&#xe24;&#xe45;" horiz-adv-x="916" 
d="M321 -160l103 484q13 57 -6.5 81t-87.5 24q-39 0 -75 -11t-60 -28l-2 -11l101 -31l-18 -85q-37 -10 -55.5 -29.5t-26.5 -58.5l-6 -28q-4 -18 1 -26t24 -8h49l-24 -113h-138q-47 0 -69.5 29.5t-12.5 75.5l14 66q9 42 32 76.5t69 48.5l-90 27l29 136q50 34 126 62.5
t166 28.5q104 0 162 -38l1 4q33 14 80 24t93 10q110 0 155.5 -52.5t23.5 -154.5l-107 -503h-161l104 486q12 58 -3 80.5t-71 22.5q-25 0 -53 -5q10 -43 -2 -99l-104 -485h-161z" />
    <glyph glyph-name="uni0E260E45" unicode="&#xe26;&#xe45;" horiz-adv-x="949" 
d="M353 -160l103 484q13 57 -4 81t-84 24q-39 0 -74.5 -11t-60.5 -28l-2 -11l101 -31l-18 -85q-36 -11 -49.5 -30.5t-22.5 -60.5l-10 -46q-13 -65 -52.5 -95.5t-99.5 -30.5h-100l24 113h29q18 0 26.5 8t12.5 26l6 28q9 42 28.5 73.5t65.5 47.5l-91 27l29 136
q51 34 126.5 62.5t165.5 28.5q100 0 157 -38l1 4q33 14 80 24t93 10q110 0 155.5 -52.5t23.5 -154.5l-107 -503h-161l104 486q12 58 -3 80.5t-71 22.5q-25 0 -53 -5q10 -43 -2 -99l-104 -485h-162z" />
    <glyph glyph-name=".notdef" horiz-adv-x="474" 
d="M-25 0v714h411v-714h-411zM26 51h309v612h-309v-612z" />
    <glyph glyph-name="A" unicode="A" horiz-adv-x="728" 
d="M-26 0l382 644h174l110 -644h-156l-27 146h-221l-88 -146h-174zM283 265h169l-37 224z" />
    <glyph glyph-name="Aacute" unicode="&#xc1;" horiz-adv-x="728" 
d="M386 688l126 196h132l-134 -196h-124zM-26 0l382 644h174l110 -644h-156l-27 146h-221l-88 -146h-174zM283 265h169l-37 224z" />
    <glyph glyph-name="Abreve" unicode="&#x102;" horiz-adv-x="728" 
d="M451 688q-76 0 -114.5 45t-21.5 127h99q-8 -38 1.5 -60t48.5 -22q37 0 58 24t28 58h112q-17 -82 -71.5 -127t-139.5 -45zM-26 0l382 644h174l110 -644h-156l-27 146h-221l-88 -146h-174zM283 265h169l-37 224z" />
    <glyph glyph-name="uni1EAE" unicode="&#x1eae;" horiz-adv-x="728" 
d="M430 837l98 149h113l-110 -149h-101zM453 688q-76 0 -116.5 38.5t-22.5 125.5h89q-8 -43 4.5 -63t59.5 -20q38 0 63.5 22t33.5 61h96q-18 -87 -71 -125.5t-136 -38.5zM-26 0l382 644h174l110 -644h-156l-27 146h-221l-88 -146h-174zM283 265h169l-37 224z" />
    <glyph glyph-name="uni1EB6" unicode="&#x1eb6;" horiz-adv-x="728" 
d="M450 688q-76 0 -114.5 45t-21.5 127h99q-8 -38 1.5 -60t48.5 -22q37 0 58 24t28 58h112q-17 -82 -71.5 -127t-139.5 -45zM-26 0l382 644h174l110 -644h-156l-27 146h-221l-88 -146h-174zM283 265h169l-37 224zM209 -179l23 109h118l-23 -109h-118z" />
    <glyph glyph-name="uni1EB0" unicode="&#x1eb0;" horiz-adv-x="728" 
d="M437 837l-46 149h114l34 -149h-102zM453 688q-76 0 -116.5 38.5t-22.5 125.5h89q-8 -43 4.5 -63t59.5 -20q38 0 63.5 22t33.5 61h96q-18 -87 -71 -125.5t-136 -38.5zM-26 0l382 644h174l110 -644h-156l-27 146h-221l-88 -146h-174zM283 265h169l-37 224z" />
    <glyph glyph-name="uni1EB2" unicode="&#x1eb2;" horiz-adv-x="728" 
d="M431 844l13 61q44 2 62.5 12t22.5 27t-7 23.5t-36 6.5q-14 0 -28.5 -3t-25.5 -8l13 62q41 13 98 13q53 0 77 -23.5t16 -59.5q-7 -34 -28.5 -52.5t-64.5 -27.5l-6 -31h-106zM453 688q-76 0 -116.5 38.5t-22.5 125.5h89q-8 -43 4.5 -63t59.5 -20q38 0 63.5 22t33.5 61h96
q-18 -87 -71 -125.5t-136 -38.5zM-26 0l382 644h174l110 -644h-156l-27 146h-221l-88 -146h-174zM283 265h169l-37 224z" />
    <glyph glyph-name="uni1EB4" unicode="&#x1eb4;" horiz-adv-x="728" 
d="M581 870q-30 0 -57 10t-52 20t-51 10q-57 0 -100 -37l19 91q17 14 43 23t53 9q32 0 57 -10t49.5 -20.5t53.5 -10.5t53 10.5t40 28.5l-18 -92q-13 -13 -37 -22.5t-53 -9.5zM453 688q-76 0 -116.5 38.5t-22.5 125.5h89q-8 -43 4.5 -63t59.5 -20q38 0 63.5 22t33.5 61h96
q-18 -87 -71 -125.5t-136 -38.5zM-26 0l382 644h174l110 -644h-156l-27 146h-221l-88 -146h-174zM283 265h169l-37 224z" />
    <glyph glyph-name="uni01CD" unicode="&#x1cd;" horiz-adv-x="728" 
d="M401 688l-104 187h116l50 -104l97 104h126l-185 -187h-100zM-26 0l382 644h174l110 -644h-156l-27 146h-221l-88 -146h-174zM283 265h169l-37 224z" />
    <glyph glyph-name="Acircumflex" unicode="&#xc2;" horiz-adv-x="728" 
d="M257 687l184 187h100l105 -187h-114l-53 104l-94 -104h-128zM-26 0l382 644h174l110 -644h-156l-27 146h-221l-88 -146h-174zM283 265h169l-37 224z" />
    <glyph glyph-name="uni1EA4" unicode="&#x1ea4;" horiz-adv-x="728" 
d="M587 809l99 149h120l-106 -149h-113zM255 688l164 144h121l104 -144h-124l-48 80l-82 -80h-135zM-26 0l382 644h174l110 -644h-156l-27 146h-221l-88 -146h-174zM283 265h169l-37 224z" />
    <glyph glyph-name="uni1EAC" unicode="&#x1eac;" horiz-adv-x="728" 
d="M257 688l184 187h100l105 -187h-114l-53 104l-94 -104h-128zM-26 0l382 644h174l110 -644h-156l-27 146h-221l-88 -146h-174zM283 265h169l-37 224zM209 -179l23 109h118l-23 -109h-118z" />
    <glyph glyph-name="uni1EA6" unicode="&#x1ea6;" horiz-adv-x="728" 
d="M254 809l-44 149h120l38 -149h-114zM258 688l164 144h121l104 -144h-124l-48 80l-82 -80h-135zM-26 0l382 644h174l110 -644h-156l-27 146h-221l-88 -146h-174zM283 265h169l-37 224z" />
    <glyph glyph-name="uni1EA8" unicode="&#x1ea8;" horiz-adv-x="728" 
d="M594 787l15 71q44 2 60 10.5t19 22.5q6 25 -38 25q-14 0 -28 -2.5t-26 -7.5l14 67q19 5 42 8.5t51 3.5q57 0 81 -22.5t16 -60.5q-7 -34 -29 -55t-62 -27l-7 -33h-108zM257 688l164 144h121l104 -144h-124l-48 80l-82 -80h-135zM-26 0l382 644h174l110 -644h-156l-27 146
h-221l-88 -146h-174zM283 265h169l-37 224z" />
    <glyph glyph-name="uni1EAA" unicode="&#x1eaa;" horiz-adv-x="728" 
d="M583 847q-30 0 -57 10t-52.5 20t-51.5 10q-57 0 -100 -37l20 91q16 14 42 23t53 9q32 0 57.5 -10t50 -20.5t53.5 -10.5t53 10.5t40 28.5l-20 -92q-12 -13 -35.5 -22.5t-52.5 -9.5zM257 688l164 144h121l104 -144h-124l-48 80l-82 -80h-135zM-26 0l382 644h174l110 -644
h-156l-27 146h-221l-88 -146h-174zM283 265h169l-37 224z" />
    <glyph glyph-name="Adieresis" unicode="&#xc4;" horiz-adv-x="728" 
d="M295 713l24 109h117l-24 -109h-117zM500 713l24 109h118l-24 -109h-118zM-26 0l382 644h174l110 -644h-156l-27 146h-221l-88 -146h-174zM283 265h169l-37 224z" />
    <glyph glyph-name="uni1EA0" unicode="&#x1ea0;" horiz-adv-x="728" 
d="M-26 0l382 644h174l110 -644h-156l-27 146h-221l-88 -146h-174zM283 265h169l-37 224zM209 -179l23 109h118l-23 -109h-118z" />
    <glyph glyph-name="Agrave" unicode="&#xc0;" horiz-adv-x="728" 
d="M389 688l-51 196h132l42 -196h-123zM-26 0l382 644h174l110 -644h-156l-27 146h-221l-88 -146h-174zM283 265h169l-37 224z" />
    <glyph glyph-name="uni1EA2" unicode="&#x1ea2;" horiz-adv-x="728" 
d="M393 688l17 81q54 3 74.5 14.5t24.5 31.5q4 19 -11.5 27.5t-46.5 8.5q-14 0 -31.5 -2.5t-30.5 -6.5l16 72q44 14 110 14t95 -27.5t20 -71.5q-10 -43 -34.5 -64.5t-71.5 -32.5l-9 -44h-122zM-26 0l382 644h174l110 -644h-156l-27 146h-221l-88 -146h-174zM283 265h169
l-37 224z" />
    <glyph glyph-name="Amacron" unicode="&#x100;" horiz-adv-x="728" 
d="M296 704l21 97h317l-21 -97h-317zM-26 0l382 644h174l110 -644h-156l-27 146h-221l-88 -146h-174zM283 265h169l-37 224z" />
    <glyph glyph-name="Aogonek" unicode="&#x104;" horiz-adv-x="740" 
d="M512 -220q-51 0 -82 22.5t-21 71.5q15 76 77 126l-27 146h-223l-88 -146h-174l382 644h174l110 -644q-46 -19 -71 -44.5t-31 -52.5q-4 -20 6 -29t29 -9q13 0 27.5 3t24.5 8l-17 -81q-16 -6 -42 -10.5t-54 -4.5zM283 265h169l-37 224z" />
    <glyph glyph-name="Aring" unicode="&#xc5;" horiz-adv-x="728" 
d="M-26 0l371 626q-30 33 -18 91q11 53 52 89.5t105 36.5q63 0 89.5 -36.5t15.5 -89.5q-6 -28 -20 -51.5t-36 -40.5l107 -625h-156l-27 146h-221l-88 -146h-174zM446 662q28 0 46.5 16t22.5 39q5 23 -4 39.5t-42 16.5q-26 0 -45 -16.5t-24 -39.5q-4 -23 5.5 -39t40.5 -16z
M283 265h169l-37 224z" />
    <glyph glyph-name="Aringacute" unicode="&#x1fa;" horiz-adv-x="728" 
d="M423 867l126 186h132l-134 -186h-124zM-26 0l371 626q-30 33 -18 91q11 53 52 89.5t105 36.5q63 0 89.5 -36.5t15.5 -89.5q-6 -28 -20 -51.5t-36 -40.5l107 -625h-156l-27 146h-221l-88 -146h-174zM446 662q28 0 46.5 16t22.5 39q5 23 -4 39.5t-42 16.5q-26 0 -45 -16.5
t-24 -39.5q-4 -23 5.5 -39t40.5 -16zM283 265h169l-37 224z" />
    <glyph glyph-name="Atilde" unicode="&#xc3;" horiz-adv-x="728" 
d="M543 690q-31 0 -58 10.5t-52.5 20.5t-51.5 10q-29 0 -54.5 -10t-47.5 -28l23 107q17 14 43.5 23t54.5 9q32 0 57.5 -10t50.5 -20.5t54 -10.5q30 0 54.5 10.5t40.5 28.5l-23 -108q-13 -13 -37.5 -22.5t-53.5 -9.5zM-26 0l382 644h174l110 -644h-156l-27 146h-221l-88 -146
h-174zM283 265h169l-37 224z" />
    <glyph glyph-name="AE" unicode="&#xc6;" horiz-adv-x="854" 
d="M-26 0l382 644h546l-26 -124h-261l-29 -135h224l-26 -126h-224l-29 -135h261l-26 -124h-421l31 147h-142l-88 -147h-172zM297 272h105l53 248h-12z" />
    <glyph glyph-name="AEacute" unicode="&#x1fc;" horiz-adv-x="854" 
d="M507 688l126 196h132l-134 -196h-124zM-26 0l382 644h546l-26 -124h-261l-29 -135h224l-26 -126h-224l-29 -135h261l-26 -124h-421l31 147h-142l-88 -147h-172zM297 272h105l53 248h-12z" />
    <glyph glyph-name="B" unicode="B" horiz-adv-x="642" 
d="M-5 0l136 644h332q96 0 140 -48t27 -128q-11 -51 -37.5 -85.5t-63.5 -53.5q41 -16 59 -49.5t6 -90.5q-19 -92 -80.5 -140.5t-168.5 -48.5h-350zM237 382h131q42 0 65 19t30 53q8 37 -7 55.5t-65 18.5h-123zM180 115h147q49 0 71.5 18t32.5 64q8 37 -9 55.5t-68 18.5h-141
z" />
    <glyph glyph-name="C" unicode="C" horiz-adv-x="603" 
d="M317 -10q-105 0 -174.5 39t-96.5 112.5t-5 175.5q35 161 135.5 249t281.5 88q59 0 103.5 -9t83.5 -24l-29 -141q-79 36 -176 36q-96 0 -154.5 -48t-80.5 -151t12 -146.5t142 -43.5q47 0 95 8.5t95 26.5l-30 -142q-45 -14 -94 -22t-108 -8z" />
    <glyph glyph-name="Cacute" unicode="&#x106;" horiz-adv-x="603" 
d="M388 688l126 196h132l-134 -196h-124zM317 -10q-105 0 -174.5 39t-96.5 112.5t-5 175.5q35 161 135.5 249t281.5 88q59 0 103.5 -9t83.5 -24l-29 -141q-79 36 -176 36q-96 0 -154.5 -48t-80.5 -151t12 -146.5t142 -43.5q47 0 95 8.5t95 26.5l-30 -142q-45 -14 -94 -22
t-108 -8z" />
    <glyph glyph-name="Ccaron" unicode="&#x10c;" horiz-adv-x="603" 
d="M405 687l-104 187h116l50 -104l97 104h126l-185 -187h-100zM317 -10q-105 0 -174.5 39t-96.5 112.5t-5 175.5q35 161 135.5 249t281.5 88q59 0 103.5 -9t83.5 -24l-29 -141q-79 36 -176 36q-96 0 -154.5 -48t-80.5 -151t12 -146.5t142 -43.5q47 0 95 8.5t95 26.5
l-30 -142q-45 -14 -94 -22t-108 -8z" />
    <glyph glyph-name="Ccedilla" unicode="&#xc7;" horiz-adv-x="603" 
d="M249 -240q-17 0 -41.5 2.5t-35.5 5.5l15 71q27 -8 59 -8q41 0 60 6.5t23 28.5q5 23 -12 28.5t-46 5.5h-54l46 93q-131 14 -191.5 99t-30.5 225q35 161 135.5 249t281.5 88q59 0 103.5 -9t83.5 -24l-29 -141q-79 36 -176 36q-96 0 -154.5 -48t-80.5 -151t12 -146.5
t142 -43.5q47 0 95 8.5t95 26.5l-30 -142q-37 -12 -76.5 -19.5t-85.5 -9.5l-19 -34q56 0 77 -25.5t13 -67.5q-10 -49 -54.5 -76.5t-124.5 -27.5z" />
    <glyph glyph-name="Ccircumflex" unicode="&#x108;" horiz-adv-x="603" 
d="M239 687l184 187h100l105 -187h-114l-53 104l-94 -104h-128zM317 -10q-105 0 -174.5 39t-96.5 112.5t-5 175.5q35 161 135.5 249t281.5 88q59 0 103.5 -9t83.5 -24l-29 -141q-79 36 -176 36q-96 0 -154.5 -48t-80.5 -151t12 -146.5t142 -43.5q47 0 95 8.5t95 26.5
l-30 -142q-45 -14 -94 -22t-108 -8z" />
    <glyph glyph-name="Cdotaccent" unicode="&#x10a;" horiz-adv-x="603" 
d="M393 714l24 109h117l-24 -109h-117zM317 -10q-105 0 -174.5 39t-96.5 112.5t-5 175.5q35 161 135.5 249t281.5 88q59 0 103.5 -9t83.5 -24l-29 -141q-79 36 -176 36q-96 0 -154.5 -48t-80.5 -151t12 -146.5t142 -43.5q47 0 95 8.5t95 26.5l-30 -142q-45 -14 -94 -22
t-108 -8z" />
    <glyph glyph-name="D" unicode="D" horiz-adv-x="663" 
d="M-5 0l136 644h279q89 0 150 -33t84 -105t-1 -188q-23 -110 -66 -180.5t-113.5 -104t-176.5 -33.5h-292zM182 124h96q59 0 97 15.5t62.5 57.5t41.5 121q17 80 14 123.5t-33.5 61t-97.5 17.5h-96z" />
    <glyph glyph-name="Eth" unicode="&#xd0;" horiz-adv-x="707" 
d="M38 0l54 257h-73l25 117h73l57 270h279q89 0 150 -33t84 -105t-1 -188q-23 -110 -66 -180.5t-113.5 -104t-176.5 -33.5h-292zM225 124h96q59 0 97 15.5t62.5 57.5t41.5 121q17 80 14.5 123.5t-33.5 61t-98 17.5h-96l-31 -146h126l-25 -117h-126z" />
    <glyph glyph-name="Dcaron" unicode="&#x10e;" horiz-adv-x="663" 
d="M342 698l-104 187h116l50 -104l97 104h126l-185 -187h-100zM-5 0l136 644h279q89 0 150 -33t84 -105t-1 -188q-23 -110 -66 -180.5t-113.5 -104t-176.5 -33.5h-292zM182 124h96q59 0 97 15.5t62.5 57.5t41.5 121q17 80 14 123.5t-33.5 61t-97.5 17.5h-96z" />
    <glyph glyph-name="Dcroat" unicode="&#x110;" horiz-adv-x="697" 
d="M28 0l54 257h-73l25 117h73l57 270h279q89 0 150 -33t84 -105t-1 -188q-23 -110 -66 -180.5t-113.5 -104t-176.5 -33.5h-292zM215 124h96q59 0 97 15.5t62.5 57.5t41.5 121q17 80 14.5 123.5t-33.5 61t-98 17.5h-96l-31 -146h126l-25 -117h-126z" />
    <glyph glyph-name="uni1E0C" unicode="&#x1e0c;" horiz-adv-x="663" 
d="M-5 0l136 644h279q89 0 150 -33t84 -105t-1 -188q-23 -110 -66 -180.5t-113.5 -104t-176.5 -33.5h-292zM182 124h96q59 0 97 15.5t62.5 57.5t41.5 121q17 80 14 123.5t-33.5 61t-97.5 17.5h-96zM145 -189l23 109h118l-23 -109h-118z" />
    <glyph glyph-name="uni1E0E" unicode="&#x1e0e;" horiz-adv-x="663" 
d="M-5 0l136 644h279q89 0 150 -33t84 -105t-1 -188q-23 -110 -66 -180.5t-113.5 -104t-176.5 -33.5h-292zM182 124h96q59 0 97 15.5t62.5 57.5t41.5 121q17 80 14 123.5t-33.5 61t-97.5 17.5h-96zM49 -180l21 98h317l-21 -98h-317z" />
    <glyph glyph-name="E" unicode="E" horiz-adv-x="553" 
d="M-5 0l136 644h475l-26 -124h-314l-29 -135h277l-26 -126h-277l-29 -135h314l-26 -124h-475z" />
    <glyph glyph-name="Eacute" unicode="&#xc9;" horiz-adv-x="553" 
d="M301 688l126 196h132l-134 -196h-124zM-5 0l136 644h475l-26 -124h-314l-29 -135h277l-26 -126h-277l-29 -135h314l-26 -124h-475z" />
    <glyph glyph-name="Ebreve" unicode="&#x114;" horiz-adv-x="553" 
d="M382 688q-76 0 -114.5 45t-21.5 127h99q-8 -38 1.5 -60t48.5 -22q37 0 58 24t28 58h112q-17 -82 -71.5 -127t-139.5 -45zM-5 0l136 644h475l-26 -124h-314l-29 -135h277l-26 -126h-277l-29 -135h314l-26 -124h-475z" />
    <glyph glyph-name="Ecaron" unicode="&#x11a;" horiz-adv-x="553" 
d="M335 687l-104 187h116l50 -104l97 104h126l-185 -187h-100zM-5 0l136 644h475l-26 -124h-314l-29 -135h277l-26 -126h-277l-29 -135h314l-26 -124h-475z" />
    <glyph glyph-name="Ecircumflex" unicode="&#xca;" horiz-adv-x="553" 
d="M183 687l184 187h100l105 -187h-114l-53 104l-94 -104h-128zM-5 0l136 644h475l-26 -124h-314l-29 -135h277l-26 -126h-277l-29 -135h314l-26 -124h-475z" />
    <glyph glyph-name="uni1EBE" unicode="&#x1ebe;" horiz-adv-x="551" 
d="M506 809l99 149h120l-106 -149h-113zM174 688l164 144h121l104 -144h-124l-48 80l-82 -80h-135zM-5 0l136 644h475l-26 -124h-314l-29 -135h277l-26 -126h-277l-29 -135h314l-26 -124h-475z" />
    <glyph glyph-name="uni1EC6" unicode="&#x1ec6;" horiz-adv-x="553" 
d="M176 688l184 187h100l105 -187h-114l-53 104l-94 -104h-128zM-5 0l136 644h475l-26 -124h-314l-29 -135h277l-26 -126h-277l-29 -135h314l-26 -124h-475zM129 -179l23 109h118l-23 -109h-118z" />
    <glyph glyph-name="uni1EC0" unicode="&#x1ec0;" horiz-adv-x="553" 
d="M177 809l-44 149h120l38 -149h-114zM181 688l164 144h121l104 -144h-124l-48 80l-82 -80h-135zM-5 0l136 644h475l-26 -124h-314l-29 -135h277l-26 -126h-277l-29 -135h314l-26 -124h-475z" />
    <glyph glyph-name="uni1EC2" unicode="&#x1ec2;" horiz-adv-x="551" 
d="M515 787l15 71q44 2 60 10.5t19 22.5q6 25 -38 25q-14 0 -28 -2.5t-26 -7.5l14 67q19 5 42 8.5t51 3.5q57 0 81 -22.5t16 -60.5q-7 -34 -29 -55t-62 -27l-7 -33h-108zM178 688l164 144h121l104 -144h-124l-48 80l-82 -80h-135zM-5 0l136 644h475l-26 -124h-314l-29 -135
h277l-26 -126h-277l-29 -135h314l-26 -124h-475z" />
    <glyph glyph-name="uni1EC4" unicode="&#x1ec4;" horiz-adv-x="553" 
d="M509 847q-30 0 -57 10t-52.5 20t-51.5 10q-57 0 -100 -37l20 91q16 14 42 23t53 9q32 0 57.5 -10t50 -20.5t53.5 -10.5t53 10.5t40 28.5l-20 -92q-12 -13 -35.5 -22.5t-52.5 -9.5zM183 688l164 144h121l104 -144h-124l-48 80l-82 -80h-135zM-5 0l136 644h475l-26 -124
h-314l-29 -135h277l-26 -126h-277l-29 -135h314l-26 -124h-475z" />
    <glyph glyph-name="Edieresis" unicode="&#xcb;" horiz-adv-x="553" 
d="M225 714l24 109h117l-24 -109h-117zM430 714l24 109h118l-24 -109h-118zM-5 0l136 644h475l-26 -124h-314l-29 -135h277l-26 -126h-277l-29 -135h314l-26 -124h-475z" />
    <glyph glyph-name="Edotaccent" unicode="&#x116;" horiz-adv-x="553" 
d="M323 714l24 109h117l-24 -109h-117zM-5 0l136 644h475l-26 -124h-314l-29 -135h277l-26 -126h-277l-29 -135h314l-26 -124h-475z" />
    <glyph glyph-name="uni1EB8" unicode="&#x1eb8;" horiz-adv-x="553" 
d="M-5 0l136 644h475l-26 -124h-314l-29 -135h277l-26 -126h-277l-29 -135h314l-26 -124h-475zM128 -179l23 109h118l-23 -109h-118z" />
    <glyph glyph-name="Egrave" unicode="&#xc8;" horiz-adv-x="553" 
d="M333 688l-51 196h132l42 -196h-123zM-5 0l136 644h475l-26 -124h-314l-29 -135h277l-26 -126h-277l-29 -135h314l-26 -124h-475z" />
    <glyph glyph-name="uni1EBA" unicode="&#x1eba;" horiz-adv-x="553" 
d="M315 688l17 81q54 3 74.5 14.5t24.5 31.5q4 19 -11.5 27.5t-46.5 8.5q-14 0 -31.5 -2.5t-30.5 -6.5l16 72q44 14 110 14t95 -27.5t20 -71.5q-10 -43 -34.5 -64.5t-71.5 -32.5l-9 -44h-122zM-5 0l136 644h475l-26 -124h-314l-29 -135h277l-26 -126h-277l-29 -135h314
l-26 -124h-475z" />
    <glyph glyph-name="Emacron" unicode="&#x112;" horiz-adv-x="553" 
d="M218 723l21 97h317l-21 -97h-317zM-5 0l136 644h475l-26 -124h-314l-29 -135h277l-26 -126h-277l-29 -135h314l-26 -124h-475z" />
    <glyph glyph-name="Eogonek" unicode="&#x118;" horiz-adv-x="553" 
d="M322 -220q-51 0 -82 22.5t-21 71.5q8 38 34.5 71t64.5 55h-323l136 644h475l-26 -124h-314l-29 -135h277l-26 -126h-277l-29 -135h314l-26 -124h-39q-32 -21 -54.5 -45.5t-28.5 -51.5q-4 -20 6 -29t29 -9q13 0 27.5 3t24.5 8l-17 -81q-16 -6 -42 -10.5t-54 -4.5z" />
    <glyph glyph-name="uni1EBC" unicode="&#x1ebc;" horiz-adv-x="553" 
d="M473 698q-31 0 -58 10.5t-52.5 20.5t-51.5 10q-29 0 -54.5 -10t-47.5 -28l23 107q17 14 43.5 23t54.5 9q32 0 57.5 -10t50.5 -20.5t54 -10.5q30 0 54.5 10.5t40.5 28.5l-23 -108q-13 -13 -37.5 -22.5t-53.5 -9.5zM-5 0l136 644h475l-26 -124h-314l-29 -135h277l-26 -126
h-277l-29 -135h314l-26 -124h-475z" />
    <glyph glyph-name="F" unicode="F" horiz-adv-x="530" 
d="M-5 0l136 644h468l-26 -124h-307l-29 -135h270l-26 -126h-270l-55 -259h-161z" />
    <glyph glyph-name="G" unicode="G" horiz-adv-x="647" 
d="M313 -10q-105 0 -173.5 38t-94.5 110.5t-4 174.5q35 161 140 251t284 90q59 0 105 -7t86 -21l-30 -138q-39 16 -82.5 22t-92.5 6q-103 0 -163 -49.5t-83 -153.5q-22 -100 9.5 -143t128.5 -43q29 0 60 4.5t52 11.5l26 122h-139l21 101h274l-68 -319q-39 -22 -103 -39.5
t-153 -17.5z" />
    <glyph glyph-name="Gbreve" unicode="&#x11e;" horiz-adv-x="647" 
d="M461 688q-76 0 -114.5 45t-21.5 127h99q-8 -38 1.5 -60t48.5 -22q37 0 58 24t28 58h112q-17 -82 -71.5 -127t-139.5 -45zM313 -10q-105 0 -173.5 38t-94.5 110.5t-4 174.5q35 161 140 251t284 90q59 0 105 -7t86 -21l-30 -138q-39 16 -82.5 22t-92.5 6q-103 0 -163 -49.5
t-83 -153.5q-22 -100 9.5 -143t128.5 -43q29 0 60 4.5t52 11.5l26 122h-139l21 101h274l-68 -319q-39 -22 -103 -39.5t-153 -17.5z" />
    <glyph glyph-name="Gcaron" unicode="&#x1e6;" horiz-adv-x="647" 
d="M408 688l-104 187h116l50 -104l97 104h126l-185 -187h-100zM313 -10q-105 0 -173.5 38t-94.5 110.5t-4 174.5q35 161 140 251t284 90q59 0 105 -7t86 -21l-30 -138q-39 16 -82.5 22t-92.5 6q-103 0 -163 -49.5t-83 -153.5q-22 -100 9.5 -143t128.5 -43q29 0 60 4.5
t52 11.5l26 122h-139l21 101h274l-68 -319q-39 -22 -103 -39.5t-153 -17.5z" />
    <glyph glyph-name="Gcircumflex" unicode="&#x11c;" horiz-adv-x="647" 
d="M256 687l184 187h100l105 -187h-114l-53 104l-94 -104h-128zM313 -10q-105 0 -173.5 38t-94.5 110.5t-4 174.5q35 161 140 251t284 90q59 0 105 -7t86 -21l-30 -138q-39 16 -82.5 22t-92.5 6q-103 0 -163 -49.5t-83 -153.5q-22 -100 9.5 -143t128.5 -43q29 0 60 4.5
t52 11.5l26 122h-139l21 101h274l-68 -319q-39 -22 -103 -39.5t-153 -17.5z" />
    <glyph glyph-name="uni0122" unicode="&#x122;" horiz-adv-x="647" 
d="M313 -10q-105 0 -173.5 38t-94.5 110.5t-4 174.5q35 161 140 251t284 90q59 0 105 -7t86 -21l-30 -138q-39 16 -82.5 22t-92.5 6q-103 0 -163 -49.5t-83 -153.5q-22 -100 9.5 -143t128.5 -43q29 0 60 4.5t52 11.5l26 122h-139l21 101h274l-68 -319q-39 -22 -103 -39.5
t-153 -17.5zM177 -250l78 213h129l-99 -213h-108z" />
    <glyph glyph-name="Gdotaccent" unicode="&#x120;" horiz-adv-x="647" 
d="M415 714l24 109h117l-24 -109h-117zM313 -10q-105 0 -173.5 38t-94.5 110.5t-4 174.5q35 161 140 251t284 90q59 0 105 -7t86 -21l-30 -138q-39 16 -82.5 22t-92.5 6q-103 0 -163 -49.5t-83 -153.5q-22 -100 9.5 -143t128.5 -43q29 0 60 4.5t52 11.5l26 122h-139l21 101
h274l-68 -319q-39 -22 -103 -39.5t-153 -17.5z" />
    <glyph glyph-name="uni1E20" unicode="&#x1e20;" horiz-adv-x="647" 
d="M311 717l21 97h317l-21 -97h-317zM313 -10q-105 0 -173.5 38t-94.5 110.5t-4 174.5q35 161 140 251t284 90q59 0 105 -7t86 -21l-30 -138q-39 16 -82.5 22t-92.5 6q-103 0 -163 -49.5t-83 -153.5q-22 -100 9.5 -143t128.5 -43q29 0 60 4.5t52 11.5l26 122h-139l21 101
h274l-68 -319q-39 -22 -103 -39.5t-153 -17.5z" />
    <glyph glyph-name="H" unicode="H" horiz-adv-x="677" 
d="M-5 0l136 644h161l-54 -255h252l54 255h161l-136 -644h-161l54 255h-252l-54 -255h-161z" />
    <glyph glyph-name="Hbar" unicode="&#x126;" horiz-adv-x="677" 
d="M-5 0l96 454h-41l24 115h41l16 75h161l-16 -75h252l16 75h161l-16 -75h41l-24 -115h-41l-96 -454h-161l54 255h-252l-54 -255h-161zM238 389h252l14 65h-252z" />
    <glyph glyph-name="uni1E2A" unicode="&#x1e2a;" horiz-adv-x="677" 
d="M-5 0l136 644h161l-54 -255h252l54 255h161l-136 -644h-161l54 255h-252l-54 -255h-161zM233 -227q-77 0 -115.5 45t-20.5 127h100q-11 -43 1 -62.5t48 -19.5q37 0 58 24t28 58h112q-18 -82 -72.5 -127t-138.5 -45z" />
    <glyph glyph-name="Hcircumflex" unicode="&#x124;" horiz-adv-x="677" 
d="M232 687l184 187h100l105 -187h-114l-53 104l-94 -104h-128zM-5 0l136 644h161l-54 -255h252l54 255h161l-136 -644h-161l54 255h-252l-54 -255h-161z" />
    <glyph glyph-name="uni1E24" unicode="&#x1e24;" horiz-adv-x="677" 
d="M-5 0l136 644h161l-54 -255h252l54 255h161l-136 -644h-161l54 255h-252l-54 -255h-161zM183 -189l23 109h118l-23 -109h-118z" />
    <glyph glyph-name="I" unicode="I" horiz-adv-x="264" 
d="M-5 0l136 644h161l-136 -644h-161z" />
    <glyph glyph-name="IJ" unicode="&#x132;" horiz-adv-x="697" 
d="M354 -10q-41 0 -77 5.5t-66 17.5l29 135q22 -10 50.5 -15.5t59.5 -5.5q45 0 70.5 10.5t39 33t20.5 58.5l88 415h161l-94 -445q-22 -101 -88 -155t-193 -54zM-5 0l136 644h161l-136 -644h-161z" />
    <glyph glyph-name="Iacute" unicode="&#xcd;" horiz-adv-x="265" 
d="M157 688l126 196h132l-134 -196h-124zM-5 0l136 644h161l-136 -644h-161z" />
    <glyph glyph-name="Ibreve" unicode="&#x12c;" horiz-adv-x="263" 
d="M223 705q-76 0 -114.5 45t-21.5 127h99q-8 -38 1.5 -60t48.5 -22q37 0 58 24t28 58h112q-17 -82 -71.5 -127t-139.5 -45zM-6 0l136 644h161l-136 -644h-161z" />
    <glyph glyph-name="uni01CF" unicode="&#x1cf;" horiz-adv-x="263" 
d="M169 688l-104 187h116l50 -104l97 104h126l-185 -187h-100zM-6 0l136 644h161l-136 -644h-161z" />
    <glyph glyph-name="Icircumflex" unicode="&#xce;" horiz-adv-x="263" 
d="M25 687l184 187h100l105 -187h-114l-53 104l-94 -104h-128zM-6 0l136 644h161l-136 -644h-161z" />
    <glyph glyph-name="Idieresis" unicode="&#xcf;" horiz-adv-x="263" 
d="M66 720l24 109h117l-24 -109h-117zM271 720l24 109h118l-24 -109h-118zM-6 0l136 644h161l-136 -644h-161z" />
    <glyph glyph-name="Idotaccent" unicode="&#x130;" horiz-adv-x="264" 
d="M169 720l24 109h117l-24 -109h-117zM-5 0l136 644h161l-136 -644h-161z" />
    <glyph glyph-name="uni1ECA" unicode="&#x1eca;" horiz-adv-x="264" 
d="M-5 0l136 644h161l-136 -644h-161zM-22 -179l23 109h118l-23 -109h-118z" />
    <glyph glyph-name="Igrave" unicode="&#xcc;" horiz-adv-x="263" 
d="M160 688l-51 196h132l42 -196h-123zM-6 0l136 644h161l-136 -644h-161z" />
    <glyph glyph-name="uni1EC8" unicode="&#x1ec8;" horiz-adv-x="265" 
d="M156 688l17 81q54 3 74.5 14.5t24.5 31.5q4 19 -11.5 27.5t-46.5 8.5q-14 0 -31.5 -2.5t-30.5 -6.5l16 72q44 14 110 14t95 -27.5t20 -71.5q-10 -43 -34.5 -64.5t-71.5 -32.5l-9 -44h-122zM-6 0l136 644h161l-136 -644h-161z" />
    <glyph glyph-name="Imacron" unicode="&#x12a;" horiz-adv-x="265" 
d="M70 723l21 97h318l-21 -97h-318zM-5 0l136 644h161l-136 -644h-161z" />
    <glyph glyph-name="Iogonek" unicode="&#x12e;" horiz-adv-x="263" 
d="M23 -220q-51 0 -82 22.5t-21 71.5q8 38 34.5 71t64.5 55h-26l136 644h161l-136 -644h-22q-32 -21 -54.5 -45.5t-28.5 -51.5q-4 -20 6 -29t29 -9q13 0 27.5 3t24.5 8l-17 -81q-16 -6 -42 -10.5t-54 -4.5z" />
    <glyph glyph-name="Itilde" unicode="&#x128;" horiz-adv-x="264" 
d="M315 705q-31 0 -58 10.5t-52.5 20.5t-51.5 10q-29 0 -54.5 -10t-47.5 -28l23 107q17 14 43.5 23t54.5 9q32 0 57.5 -10t50.5 -20.5t54 -10.5q30 0 54.5 10.5t40.5 28.5l-23 -108q-13 -13 -37.5 -22.5t-53.5 -9.5zM-5 0l136 644h161l-136 -644h-161z" />
    <glyph glyph-name="J" unicode="J" horiz-adv-x="442" 
d="M100 -10q-41 0 -77 5.5t-66 17.5l29 135q22 -10 50.5 -15.5t59.5 -5.5q45 0 70.5 10.5t39 33t20.5 58.5l88 415h161l-94 -445q-22 -101 -88 -155t-193 -54z" />
    <glyph glyph-name="Jcircumflex" unicode="&#x134;" horiz-adv-x="441" 
d="M204 687l184 187h100l105 -187h-114l-53 104l-94 -104h-128zM100 -10q-41 0 -77 5.5t-66 17.5l29 135q22 -10 50.5 -15.5t59.5 -5.5q45 0 70.5 10.5t39 33t20.5 58.5l88 415h161l-94 -445q-22 -101 -88 -155t-193 -54z" />
    <glyph glyph-name="K" unicode="K" horiz-adv-x="664" 
d="M-5 0l136 644h161l-53 -250l275 250h184l-286 -263l164 -381h-172l-113 278l-94 -83l-41 -195h-161z" />
    <glyph glyph-name="uni0136" unicode="&#x136;" horiz-adv-x="664" 
d="M-5 0l136 644h161l-53 -250l275 250h184l-286 -263l164 -381h-172l-113 278l-94 -83l-41 -195h-161zM130 -250l78 213h129l-99 -213h-108z" />
    <glyph glyph-name="L" unicode="L" horiz-adv-x="528" 
d="M-5 0l136 644h161l-110 -520h304l-26 -124h-465z" />
    <glyph glyph-name="Lacute" unicode="&#x139;" horiz-adv-x="528" 
d="M158 688l126 196h132l-134 -196h-124zM-5 0l136 644h161l-110 -520h304l-26 -124h-465z" />
    <glyph glyph-name="Lcaron" unicode="&#x13d;" horiz-adv-x="528" 
d="M-5 0l136 644h161l-110 -520h304l-26 -124h-465zM341 431l78 213h129l-98 -213h-109z" />
    <glyph glyph-name="uni013B" unicode="&#x13b;" horiz-adv-x="528" 
d="M-5 0l136 644h161l-110 -520h304l-26 -124h-465zM93 -250l78 213h129l-99 -213h-108z" />
    <glyph glyph-name="Ldot" unicode="&#x13f;" horiz-adv-x="528" 
d="M-5 0l136 644h161l-110 -520h304l-26 -124h-465zM351 284l24 109h118l-24 -109h-118z" />
    <glyph glyph-name="uni1E36" unicode="&#x1e36;" horiz-adv-x="528" 
d="M-5 0l136 644h161l-110 -520h304l-26 -124h-465zM123 -179l23 109h118l-23 -109h-118z" />
    <glyph glyph-name="uni1E38" unicode="&#x1e38;" horiz-adv-x="527" 
d="M85 717l21 97h317l-21 -97h-317zM-6 0l136 644h161l-110 -520h304l-26 -124h-465zM122 -179l23 109h118l-23 -109h-118z" />
    <glyph glyph-name="uni1E3A" unicode="&#x1e3a;" horiz-adv-x="528" 
d="M-5 0l136 644h161l-110 -520h304l-26 -124h-465zM28 -168l21 98h317l-21 -98h-317z" />
    <glyph glyph-name="Lslash" unicode="&#x141;" horiz-adv-x="528" 
d="M-5 0l52 249l-85 -34l25 115l84 34l60 280h161l-45 -210l117 47l-25 -115l-116 -46l-41 -196h304l-26 -124h-465z" />
    <glyph glyph-name="M" unicode="M" horiz-adv-x="769" 
d="M-5 0l136 644h153l100 -357l249 357h164l-136 -644h-161l78 370l-182 -260h-89l-73 260l-78 -370h-161z" />
    <glyph glyph-name="uni1E42" unicode="&#x1e42;" horiz-adv-x="769" 
d="M-5 0l136 644h153l100 -357l249 357h164l-136 -644h-161l78 370l-182 -260h-89l-73 260l-78 -370h-161zM238 -179l23 109h118l-23 -109h-118z" />
    <glyph glyph-name="N" unicode="N" horiz-adv-x="677" 
d="M-5 0l136 644h138l193 -385l81 385h162l-136 -644h-139l-193 384l-81 -384h-161z" />
    <glyph glyph-name="Nacute" unicode="&#x143;" horiz-adv-x="677" 
d="M349 688l126 196h132l-134 -196h-124zM-5 0l136 644h138l193 -385l81 385h162l-136 -644h-139l-193 384l-81 -384h-161z" />
    <glyph glyph-name="Ncaron" unicode="&#x147;" horiz-adv-x="677" 
d="M377 687l-104 187h116l50 -104l97 104h126l-185 -187h-100zM-5 0l136 644h138l193 -385l81 385h162l-136 -644h-139l-193 384l-81 -384h-161z" />
    <glyph glyph-name="uni0145" unicode="&#x145;" horiz-adv-x="677" 
d="M-5 0l136 644h138l193 -385l81 385h162l-136 -644h-139l-193 384l-81 -384h-161zM141 -250l78 213h129l-99 -213h-108z" />
    <glyph glyph-name="uni1E44" unicode="&#x1e44;" horiz-adv-x="677" 
d="M376 714l24 109h117l-24 -109h-117zM-5 0l136 644h138l193 -385l81 385h162l-136 -644h-139l-193 384l-81 -384h-161z" />
    <glyph glyph-name="uni1E46" unicode="&#x1e46;" horiz-adv-x="677" 
d="M-5 0l136 644h138l193 -385l81 385h162l-136 -644h-139l-193 384l-81 -384h-161zM186 -179l23 109h118l-23 -109h-118z" />
    <glyph glyph-name="Eng" unicode="&#x14a;" horiz-adv-x="677" 
d="M345 -234q-71 0 -114 20l23 107q14 -5 29.5 -7.5t28.5 -2.5q37 0 56.5 15.5t26.5 46.5l18 87l-176 352l-81 -384h-161l136 644h138l193 -385l81 385h162l-151 -713q-16 -73 -68 -119t-141 -46z" />
    <glyph glyph-name="uni1E48" unicode="&#x1e48;" horiz-adv-x="677" 
d="M-5 0l136 644h138l193 -385l81 385h162l-136 -644h-139l-193 384l-81 -384h-161zM92 -166l21 98h317l-21 -98h-317z" />
    <glyph glyph-name="Ntilde" unicode="&#xd1;" horiz-adv-x="677" 
d="M529 698q-31 0 -58 10.5t-52.5 20.5t-51.5 10q-29 0 -54.5 -10t-47.5 -28l23 107q17 14 43.5 23t54.5 9q32 0 57.5 -10t50.5 -20.5t54 -10.5q30 0 54.5 10.5t40.5 28.5l-23 -108q-13 -13 -37.5 -22.5t-53.5 -9.5zM-5 0l136 644h138l193 -385l81 385h162l-136 -644h-139
l-193 384l-81 -384h-161z" />
    <glyph glyph-name="O" unicode="O" horiz-adv-x="704" 
d="M293 -10q-96 0 -160.5 36t-89.5 109t-1 184q38 179 133 257t260 78q96 0 160.5 -35.5t89 -109.5t-0.5 -190q-36 -169 -131.5 -249t-259.5 -80zM322 127q81 0 128.5 46.5t68.5 145.5q16 75 11 118t-35.5 61t-89.5 18q-82 0 -129 -44.5t-70 -152.5q-14 -69 -9 -111.5
t35 -61.5t90 -19z" />
    <glyph glyph-name="Oacute" unicode="&#xd3;" horiz-adv-x="704" 
d="M369 688l126 196h132l-134 -196h-124zM293 -10q-96 0 -160.5 36t-89.5 109t-1 184q38 179 133 257t260 78q96 0 160.5 -35.5t89 -109.5t-0.5 -190q-36 -169 -131.5 -249t-259.5 -80zM322 127q81 0 128.5 46.5t68.5 145.5q16 75 11 118t-35.5 61t-89.5 18
q-82 0 -129 -44.5t-70 -152.5q-14 -69 -9 -111.5t35 -61.5t90 -19z" />
    <glyph glyph-name="Obreve" unicode="&#x14e;" horiz-adv-x="704" 
d="M440 688q-76 0 -114.5 45t-21.5 127h99q-8 -38 1.5 -60t48.5 -22q37 0 58 24t28 58h112q-17 -82 -71.5 -127t-139.5 -45zM293 -10q-96 0 -160.5 36t-89.5 109t-1 184q38 179 133 257t260 78q96 0 160.5 -35.5t89 -109.5t-0.5 -190q-36 -169 -131.5 -249t-259.5 -80z
M322 127q81 0 128.5 46.5t68.5 145.5q16 75 11 118t-35.5 61t-89.5 18q-82 0 -129 -44.5t-70 -152.5q-14 -69 -9 -111.5t35 -61.5t90 -19z" />
    <glyph glyph-name="uni01D1" unicode="&#x1d1;" horiz-adv-x="704" 
d="M390 688l-104 187h116l50 -104l97 104h126l-185 -187h-100zM293 -10q-96 0 -160.5 36t-89.5 109t-1 184q38 179 133 257t260 78q96 0 160.5 -35.5t89 -109.5t-0.5 -190q-36 -169 -131.5 -249t-259.5 -80zM322 127q81 0 128.5 46.5t68.5 145.5q16 75 11 118t-35.5 61
t-89.5 18q-82 0 -129 -44.5t-70 -152.5q-14 -69 -9 -111.5t35 -61.5t90 -19z" />
    <glyph glyph-name="Ocircumflex" unicode="&#xd4;" horiz-adv-x="704" 
d="M247 687l184 187h100l105 -187h-114l-53 104l-94 -104h-128zM293 -10q-96 0 -160.5 36t-89.5 109t-1 184q38 179 133 257t260 78q96 0 160.5 -35.5t89 -109.5t-0.5 -190q-36 -169 -131.5 -249t-259.5 -80zM322 127q81 0 128.5 46.5t68.5 145.5q16 75 11 118t-35.5 61
t-89.5 18q-82 0 -129 -44.5t-70 -152.5q-14 -69 -9 -111.5t35 -61.5t90 -19z" />
    <glyph glyph-name="uni1ED0" unicode="&#x1ed0;" horiz-adv-x="704" 
d="M578 809l99 149h120l-106 -149h-113zM246 688l164 144h121l104 -144h-124l-48 80l-82 -80h-135zM293 -10q-96 0 -160.5 36t-89.5 109t-1 184q38 179 133 257t260 78q96 0 160.5 -35.5t89 -109.5t-0.5 -190q-36 -169 -131.5 -249t-259.5 -80zM322 127q81 0 128.5 46.5
t68.5 145.5q16 75 11 118t-35.5 61t-89.5 18q-82 0 -129 -44.5t-70 -152.5q-14 -69 -9 -111.5t35 -61.5t90 -19z" />
    <glyph glyph-name="uni1ED8" unicode="&#x1ed8;" horiz-adv-x="704" 
d="M247 689l184 187h100l105 -187h-114l-53 104l-94 -104h-128zM293 -10q-96 0 -160.5 36t-89.5 109t-1 184q38 179 133 257t260 78q96 0 160.5 -35.5t89 -109.5t-0.5 -190q-36 -169 -131.5 -249t-259.5 -80zM322 127q81 0 128.5 46.5t68.5 145.5q16 75 11 118t-35.5 61
t-89.5 18q-82 0 -129 -44.5t-70 -152.5q-14 -69 -9 -111.5t35 -61.5t90 -19zM198 -179l23 109h118l-23 -109h-118z" />
    <glyph glyph-name="uni1ED2" unicode="&#x1ed2;" horiz-adv-x="704" 
d="M242 809l-44 149h120l38 -149h-114zM246 688l164 144h121l104 -144h-124l-48 80l-82 -80h-135zM293 -10q-96 0 -160.5 36t-89.5 109t-1 184q38 179 133 257t260 78q96 0 160.5 -35.5t89 -109.5t-0.5 -190q-36 -169 -131.5 -249t-259.5 -80zM322 127q81 0 128.5 46.5
t68.5 145.5q16 75 11 118t-35.5 61t-89.5 18q-82 0 -129 -44.5t-70 -152.5q-14 -69 -9 -111.5t35 -61.5t90 -19z" />
    <glyph glyph-name="uni1ED4" unicode="&#x1ed4;" horiz-adv-x="704" 
d="M583 787l15 71q44 2 60 10.5t19 22.5q6 25 -38 25q-14 0 -28 -2.5t-26 -7.5l14 67q19 5 42 8.5t51 3.5q57 0 81 -22.5t16 -60.5q-7 -34 -29 -55t-62 -27l-7 -33h-108zM246 688l164 144h121l104 -144h-124l-48 80l-82 -80h-135zM293 -10q-96 0 -160.5 36t-89.5 109t-1 184
q38 179 133 257t260 78q96 0 160.5 -35.5t89 -109.5t-0.5 -190q-36 -169 -131.5 -249t-259.5 -80zM322 127q81 0 128.5 46.5t68.5 145.5q16 75 11 118t-35.5 61t-89.5 18q-82 0 -129 -44.5t-70 -152.5q-14 -69 -9 -111.5t35 -61.5t90 -19z" />
    <glyph glyph-name="uni1ED6" unicode="&#x1ed6;" horiz-adv-x="704" 
d="M565 847q-30 0 -57 10t-52.5 20t-51.5 10q-57 0 -100 -37l20 91q16 14 42 23t53 9q32 0 57.5 -10t50 -20.5t53.5 -10.5t53 10.5t40 28.5l-20 -92q-12 -13 -35.5 -22.5t-52.5 -9.5zM246 688l164 144h121l104 -144h-124l-48 80l-82 -80h-135zM293 -10q-96 0 -160.5 36
t-89.5 109t-1 184q38 179 133 257t260 78q96 0 160.5 -35.5t89 -109.5t-0.5 -190q-36 -169 -131.5 -249t-259.5 -80zM322 127q81 0 128.5 46.5t68.5 145.5q16 75 11 118t-35.5 61t-89.5 18q-82 0 -129 -44.5t-70 -152.5q-14 -69 -9 -111.5t35 -61.5t90 -19z" />
    <glyph glyph-name="Odieresis" unicode="&#xd6;" horiz-adv-x="704" 
d="M285 714l24 109h117l-24 -109h-117zM490 714l24 109h118l-24 -109h-118zM293 -10q-96 0 -160.5 36t-89.5 109t-1 184q38 179 133 257t260 78q96 0 160.5 -35.5t89 -109.5t-0.5 -190q-36 -169 -131.5 -249t-259.5 -80zM322 127q81 0 128.5 46.5t68.5 145.5q16 75 11 118
t-35.5 61t-89.5 18q-82 0 -129 -44.5t-70 -152.5q-14 -69 -9 -111.5t35 -61.5t90 -19z" />
    <glyph glyph-name="uni1ECC" unicode="&#x1ecc;" horiz-adv-x="704" 
d="M293 -10q-96 0 -160.5 36t-89.5 109t-1 184q38 179 133 257t260 78q96 0 160.5 -35.5t89 -109.5t-0.5 -190q-36 -169 -131.5 -249t-259.5 -80zM322 127q81 0 128.5 46.5t68.5 145.5q16 75 11 118t-35.5 61t-89.5 18q-82 0 -129 -44.5t-70 -152.5q-14 -69 -9 -111.5
t35 -61.5t90 -19zM199 -179l23 109h118l-23 -109h-118z" />
    <glyph glyph-name="Ograve" unicode="&#xd2;" horiz-adv-x="704" 
d="M386 688l-51 196h132l42 -196h-123zM293 -10q-96 0 -160.5 36t-89.5 109t-1 184q38 179 133 257t260 78q96 0 160.5 -35.5t89 -109.5t-0.5 -190q-36 -169 -131.5 -249t-259.5 -80zM322 127q81 0 128.5 46.5t68.5 145.5q16 75 11 118t-35.5 61t-89.5 18q-82 0 -129 -44.5
t-70 -152.5q-14 -69 -9 -111.5t35 -61.5t90 -19z" />
    <glyph glyph-name="uni1ECE" unicode="&#x1ece;" horiz-adv-x="704" 
d="M379 688l17 81q54 3 74.5 14.5t24.5 31.5q4 19 -11.5 27.5t-46.5 8.5q-14 0 -31.5 -2.5t-30.5 -6.5l16 72q44 14 110 14t95 -27.5t20 -71.5q-10 -43 -34.5 -64.5t-71.5 -32.5l-9 -44h-122zM293 -10q-96 0 -160.5 36t-89.5 109t-1 184q38 179 133 257t260 78
q96 0 160.5 -35.5t89 -109.5t-0.5 -190q-36 -169 -131.5 -249t-259.5 -80zM322 127q81 0 128.5 46.5t68.5 145.5q16 75 11 118t-35.5 61t-89.5 18q-82 0 -129 -44.5t-70 -152.5q-14 -69 -9 -111.5t35 -61.5t90 -19z" />
    <glyph glyph-name="Ohorn" unicode="&#x1a0;" horiz-adv-x="786" 
d="M293 -10q-96 0 -160.5 36t-89.5 109t-1 184q38 179 133 257t260 78q66 0 118 -17t86 -52q54 0 79.5 23t37.5 80h115q-21 -97 -65.5 -142.5t-116.5 -59.5q8 -34 7 -75.5t-12 -91.5q-36 -169 -131.5 -249t-259.5 -80zM322 127q81 0 128.5 46.5t68.5 145.5q16 75 11 118
t-35.5 61t-89.5 18q-82 0 -129 -44.5t-70 -152.5q-14 -69 -9 -111.5t35 -61.5t90 -19z" />
    <glyph glyph-name="uni1EDA" unicode="&#x1eda;" horiz-adv-x="786" 
d="M381 688l126 196h132l-134 -196h-124zM293 -10q-96 0 -160.5 36t-89.5 109t-1 184q38 179 133 257t260 78q66 0 118 -17t86 -52q54 0 79.5 23t37.5 80h115q-21 -97 -65.5 -142.5t-116.5 -59.5q8 -34 7 -75.5t-12 -91.5q-36 -169 -131.5 -249t-259.5 -80zM322 127
q81 0 128.5 46.5t68.5 145.5q16 75 11 118t-35.5 61t-89.5 18q-82 0 -129 -44.5t-70 -152.5q-14 -69 -9 -111.5t35 -61.5t90 -19z" />
    <glyph glyph-name="uni1EE2" unicode="&#x1ee2;" horiz-adv-x="786" 
d="M293 -10q-96 0 -160.5 36t-89.5 109t-1 184q38 179 133 257t260 78q66 0 118 -17t86 -52q54 0 79.5 23t37.5 80h115q-21 -97 -65.5 -142.5t-116.5 -59.5q8 -34 7 -75.5t-12 -91.5q-36 -169 -131.5 -249t-259.5 -80zM322 127q81 0 128.5 46.5t68.5 145.5q16 75 11 118
t-35.5 61t-89.5 18q-82 0 -129 -44.5t-70 -152.5q-14 -69 -9 -111.5t35 -61.5t90 -19zM200 -179l23 109h118l-23 -109h-118z" />
    <glyph glyph-name="uni1EDC" unicode="&#x1edc;" horiz-adv-x="786" 
d="M397 688l-51 196h132l42 -196h-123zM293 -10q-96 0 -160.5 36t-89.5 109t-1 184q38 179 133 257t260 78q66 0 118 -17t86 -52q54 0 79.5 23t37.5 80h115q-21 -97 -65.5 -142.5t-116.5 -59.5q8 -34 7 -75.5t-12 -91.5q-36 -169 -131.5 -249t-259.5 -80zM322 127
q81 0 128.5 46.5t68.5 145.5q16 75 11 118t-35.5 61t-89.5 18q-82 0 -129 -44.5t-70 -152.5q-14 -69 -9 -111.5t35 -61.5t90 -19z" />
    <glyph glyph-name="uni1EDE" unicode="&#x1ede;" horiz-adv-x="786" 
d="M382 688l17 81q54 3 74.5 14.5t24.5 31.5q4 19 -11.5 27.5t-46.5 8.5q-14 0 -31.5 -2.5t-30.5 -6.5l16 72q44 14 110 14t95 -27.5t20 -71.5q-10 -43 -34.5 -64.5t-71.5 -32.5l-9 -44h-122zM293 -10q-96 0 -160.5 36t-89.5 109t-1 184q38 179 133 257t260 78q66 0 118 -17
t86 -52q54 0 79.5 23t37.5 80h115q-21 -97 -65.5 -142.5t-116.5 -59.5q8 -34 7 -75.5t-12 -91.5q-36 -169 -131.5 -249t-259.5 -80zM322 127q81 0 128.5 46.5t68.5 145.5q16 75 11 118t-35.5 61t-89.5 18q-82 0 -129 -44.5t-70 -152.5q-14 -69 -9 -111.5t35 -61.5t90 -19z
" />
    <glyph glyph-name="uni1EE0" unicode="&#x1ee0;" horiz-adv-x="786" 
d="M540 694q-31 0 -58 10.5t-52.5 20.5t-51.5 10q-29 0 -54.5 -10t-47.5 -28l23 107q17 14 43.5 23t54.5 9q32 0 57.5 -10t50.5 -20.5t54 -10.5q30 0 54.5 10.5t40.5 28.5l-23 -108q-13 -13 -37.5 -22.5t-53.5 -9.5zM293 -10q-96 0 -160.5 36t-89.5 109t-1 184
q38 179 133 257t260 78q66 0 118 -17t86 -52q54 0 79.5 23t37.5 80h115q-21 -97 -65.5 -142.5t-116.5 -59.5q8 -34 7 -75.5t-12 -91.5q-36 -169 -131.5 -249t-259.5 -80zM322 127q81 0 128.5 46.5t68.5 145.5q16 75 11 118t-35.5 61t-89.5 18q-82 0 -129 -44.5t-70 -152.5
q-14 -69 -9 -111.5t35 -61.5t90 -19z" />
    <glyph glyph-name="Ohungarumlaut" unicode="&#x150;" horiz-adv-x="704" 
d="M238 688l120 180h138l-134 -180h-124zM468 688l120 180h139l-135 -180h-124zM293 -10q-96 0 -160.5 36t-89.5 109t-1 184q38 179 133 257t260 78q96 0 160.5 -35.5t89 -109.5t-0.5 -190q-36 -169 -131.5 -249t-259.5 -80zM322 127q81 0 128.5 46.5t68.5 145.5
q16 75 11 118t-35.5 61t-89.5 18q-82 0 -129 -44.5t-70 -152.5q-14 -69 -9 -111.5t35 -61.5t90 -19z" />
    <glyph glyph-name="Omacron" unicode="&#x14c;" horiz-adv-x="704" 
d="M288 724l21 97h317l-21 -97h-317zM293 -10q-96 0 -160.5 36t-89.5 109t-1 184q38 179 133 257t260 78q96 0 160.5 -35.5t89 -109.5t-0.5 -190q-36 -169 -131.5 -249t-259.5 -80zM322 127q81 0 128.5 46.5t68.5 145.5q16 75 11 118t-35.5 61t-89.5 18q-82 0 -129 -44.5
t-70 -152.5q-14 -69 -9 -111.5t35 -61.5t90 -19z" />
    <glyph glyph-name="Oslash" unicode="&#xd8;" horiz-adv-x="704" 
d="M88 -53l46 77q-65 36 -91 109.5t-1 185.5q38 179 133 257t260 78q40 0 74 -6l27 45h89l-41 -69q70 -34 98 -109t2 -196q-36 -169 -131.5 -249t-259.5 -80q-23 0 -44.5 2t-41.5 6l-30 -51h-89zM216 160l213 355q-6 0 -12 0.5t-12 0.5q-82 0 -129 -44.5t-70 -152.5
q-12 -59 -10.5 -98t20.5 -61zM322 127q81 0 128.5 46.5t68.5 145.5q14 68 11.5 110t-26.5 62l-218 -362q8 -1 17 -1.5t19 -0.5z" />
    <glyph glyph-name="Oslashacute" unicode="&#x1fe;" horiz-adv-x="704" 
d="M347 688l126 196h132l-134 -196h-124zM88 -53l46 77q-65 36 -91 109.5t-1 185.5q38 179 133 257t260 78q40 0 74 -6l27 45h89l-41 -69q70 -34 98 -109t2 -196q-36 -169 -131.5 -249t-259.5 -80q-23 0 -44.5 2t-41.5 6l-30 -51h-89zM216 160l213 355q-6 0 -12 0.5t-12 0.5
q-82 0 -129 -44.5t-70 -152.5q-12 -59 -10.5 -98t20.5 -61zM322 127q81 0 128.5 46.5t68.5 145.5q14 68 11.5 110t-26.5 62l-218 -362q8 -1 17 -1.5t19 -0.5z" />
    <glyph glyph-name="Otilde" unicode="&#xd5;" horiz-adv-x="704" 
d="M538 710q-31 0 -58 10.5t-52.5 20.5t-51.5 10q-29 0 -54.5 -10t-47.5 -28l23 107q17 14 43.5 23t54.5 9q32 0 57.5 -10t50.5 -20.5t54 -10.5q30 0 54.5 10.5t40.5 28.5l-23 -108q-13 -13 -37.5 -22.5t-53.5 -9.5zM293 -10q-96 0 -160.5 36t-89.5 109t-1 184
q38 179 133 257t260 78q96 0 160.5 -35.5t89 -109.5t-0.5 -190q-36 -169 -131.5 -249t-259.5 -80zM322 127q81 0 128.5 46.5t68.5 145.5q16 75 11 118t-35.5 61t-89.5 18q-82 0 -129 -44.5t-70 -152.5q-14 -69 -9 -111.5t35 -61.5t90 -19z" />
    <glyph glyph-name="OE" unicode="&#x152;" horiz-adv-x="1016" 
d="M293 -10q-96 0 -160.5 36t-89.5 109t-1 184q38 179 133 257t260 78q44 0 81 -9.5t68 -26.5l5 26h475l-26 -124h-314l-29 -135h277l-26 -126h-277l-29 -135h314l-26 -124h-475l5 23q-31 -15 -74.5 -24t-90.5 -9zM322 127q81 0 128.5 46.5t68.5 145.5q16 75 11 118
t-35.5 61t-89.5 18q-82 0 -129 -44.5t-70 -152.5q-14 -69 -9 -111.5t35 -61.5t90 -19z" />
    <glyph glyph-name="P" unicode="P" horiz-adv-x="606" 
d="M-5 0l136 644h308q75 0 120.5 -31t62 -83t3.5 -116q-20 -104 -88 -164.5t-184 -60.5h-157l-40 -189h-161zM222 313h116q59 0 87 28t37 74q11 56 -4.5 80.5t-70.5 24.5h-121z" />
    <glyph glyph-name="Thorn" unicode="&#xde;" horiz-adv-x="607" 
d="M-5 0l136 644h161l-20 -97h156q71 0 115 -29.5t60.5 -81t2.5 -116.5q-22 -100 -92 -162.5t-186 -62.5h-152l-20 -95h-161zM202 219h116q57 0 85.5 27.5t38.5 73.5q11 50 -3.5 76.5t-72.5 26.5h-121z" />
    <glyph glyph-name="Q" unicode="Q" horiz-adv-x="704" 
d="M369 -172q-92 0 -124.5 41.5t-16.5 125.5q-112 17 -165 97t-21 227q38 179 133 257t260 78q96 0 160.5 -35.5t89 -109.5t-0.5 -190q-31 -148 -108 -227.5t-205 -96.5q-8 -34 1.5 -45t38.5 -11q30 0 64 8l-23 -109q-16 -4 -41 -7t-42 -3zM322 127q81 0 128.5 46.5
t68.5 145.5q16 75 11 118t-35.5 61t-89.5 18q-82 0 -129 -44.5t-70 -152.5q-14 -69 -9 -111.5t35 -61.5t90 -19z" />
    <glyph glyph-name="R" unicode="R" horiz-adv-x="626" 
d="M-5 0l136 644h322q64 0 108.5 -27.5t63 -77t3.5 -116.5q-13 -65 -56.5 -114t-105.5 -73q11 -11 16.5 -24.5t10.5 -37.5l40 -174h-168l-38 164q-5 23 -16.5 31.5t-37.5 8.5h-74l-43 -204h-161zM225 328h119q47 0 78.5 23.5t41.5 71.5q11 48 -1.5 72.5t-70.5 24.5h-126z
" />
    <glyph glyph-name="Racute" unicode="&#x154;" horiz-adv-x="626" 
d="M297 688l126 196h132l-134 -196h-124zM-5 0l136 644h322q64 0 108.5 -27.5t63 -77t3.5 -116.5q-13 -65 -56.5 -114t-105.5 -73q11 -11 16.5 -24.5t10.5 -37.5l40 -174h-168l-38 164q-5 23 -16.5 31.5t-37.5 8.5h-74l-43 -204h-161zM225 328h119q47 0 78.5 23.5t41.5 71.5
q11 48 -1.5 72.5t-70.5 24.5h-126z" />
    <glyph glyph-name="Rcaron" unicode="&#x158;" horiz-adv-x="626" 
d="M322 688l-104 187h116l50 -104l97 104h126l-185 -187h-100zM-5 0l136 644h322q64 0 108.5 -27.5t63 -77t3.5 -116.5q-13 -65 -56.5 -114t-105.5 -73q11 -11 16.5 -24.5t10.5 -37.5l40 -174h-168l-38 164q-5 23 -16.5 31.5t-37.5 8.5h-74l-43 -204h-161zM225 328h119
q47 0 78.5 23.5t41.5 71.5q11 48 -1.5 72.5t-70.5 24.5h-126z" />
    <glyph glyph-name="uni0156" unicode="&#x156;" horiz-adv-x="626" 
d="M-5 0l136 644h322q64 0 108.5 -27.5t63 -77t3.5 -116.5q-13 -65 -56.5 -114t-105.5 -73q11 -11 16.5 -24.5t10.5 -37.5l40 -174h-168l-38 164q-5 23 -16.5 31.5t-37.5 8.5h-74l-43 -204h-161zM225 328h119q47 0 78.5 23.5t41.5 71.5q11 48 -1.5 72.5t-70.5 24.5h-126z
M98 -250l78 213h129l-99 -213h-108z" />
    <glyph glyph-name="uni1E5A" unicode="&#x1e5a;" horiz-adv-x="626" 
d="M-5 0l136 644h322q64 0 108.5 -27.5t63 -77t3.5 -116.5q-13 -65 -56.5 -114t-105.5 -73q11 -11 16.5 -24.5t10.5 -37.5l40 -174h-168l-38 164q-5 23 -16.5 31.5t-37.5 8.5h-74l-43 -204h-161zM225 328h119q47 0 78.5 23.5t41.5 71.5q11 48 -1.5 72.5t-70.5 24.5h-126z
M151 -179l23 109h118l-23 -109h-118z" />
    <glyph glyph-name="uni1E5C" unicode="&#x1e5c;" horiz-adv-x="626" 
d="M215 717l21 97h317l-21 -97h-317zM-5 0l136 644h322q64 0 108.5 -27.5t63 -77t3.5 -116.5q-13 -65 -56.5 -114t-105.5 -73q11 -11 16.5 -24.5t10.5 -37.5l40 -174h-168l-38 164q-5 23 -16.5 31.5t-37.5 8.5h-74l-43 -204h-161zM225 328h119q47 0 78.5 23.5t41.5 71.5
q11 48 -1.5 72.5t-70.5 24.5h-126zM151 -179l23 109h118l-23 -109h-118z" />
    <glyph glyph-name="uni1E5E" unicode="&#x1e5e;" horiz-adv-x="626" 
d="M-5 0l136 644h322q64 0 108.5 -27.5t63 -77t3.5 -116.5q-13 -65 -56.5 -114t-105.5 -73q11 -11 16.5 -24.5t10.5 -37.5l40 -174h-168l-38 164q-5 23 -16.5 31.5t-37.5 8.5h-74l-43 -204h-161zM225 328h119q47 0 78.5 23.5t41.5 71.5q11 48 -1.5 72.5t-70.5 24.5h-126z
M48 -166l21 98h317l-21 -98h-317z" />
    <glyph glyph-name="S" unicode="S" horiz-adv-x="556" 
d="M197 -10q-64 0 -117.5 9.5t-89.5 27.5l29 137q41 -19 91.5 -31t98.5 -12q60 0 92 11t40 48q5 25 -6 40t-41.5 26.5t-82.5 27.5q-93 29 -123.5 71.5t-14.5 118.5q20 92 96.5 141t205.5 49q56 0 107 -8.5t82 -19.5l-30 -138q-40 17 -81.5 25t-82.5 8q-54 0 -89.5 -10
t-43.5 -46q-4 -21 5 -33.5t36.5 -22.5t75.5 -24q75 -21 110.5 -50.5t43.5 -68t-2 -86.5q-18 -85 -95.5 -137.5t-213.5 -52.5z" />
    <glyph glyph-name="Sacute" unicode="&#x15a;" horiz-adv-x="556" 
d="M292 689l126 196h132l-134 -196h-124zM197 -10q-64 0 -117.5 9.5t-89.5 27.5l29 137q41 -19 91.5 -31t98.5 -12q60 0 92 11t40 48q5 25 -6 40t-41.5 26.5t-82.5 27.5q-93 29 -123.5 71.5t-14.5 118.5q20 92 96.5 141t205.5 49q56 0 107 -8.5t82 -19.5l-30 -138
q-40 17 -81.5 25t-82.5 8q-54 0 -89.5 -10t-43.5 -46q-4 -21 5 -33.5t36.5 -22.5t75.5 -24q75 -21 110.5 -50.5t43.5 -68t-2 -86.5q-18 -85 -95.5 -137.5t-213.5 -52.5z" />
    <glyph glyph-name="Scaron" unicode="&#x160;" horiz-adv-x="556" 
d="M315 688l-104 187h116l50 -104l97 104h126l-185 -187h-100zM197 -10q-64 0 -117.5 9.5t-89.5 27.5l29 137q41 -19 91.5 -31t98.5 -12q60 0 92 11t40 48q5 25 -6 40t-41.5 26.5t-82.5 27.5q-93 29 -123.5 71.5t-14.5 118.5q20 92 96.5 141t205.5 49q56 0 107 -8.5
t82 -19.5l-30 -138q-40 17 -81.5 25t-82.5 8q-54 0 -89.5 -10t-43.5 -46q-4 -21 5 -33.5t36.5 -22.5t75.5 -24q75 -21 110.5 -50.5t43.5 -68t-2 -86.5q-18 -85 -95.5 -137.5t-213.5 -52.5z" />
    <glyph glyph-name="Scedilla" unicode="&#x15e;" horiz-adv-x="556" 
d="M146 -240q-17 0 -41.5 2.5t-35.5 5.5l15 71q27 -8 59 -8q41 0 60 6.5t23 28.5q5 23 -12 28.5t-46 5.5h-54l45 91q-52 3 -95 11.5t-74 24.5l29 137q41 -19 91.5 -31t98.5 -12q60 0 92 11t40 48q5 25 -6 40t-41.5 26.5t-82.5 27.5q-93 29 -123.5 71.5t-14.5 118.5
q20 92 96.5 141t205.5 49q56 0 107 -8.5t82 -19.5l-30 -138q-40 17 -81.5 25t-82.5 8q-54 0 -89.5 -10t-43.5 -46q-4 -21 5 -33.5t36.5 -22.5t75.5 -24q75 -21 110.5 -50.5t43.5 -68t-2 -86.5q-16 -76 -78.5 -126t-171.5 -61l-21 -36q56 0 77 -25.5t13 -67.5
q-10 -49 -54.5 -76.5t-124.5 -27.5z" />
    <glyph glyph-name="Scircumflex" unicode="&#x15c;" horiz-adv-x="556" 
d="M162 689l184 187h100l105 -187h-114l-53 104l-94 -104h-128zM197 -10q-64 0 -117.5 9.5t-89.5 27.5l29 137q41 -19 91.5 -31t98.5 -12q60 0 92 11t40 48q5 25 -6 40t-41.5 26.5t-82.5 27.5q-93 29 -123.5 71.5t-14.5 118.5q20 92 96.5 141t205.5 49q56 0 107 -8.5
t82 -19.5l-30 -138q-40 17 -81.5 25t-82.5 8q-54 0 -89.5 -10t-43.5 -46q-4 -21 5 -33.5t36.5 -22.5t75.5 -24q75 -21 110.5 -50.5t43.5 -68t-2 -86.5q-18 -85 -95.5 -137.5t-213.5 -52.5z" />
    <glyph glyph-name="uni0218" unicode="&#x218;" horiz-adv-x="556" 
d="M197 -10q-64 0 -117.5 9.5t-89.5 27.5l29 137q41 -19 91.5 -31t98.5 -12q60 0 92 11t40 48q5 25 -6 40t-41.5 26.5t-82.5 27.5q-93 29 -123.5 71.5t-14.5 118.5q20 92 96.5 141t205.5 49q56 0 107 -8.5t82 -19.5l-30 -138q-40 17 -81.5 25t-82.5 8q-54 0 -89.5 -10
t-43.5 -46q-4 -21 5 -33.5t36.5 -22.5t75.5 -24q75 -21 110.5 -50.5t43.5 -68t-2 -86.5q-18 -85 -95.5 -137.5t-213.5 -52.5zM82 -231l70 186h132l-84 -186h-118z" />
    <glyph glyph-name="uni1E60" unicode="&#x1e60;" horiz-adv-x="556" 
d="M307 714l24 109h117l-24 -109h-117zM197 -10q-64 0 -117.5 9.5t-89.5 27.5l29 137q41 -19 91.5 -31t98.5 -12q60 0 92 11t40 48q5 25 -6 40t-41.5 26.5t-82.5 27.5q-93 29 -123.5 71.5t-14.5 118.5q20 92 96.5 141t205.5 49q56 0 107 -8.5t82 -19.5l-30 -138
q-40 17 -81.5 25t-82.5 8q-54 0 -89.5 -10t-43.5 -46q-4 -21 5 -33.5t36.5 -22.5t75.5 -24q75 -21 110.5 -50.5t43.5 -68t-2 -86.5q-18 -85 -95.5 -137.5t-213.5 -52.5z" />
    <glyph glyph-name="uni1E62" unicode="&#x1e62;" horiz-adv-x="556" 
d="M197 -10q-64 0 -117.5 9.5t-89.5 27.5l29 137q41 -19 91.5 -31t98.5 -12q60 0 92 11t40 48q5 25 -6 40t-41.5 26.5t-82.5 27.5q-93 29 -123.5 71.5t-14.5 118.5q20 92 96.5 141t205.5 49q56 0 107 -8.5t82 -19.5l-30 -138q-40 17 -81.5 25t-82.5 8q-54 0 -89.5 -10
t-43.5 -46q-4 -21 5 -33.5t36.5 -22.5t75.5 -24q75 -21 110.5 -50.5t43.5 -68t-2 -86.5q-18 -85 -95.5 -137.5t-213.5 -52.5zM119 -179l23 109h118l-23 -109h-118z" />
    <glyph glyph-name="uni1E9E" unicode="&#x1e9e;" horiz-adv-x="634" 
d="M338 -10q-82 0 -135 22l26 124q20 -9 46.5 -14t51.5 -5q48 0 70 17.5t29 51.5q7 32 -11.5 45.5t-56.5 13.5h-83l23 109l171 101q6 27 -17.5 45t-81.5 18q-70 0 -100 -27t-41 -79l-87 -412h-152l87 413q24 112 105 176.5t217 64.5q93 0 144.5 -31t68 -82.5t2.5 -113.5
l-165 -97h22q42 0 70.5 -20t40.5 -53.5t2 -76.5q-12 -56 -46.5 -99t-85 -67t-114.5 -24z" />
    <glyph glyph-name="uni018F" unicode="&#x18f;" horiz-adv-x="684" 
d="M274 -10q-91 0 -152 34t-84.5 97.5t-5.5 149.5l25 118h471q8 58 -7 90t-60.5 45t-130.5 13q-31 0 -70.5 -5.5t-78 -14.5t-66.5 -20l24 114q50 17 116.5 30t134.5 13q104 0 173 -40t96 -116.5t4 -184.5q-21 -99 -66 -171.5t-123.5 -112t-199.5 -39.5zM298 100
q88 0 137.5 44t68.5 131h-329l-9 -40q-8 -42 0 -72t39.5 -46.5t92.5 -16.5z" />
    <glyph glyph-name="T" unicode="T" horiz-adv-x="561" 
d="M144 0l110 520h-189l26 124h539l-26 -124h-189l-110 -520h-161z" />
    <glyph glyph-name="Tbar" unicode="&#x166;" horiz-adv-x="561" 
d="M144 0l59 279h-106l24 113h106l27 128h-189l26 124h539l-26 -124h-189l-27 -128h109l-24 -113h-109l-59 -279h-161z" />
    <glyph glyph-name="Tcaron" unicode="&#x164;" horiz-adv-x="561" 
d="M319 688l-104 187h116l50 -104l97 104h126l-185 -187h-100zM144 0l110 520h-189l26 124h539l-26 -124h-189l-110 -520h-161z" />
    <glyph glyph-name="uni0162" unicode="&#x162;" horiz-adv-x="561" 
d="M157 -240q-17 0 -41.5 2.5t-35.5 5.5l15 71q27 -8 59 -8q41 0 60 6.5t23 28.5q5 23 -12 28.5t-46 5.5h-54l50 100h-31l110 520h-189l26 124h539l-26 -124h-189l-110 -520h-34l-25 -43q56 0 77 -25.5t13 -67.5q-10 -49 -54.5 -76.5t-124.5 -27.5z" />
    <glyph glyph-name="uni021A" unicode="&#x21a;" horiz-adv-x="561" 
d="M144 0l110 520h-189l26 124h539l-26 -124h-189l-110 -520h-161zM76 -258l78 213h129l-99 -213h-108z" />
    <glyph glyph-name="uni1E6C" unicode="&#x1e6c;" horiz-adv-x="561" 
d="M144 0l110 520h-189l26 124h539l-26 -124h-189l-110 -520h-161zM126 -174l23 109h118l-23 -109h-118z" />
    <glyph glyph-name="uni1E6E" unicode="&#x1e6e;" horiz-adv-x="561" 
d="M144 0l110 520h-189l26 124h539l-26 -124h-189l-110 -520h-161zM30 -161l21 98h317l-21 -98h-317z" />
    <glyph glyph-name="U" unicode="U" horiz-adv-x="685" 
d="M283 -10q-82 0 -142.5 31.5t-87.5 89t-11 134.5l84 399h161l-81 -384q-14 -67 9.5 -100t96.5 -33q74 0 112 33t52 100l81 384h161l-84 -399q-28 -130 -118 -192.5t-233 -62.5z" />
    <glyph glyph-name="Uacute" unicode="&#xda;" horiz-adv-x="685" 
d="M367 688l126 196h132l-134 -196h-124zM283 -10q-82 0 -142.5 31.5t-87.5 89t-11 134.5l84 399h161l-81 -384q-14 -67 9.5 -100t96.5 -33q74 0 112 33t52 100l81 384h161l-84 -399q-28 -130 -118 -192.5t-233 -62.5z" />
    <glyph glyph-name="Ubreve" unicode="&#x16c;" horiz-adv-x="685" 
d="M427 688q-76 0 -114.5 45t-21.5 127h99q-8 -38 1.5 -60t48.5 -22q37 0 58 24t28 58h112q-17 -82 -71.5 -127t-139.5 -45zM283 -10q-82 0 -142.5 31.5t-87.5 89t-11 134.5l84 399h161l-81 -384q-14 -67 9.5 -100t96.5 -33q74 0 112 33t52 100l81 384h161l-84 -399
q-28 -130 -118 -192.5t-233 -62.5z" />
    <glyph glyph-name="uni01D3" unicode="&#x1d3;" horiz-adv-x="685" 
d="M380 688l-104 187h116l50 -104l97 104h126l-185 -187h-100zM283 -10q-82 0 -142.5 31.5t-87.5 89t-11 134.5l84 399h161l-81 -384q-14 -67 9.5 -100t96.5 -33q74 0 112 33t52 100l81 384h161l-84 -399q-28 -130 -118 -192.5t-233 -62.5z" />
    <glyph glyph-name="Ucircumflex" unicode="&#xdb;" horiz-adv-x="685" 
d="M237 687l184 187h100l105 -187h-114l-53 104l-94 -104h-128zM283 -10q-82 0 -142.5 31.5t-87.5 89t-11 134.5l84 399h161l-81 -384q-14 -67 9.5 -100t96.5 -33q74 0 112 33t52 100l81 384h161l-84 -399q-28 -130 -118 -192.5t-233 -62.5z" />
    <glyph glyph-name="Udieresis" unicode="&#xdc;" horiz-adv-x="685" 
d="M275 714l24 109h117l-24 -109h-117zM480 714l24 109h118l-24 -109h-118zM283 -10q-82 0 -142.5 31.5t-87.5 89t-11 134.5l84 399h161l-81 -384q-14 -67 9.5 -100t96.5 -33q74 0 112 33t52 100l81 384h161l-84 -399q-28 -130 -118 -192.5t-233 -62.5z" />
    <glyph glyph-name="uni01D7" unicode="&#x1d7;" horiz-adv-x="685" 
d="M400 815l87 133h121l-97 -133h-111zM271 689l22 103h114l-22 -103h-114zM479 689l22 103h114l-22 -103h-114zM283 -10q-82 0 -142.5 31.5t-87.5 89t-11 134.5l84 399h161l-81 -384q-14 -67 9.5 -100t96.5 -33q74 0 112 33t52 100l81 384h161l-84 -399
q-28 -130 -118 -192.5t-233 -62.5z" />
    <glyph glyph-name="uni01D9" unicode="&#x1d9;" horiz-adv-x="685" 
d="M404 812l-93 127h113l42 -73l72 73h122l-145 -127h-111zM271 688l22 103h114l-22 -103h-114zM479 688l22 103h113l-22 -103h-113zM283 -10q-82 0 -142.5 31.5t-87.5 89t-11 134.5l84 399h161l-81 -384q-14 -67 9.5 -100t96.5 -33q74 0 112 33t52 100l81 384h161l-84 -399
q-28 -130 -118 -192.5t-233 -62.5z" />
    <glyph glyph-name="uni01DB" unicode="&#x1db;" horiz-adv-x="685" 
d="M405 814l-39 133h121l29 -133h-111zM271 688l22 103h114l-22 -103h-114zM479 688l22 103h114l-22 -103h-114zM283 -10q-82 0 -142.5 31.5t-87.5 89t-11 134.5l84 399h161l-81 -384q-14 -67 9.5 -100t96.5 -33q74 0 112 33t52 100l81 384h161l-84 -399
q-28 -130 -118 -192.5t-233 -62.5z" />
    <glyph glyph-name="uni01D5" unicode="&#x1d5;" horiz-adv-x="685" 
d="M307 854l21 97h317l-21 -97h-317zM270 688l24 109h117l-24 -109h-117zM475 688l24 109h118l-24 -109h-118zM283 -10q-82 0 -142.5 31.5t-87.5 89t-11 134.5l84 399h161l-81 -384q-14 -67 9.5 -100t96.5 -33q74 0 112 33t52 100l81 384h161l-84 -399q-28 -130 -118 -192.5
t-233 -62.5z" />
    <glyph glyph-name="uni1EE4" unicode="&#x1ee4;" horiz-adv-x="685" 
d="M283 -10q-82 0 -142.5 31.5t-87.5 89t-11 134.5l84 399h161l-81 -384q-14 -67 9.5 -100t96.5 -33q74 0 112 33t52 100l81 384h161l-84 -399q-28 -130 -118 -192.5t-233 -62.5zM188 -179l23 109h118l-23 -109h-118z" />
    <glyph glyph-name="Ugrave" unicode="&#xd9;" horiz-adv-x="685" 
d="M379 688l-51 196h132l42 -196h-123zM283 -10q-82 0 -142.5 31.5t-87.5 89t-11 134.5l84 399h161l-81 -384q-14 -67 9.5 -100t96.5 -33q74 0 112 33t52 100l81 384h161l-84 -399q-28 -130 -118 -192.5t-233 -62.5z" />
    <glyph glyph-name="uni1EE6" unicode="&#x1ee6;" horiz-adv-x="685" 
d="M370 688l17 81q54 3 74.5 14.5t24.5 31.5q4 19 -11.5 27.5t-46.5 8.5q-14 0 -31.5 -2.5t-30.5 -6.5l16 72q44 14 110 14t95 -27.5t20 -71.5q-10 -43 -34.5 -64.5t-71.5 -32.5l-9 -44h-122zM283 -10q-82 0 -142.5 31.5t-87.5 89t-11 134.5l84 399h161l-81 -384
q-14 -67 9.5 -100t96.5 -33q74 0 112 33t52 100l81 384h161l-84 -399q-28 -130 -118 -192.5t-233 -62.5z" />
    <glyph glyph-name="Uhorn" unicode="&#x1af;" horiz-adv-x="855" 
d="M283 -10q-82 0 -142.5 31.5t-87.5 89t-11 134.5l84 399h161l-81 -384q-14 -67 9.5 -100t96.5 -33q74 0 112 33t52 100l81 384h161l-13 -59q49 2 75 24t38 79h115q-16 -78 -47 -123.5t-80 -65t-123 -20.5l-49 -234q-28 -130 -118 -192.5t-233 -62.5z" />
    <glyph glyph-name="uni1EE8" unicode="&#x1ee8;" horiz-adv-x="855" 
d="M368 688l126 196h132l-134 -196h-124zM283 -10q-82 0 -142.5 31.5t-87.5 89t-11 134.5l84 399h161l-81 -384q-14 -67 9.5 -100t96.5 -33q74 0 112 33t52 100l81 384h161l-13 -59q49 2 75 24t38 79h115q-16 -78 -47 -123.5t-80 -65t-123 -20.5l-49 -234
q-28 -130 -118 -192.5t-233 -62.5z" />
    <glyph glyph-name="uni1EF0" unicode="&#x1ef0;" horiz-adv-x="855" 
d="M283 -10q-82 0 -142.5 31.5t-87.5 89t-11 134.5l84 399h161l-81 -384q-14 -67 9.5 -100t96.5 -33q74 0 112 33t52 100l81 384h161l-13 -59q49 2 75 24t38 79h115q-16 -78 -47 -123.5t-80 -65t-123 -20.5l-49 -234q-28 -130 -118 -192.5t-233 -62.5zM190 -179l23 109h118
l-23 -109h-118z" />
    <glyph glyph-name="uni1EEA" unicode="&#x1eea;" horiz-adv-x="855" 
d="M378 688l-51 196h132l42 -196h-123zM283 -10q-82 0 -142.5 31.5t-87.5 89t-11 134.5l84 399h161l-81 -384q-14 -67 9.5 -100t96.5 -33q74 0 112 33t52 100l81 384h161l-13 -59q49 2 75 24t38 79h115q-16 -78 -47 -123.5t-80 -65t-123 -20.5l-49 -234
q-28 -130 -118 -192.5t-233 -62.5z" />
    <glyph glyph-name="uni1EEC" unicode="&#x1eec;" horiz-adv-x="855" 
d="M359 688l17 81q54 3 74.5 14.5t24.5 31.5q4 19 -11.5 27.5t-46.5 8.5q-14 0 -31.5 -2.5t-30.5 -6.5l16 72q44 14 110 14t95 -27.5t20 -71.5q-10 -43 -34.5 -64.5t-71.5 -32.5l-9 -44h-122zM283 -10q-82 0 -142.5 31.5t-87.5 89t-11 134.5l84 399h161l-81 -384
q-14 -67 9.5 -100t96.5 -33q74 0 112 33t52 100l81 384h161l-13 -59q49 2 75 24t38 79h115q-16 -78 -47 -123.5t-80 -65t-123 -20.5l-49 -234q-28 -130 -118 -192.5t-233 -62.5z" />
    <glyph glyph-name="uni1EEE" unicode="&#x1eee;" horiz-adv-x="855" 
d="M526 694q-31 0 -58 10.5t-52.5 20.5t-51.5 10q-29 0 -54.5 -10t-47.5 -28l23 107q17 14 43.5 23t54.5 9q32 0 57.5 -10t50.5 -20.5t54 -10.5q30 0 54.5 10.5t40.5 28.5l-23 -108q-13 -13 -37.5 -22.5t-53.5 -9.5zM283 -10q-82 0 -142.5 31.5t-87.5 89t-11 134.5l84 399
h161l-81 -384q-14 -67 9.5 -100t96.5 -33q74 0 112 33t52 100l81 384h161l-13 -59q49 2 75 24t38 79h115q-16 -78 -47 -123.5t-80 -65t-123 -20.5l-49 -234q-28 -130 -118 -192.5t-233 -62.5z" />
    <glyph glyph-name="Uhungarumlaut" unicode="&#x170;" horiz-adv-x="685" 
d="M232 687l120 180h138l-134 -180h-124zM462 687l120 180h139l-135 -180h-124zM283 -10q-82 0 -142.5 31.5t-87.5 89t-11 134.5l84 399h161l-81 -384q-14 -67 9.5 -100t96.5 -33q74 0 112 33t52 100l81 384h161l-84 -399q-28 -130 -118 -192.5t-233 -62.5z" />
    <glyph glyph-name="Umacron" unicode="&#x16a;" horiz-adv-x="685" 
d="M279 723l21 97h317l-21 -97h-317zM283 -10q-82 0 -142.5 31.5t-87.5 89t-11 134.5l84 399h161l-81 -384q-14 -67 9.5 -100t96.5 -33q74 0 112 33t52 100l81 384h161l-84 -399q-28 -130 -118 -192.5t-233 -62.5z" />
    <glyph glyph-name="Uogonek" unicode="&#x172;" horiz-adv-x="685" 
d="M263 -220q-51 0 -82 22.5t-21 71.5q7 35 29.5 65.5t55.5 52.5q-71 7 -122.5 39.5t-73.5 87.5t-7 126l84 399h161l-81 -384q-14 -67 9.5 -100t96.5 -33q74 0 112 33t52 100l81 384h161l-84 -399q-24 -111 -92.5 -172.5t-176.5 -76.5q-30 -20 -50.5 -43.5t-25.5 -49.5
q-4 -20 6 -29t29 -9q13 0 27.5 3t24.5 8l-17 -81q-16 -6 -42 -10.5t-54 -4.5z" />
    <glyph glyph-name="Uring" unicode="&#x16e;" horiz-adv-x="685" 
d="M430 687q-61 0 -88 36.5t-16 88.5q11 53 52 89.5t105 36.5q63 0 89.5 -36.5t15.5 -89.5q-11 -52 -51 -88.5t-107 -36.5zM445 757q28 0 46.5 16t22.5 39q5 23 -4 39.5t-42 16.5q-26 0 -45 -16.5t-24 -39.5q-4 -23 5.5 -39t40.5 -16zM283 -10q-82 0 -142.5 31.5t-87.5 89
t-11 134.5l84 399h161l-81 -384q-14 -67 9.5 -100t96.5 -33q74 0 112 33t52 100l81 384h161l-84 -399q-28 -130 -118 -192.5t-233 -62.5z" />
    <glyph glyph-name="Utilde" unicode="&#x168;" horiz-adv-x="685" 
d="M524 698q-31 0 -58 10.5t-52.5 20.5t-51.5 10q-29 0 -54.5 -10t-47.5 -28l23 107q17 14 43.5 23t54.5 9q32 0 57.5 -10t50.5 -20.5t54 -10.5q30 0 54.5 10.5t40.5 28.5l-23 -108q-13 -13 -37.5 -22.5t-53.5 -9.5zM283 -10q-82 0 -142.5 31.5t-87.5 89t-11 134.5l84 399
h161l-81 -384q-14 -67 9.5 -100t96.5 -33q74 0 112 33t52 100l81 384h161l-84 -399q-28 -130 -118 -192.5t-233 -62.5z" />
    <glyph glyph-name="V" unicode="V" horiz-adv-x="728" 
d="M221 0l-110 644h162l67 -460l262 460h175l-382 -644h-174z" />
    <glyph glyph-name="W" unicode="W" horiz-adv-x="883" 
d="M125 0l-14 644h158l3 -388l151 297l19 91h132l29 -389l171 389h158l-285 -644h-145l-29 372l-195 -372h-153z" />
    <glyph glyph-name="Wacute" unicode="&#x1e82;" horiz-adv-x="883" 
d="M455 688l126 196h132l-134 -196h-124zM125 0l-14 644h158l3 -388l151 297l19 91h132l29 -389l171 389h158l-285 -644h-145l-29 372l-195 -372h-153z" />
    <glyph glyph-name="Wcircumflex" unicode="&#x174;" horiz-adv-x="883" 
d="M341 688l184 187h100l105 -187h-114l-53 104l-94 -104h-128zM125 0l-14 644h158l3 -388l151 297l19 91h132l29 -389l171 389h158l-285 -644h-145l-29 372l-195 -372h-153z" />
    <glyph glyph-name="Wdieresis" unicode="&#x1e84;" horiz-adv-x="883" 
d="M379 714l24 109h117l-24 -109h-117zM584 714l24 109h118l-24 -109h-118zM125 0l-14 644h158l3 -388l151 297l19 91h132l29 -389l171 389h158l-285 -644h-145l-29 372l-195 -372h-153z" />
    <glyph glyph-name="Wgrave" unicode="&#x1e80;" horiz-adv-x="883" 
d="M460 688l-51 196h132l42 -196h-123zM125 0l-14 644h158l3 -388l151 297l19 91h132l29 -389l171 389h158l-285 -644h-145l-29 372l-195 -372h-153z" />
    <glyph glyph-name="X" unicode="X" horiz-adv-x="727" 
d="M-26 0l303 324l-160 320h192l93 -192l174 192h192l-296 -320l167 -324h-194l-98 195l-179 -195h-194z" />
    <glyph glyph-name="Y" unicode="Y" horiz-adv-x="686" 
d="M206 0l50 237l-145 407h162l88 -267l200 267h174l-317 -407l-50 -237h-162z" />
    <glyph glyph-name="Yacute" unicode="&#xdd;" horiz-adv-x="686" 
d="M365 688l126 196h132l-134 -196h-124zM206 0l50 237l-145 407h162l88 -267l200 267h174l-317 -407l-50 -237h-162z" />
    <glyph glyph-name="Ycircumflex" unicode="&#x176;" horiz-adv-x="686" 
d="M238 688l184 187h100l105 -187h-114l-53 104l-94 -104h-128zM206 0l50 237l-145 407h162l88 -267l200 267h174l-317 -407l-50 -237h-162z" />
    <glyph glyph-name="Ydieresis" unicode="&#x178;" horiz-adv-x="686" 
d="M277 714l24 109h117l-24 -109h-117zM482 714l24 109h118l-24 -109h-118zM206 0l50 237l-145 407h162l88 -267l200 267h174l-317 -407l-50 -237h-162z" />
    <glyph glyph-name="uni1E8E" unicode="&#x1e8e;" horiz-adv-x="686" 
d="M378 714l24 109h117l-24 -109h-117zM206 0l50 237l-145 407h162l88 -267l200 267h174l-317 -407l-50 -237h-162z" />
    <glyph glyph-name="uni1EF4" unicode="&#x1ef4;" horiz-adv-x="686" 
d="M206 0l50 237l-145 407h162l88 -267l200 267h174l-317 -407l-50 -237h-162zM191 -173l23 109h118l-23 -109h-118z" />
    <glyph glyph-name="Ygrave" unicode="&#x1ef2;" horiz-adv-x="686" 
d="M373 688l-51 196h132l42 -196h-123zM206 0l50 237l-145 407h162l88 -267l200 267h174l-317 -407l-50 -237h-162z" />
    <glyph glyph-name="uni1EF6" unicode="&#x1ef6;" horiz-adv-x="686" 
d="M368 688l17 81q54 3 74.5 14.5t24.5 31.5q4 19 -11.5 27.5t-46.5 8.5q-14 0 -31.5 -2.5t-30.5 -6.5l16 72q44 14 110 14t95 -27.5t20 -71.5q-10 -43 -34.5 -64.5t-71.5 -32.5l-9 -44h-122zM206 0l50 237l-145 407h162l88 -267l200 267h174l-317 -407l-50 -237h-162z" />
    <glyph glyph-name="uni1EF8" unicode="&#x1ef8;" horiz-adv-x="686" 
d="M525 698q-31 0 -58 10.5t-52.5 20.5t-51.5 10q-29 0 -54.5 -10t-47.5 -28l23 107q17 14 43.5 23t54.5 9q32 0 57.5 -10t50.5 -20.5t54 -10.5q30 0 54.5 10.5t40.5 28.5l-23 -108q-13 -13 -37.5 -22.5t-53.5 -9.5zM206 0l50 237l-145 407h162l88 -267l200 267h174
l-317 -407l-50 -237h-162z" />
    <glyph glyph-name="Z" unicode="Z" horiz-adv-x="578" 
d="M-26 0l17 82l394 434h-287l27 128h498l-19 -90l-390 -430h305l-26 -124h-519z" />
    <glyph glyph-name="Zacute" unicode="&#x179;" horiz-adv-x="578" 
d="M313 688l126 196h132l-134 -196h-124zM-26 0l17 82l394 434h-287l27 128h498l-19 -90l-390 -430h305l-26 -124h-519z" />
    <glyph glyph-name="Zcaron" unicode="&#x17d;" horiz-adv-x="578" 
d="M345 688l-104 187h116l50 -104l97 104h126l-185 -187h-100zM-26 0l17 82l394 434h-287l27 128h498l-19 -90l-390 -430h305l-26 -124h-519z" />
    <glyph glyph-name="Zdotaccent" unicode="&#x17b;" horiz-adv-x="578" 
d="M333 714l24 109h117l-24 -109h-117zM-26 0l17 82l394 434h-287l27 128h498l-19 -90l-390 -430h305l-26 -124h-519z" />
    <glyph glyph-name="uni1E92" unicode="&#x1e92;" horiz-adv-x="578" 
d="M-26 0l17 82l394 434h-287l27 128h498l-19 -90l-390 -430h305l-26 -124h-519zM144 -179l23 109h118l-23 -109h-118z" />
    <glyph glyph-name="a" unicode="a" horiz-adv-x="598" 
d="M184 -10q-98 0 -143 57t-21 171q17 79 55 138.5t97.5 93.5t138.5 34q41 0 66 -9.5t47 -27.5l5 27h161l-100 -474h-139l-1 40q-70 -50 -166 -50zM261 107q53 0 98 36l40 190q-20 33 -71 33q-57 0 -92 -35.5t-52 -112.5q-13 -63 4.5 -87t72.5 -24z" />
    <glyph glyph-name="aacute" unicode="&#xe1;" horiz-adv-x="599" 
d="M276 522l126 196h132l-134 -196h-124zM185 -10q-98 0 -143 57t-21 171q17 79 55 138.5t97.5 93.5t138.5 34q41 0 66 -9.5t47 -27.5l5 27h161l-100 -474h-139l-1 40q-70 -50 -166 -50zM262 107q53 0 98 36l40 190q-20 33 -71 33q-57 0 -92 -35.5t-52 -112.5
q-13 -63 4.5 -87t72.5 -24z" />
    <glyph glyph-name="abreve" unicode="&#x103;" horiz-adv-x="599" 
d="M356 522q-76 0 -114.5 45t-21.5 127h99q-8 -38 1.5 -60t48.5 -22q37 0 58 24t28 58h112q-17 -82 -71.5 -127t-139.5 -45zM185 -10q-98 0 -143 57t-21 171q17 79 55 138.5t97.5 93.5t138.5 34q41 0 66 -9.5t47 -27.5l5 27h161l-100 -474h-139l-1 40q-70 -50 -166 -50z
M262 107q53 0 98 36l40 190q-20 33 -71 33q-57 0 -92 -35.5t-52 -112.5q-13 -63 4.5 -87t72.5 -24z" />
    <glyph glyph-name="uni1EAF" unicode="&#x1eaf;" horiz-adv-x="599" 
d="M323 671l98 149h113l-110 -149h-101zM346 522q-76 0 -116.5 38.5t-22.5 125.5h89q-8 -43 4.5 -63t59.5 -20q38 0 63.5 22t33.5 61h96q-18 -87 -71 -125.5t-136 -38.5zM185 -10q-98 0 -143 57t-21 171q17 79 55 138.5t97.5 93.5t138.5 34q41 0 66 -9.5t47 -27.5l5 27h161
l-100 -474h-139l-1 40q-70 -50 -166 -50zM262 107q53 0 98 36l40 190q-20 33 -71 33q-57 0 -92 -35.5t-52 -112.5q-13 -63 4.5 -87t72.5 -24z" />
    <glyph glyph-name="uni1EB7" unicode="&#x1eb7;" horiz-adv-x="599" 
d="M353 522q-76 0 -114.5 45t-21.5 127h99q-8 -38 1.5 -60t48.5 -22q37 0 58 24t28 58h112q-17 -82 -71.5 -127t-139.5 -45zM185 -10q-98 0 -143 57t-21 171q17 79 55 138.5t97.5 93.5t138.5 34q41 0 66 -9.5t47 -27.5l5 27h161l-100 -474h-139l-1 40q-70 -50 -166 -50z
M262 107q53 0 98 36l40 190q-20 33 -71 33q-57 0 -92 -35.5t-52 -112.5q-13 -63 4.5 -87t72.5 -24zM150 -179l23 109h118l-23 -109h-118z" />
    <glyph glyph-name="uni1EB1" unicode="&#x1eb1;" horiz-adv-x="599" 
d="M332 671l-46 149h114l34 -149h-102zM348 522q-76 0 -116.5 38.5t-22.5 125.5h89q-8 -43 4.5 -63t59.5 -20q38 0 63.5 22t33.5 61h96q-18 -87 -71 -125.5t-136 -38.5zM185 -10q-98 0 -143 57t-21 171q17 79 55 138.5t97.5 93.5t138.5 34q41 0 66 -9.5t47 -27.5l5 27h161
l-100 -474h-139l-1 40q-70 -50 -166 -50zM262 107q53 0 98 36l40 190q-20 33 -71 33q-57 0 -92 -35.5t-52 -112.5q-13 -63 4.5 -87t72.5 -24z" />
    <glyph glyph-name="uni1EB3" unicode="&#x1eb3;" horiz-adv-x="599" 
d="M329 678l13 61q44 2 62.5 12t22.5 27t-7 23.5t-36 6.5q-14 0 -28.5 -3t-25.5 -8l13 62q41 13 98 13q53 0 77 -23.5t16 -59.5q-7 -34 -28.5 -52.5t-64.5 -27.5l-6 -31h-106zM351 522q-76 0 -116.5 38.5t-22.5 125.5h89q-8 -43 4.5 -63t59.5 -20q38 0 63.5 22t33.5 61h96
q-18 -87 -71 -125.5t-136 -38.5zM185 -10q-98 0 -143 57t-21 171q17 79 55 138.5t97.5 93.5t138.5 34q41 0 66 -9.5t47 -27.5l5 27h161l-100 -474h-139l-1 40q-70 -50 -166 -50zM262 107q53 0 98 36l40 190q-20 33 -71 33q-57 0 -92 -35.5t-52 -112.5q-13 -63 4.5 -87
t72.5 -24z" />
    <glyph glyph-name="uni1EB5" unicode="&#x1eb5;" horiz-adv-x="599" 
d="M483 704q-30 0 -57 10t-52 20t-51 10q-57 0 -100 -37l19 91q17 14 43 23t53 9q32 0 57 -10t49.5 -20.5t53.5 -10.5t53 10.5t40 28.5l-18 -92q-13 -13 -37 -22.5t-53 -9.5zM355 522q-76 0 -116.5 38.5t-22.5 125.5h89q-8 -43 4.5 -63t59.5 -20q38 0 63.5 22t33.5 61h96
q-18 -87 -71 -125.5t-136 -38.5zM185 -10q-98 0 -143 57t-21 171q17 79 55 138.5t97.5 93.5t138.5 34q41 0 66 -9.5t47 -27.5l5 27h161l-100 -474h-139l-1 40q-70 -50 -166 -50zM262 107q53 0 98 36l40 190q-20 33 -71 33q-57 0 -92 -35.5t-52 -112.5q-13 -63 4.5 -87
t72.5 -24z" />
    <glyph glyph-name="uni01CE" unicode="&#x1ce;" horiz-adv-x="599" 
d="M291 521l-104 187h116l50 -104l97 104h126l-185 -187h-100zM185 -10q-98 0 -143 57t-21 171q17 79 55 138.5t97.5 93.5t138.5 34q41 0 66 -9.5t47 -27.5l5 27h161l-100 -474h-139l-1 40q-70 -50 -166 -50zM262 107q53 0 98 36l40 190q-20 33 -71 33q-57 0 -92 -35.5
t-52 -112.5q-13 -63 4.5 -87t72.5 -24z" />
    <glyph glyph-name="acircumflex" unicode="&#xe2;" horiz-adv-x="599" 
d="M153 521l184 187h100l105 -187h-114l-53 104l-94 -104h-128zM185 -10q-98 0 -143 57t-21 171q17 79 55 138.5t97.5 93.5t138.5 34q41 0 66 -9.5t47 -27.5l5 27h161l-100 -474h-139l-1 40q-70 -50 -166 -50zM262 107q53 0 98 36l40 190q-20 33 -71 33q-57 0 -92 -35.5
t-52 -112.5q-13 -63 4.5 -87t72.5 -24z" />
    <glyph glyph-name="uni1EA5" unicode="&#x1ea5;" horiz-adv-x="599" 
d="M484 642l99 149h120l-106 -149h-113zM152 521l164 144h121l104 -144h-124l-48 80l-82 -80h-135zM185 -10q-98 0 -143 57t-21 171q17 79 55 138.5t97.5 93.5t138.5 34q41 0 66 -9.5t47 -27.5l5 27h161l-100 -474h-139l-1 40q-70 -50 -166 -50zM262 107q53 0 98 36l40 190
q-20 33 -71 33q-57 0 -92 -35.5t-52 -112.5q-13 -63 4.5 -87t72.5 -24z" />
    <glyph glyph-name="uni1EAD" unicode="&#x1ead;" horiz-adv-x="599" 
d="M153 521l184 187h100l105 -187h-114l-53 104l-94 -104h-128zM185 -10q-98 0 -143 57t-21 171q17 79 55 138.5t97.5 93.5t138.5 34q41 0 66 -9.5t47 -27.5l5 27h161l-100 -474h-139l-1 40q-70 -50 -166 -50zM262 107q53 0 98 36l40 190q-20 33 -71 33q-57 0 -92 -35.5
t-52 -112.5q-13 -63 4.5 -87t72.5 -24zM141 -179l23 109h118l-23 -109h-118z" />
    <glyph glyph-name="uni1EA7" unicode="&#x1ea7;" horiz-adv-x="599" 
d="M150 642l-44 149h120l38 -149h-114zM154 521l164 144h121l104 -144h-124l-48 80l-82 -80h-135zM185 -10q-98 0 -143 57t-21 171q17 79 55 138.5t97.5 93.5t138.5 34q41 0 66 -9.5t47 -27.5l5 27h161l-100 -474h-139l-1 40q-70 -50 -166 -50zM262 107q53 0 98 36l40 190
q-20 33 -71 33q-57 0 -92 -35.5t-52 -112.5q-13 -63 4.5 -87t72.5 -24z" />
    <glyph glyph-name="uni1EA9" unicode="&#x1ea9;" horiz-adv-x="599" 
d="M485 620l15 71q44 2 60 10.5t19 22.5q6 25 -38 25q-14 0 -28 -2.5t-26 -7.5l14 67q19 5 42 8.5t51 3.5q57 0 81 -22.5t16 -60.5q-7 -34 -29 -55t-62 -27l-7 -33h-108zM148 521l164 144h121l104 -144h-124l-48 80l-82 -80h-135zM185 -10q-98 0 -143 57t-21 171
q17 79 55 138.5t97.5 93.5t138.5 34q41 0 66 -9.5t47 -27.5l5 27h161l-100 -474h-139l-1 40q-70 -50 -166 -50zM262 107q53 0 98 36l40 190q-20 33 -71 33q-57 0 -92 -35.5t-52 -112.5q-13 -63 4.5 -87t72.5 -24z" />
    <glyph glyph-name="uni1EAB" unicode="&#x1eab;" horiz-adv-x="599" 
d="M475 680q-30 0 -57 10t-52.5 20t-51.5 10q-57 0 -100 -37l20 91q16 14 42 23t53 9q32 0 57.5 -10t50 -20.5t53.5 -10.5t53 10.5t40 28.5l-20 -92q-12 -13 -35.5 -22.5t-52.5 -9.5zM149 521l164 144h121l104 -144h-124l-48 80l-82 -80h-135zM185 -10q-98 0 -143 57
t-21 171q17 79 55 138.5t97.5 93.5t138.5 34q41 0 66 -9.5t47 -27.5l5 27h161l-100 -474h-139l-1 40q-70 -50 -166 -50zM262 107q53 0 98 36l40 190q-20 33 -71 33q-57 0 -92 -35.5t-52 -112.5q-13 -63 4.5 -87t72.5 -24z" />
    <glyph glyph-name="adieresis" unicode="&#xe4;" horiz-adv-x="599" 
d="M197 548l24 109h117l-24 -109h-117zM402 548l24 109h118l-24 -109h-118zM185 -10q-98 0 -143 57t-21 171q17 79 55 138.5t97.5 93.5t138.5 34q41 0 66 -9.5t47 -27.5l5 27h161l-100 -474h-139l-1 40q-70 -50 -166 -50zM262 107q53 0 98 36l40 190q-20 33 -71 33
q-57 0 -92 -35.5t-52 -112.5q-13 -63 4.5 -87t72.5 -24z" />
    <glyph glyph-name="uni1EA1" unicode="&#x1ea1;" horiz-adv-x="599" 
d="M185 -10q-98 0 -143 57t-21 171q17 79 55 138.5t97.5 93.5t138.5 34q41 0 66 -9.5t47 -27.5l5 27h161l-100 -474h-139l-1 40q-70 -50 -166 -50zM262 107q53 0 98 36l40 190q-20 33 -71 33q-57 0 -92 -35.5t-52 -112.5q-13 -63 4.5 -87t72.5 -24zM138 -179l23 109h118
l-23 -109h-118z" />
    <glyph glyph-name="agrave" unicode="&#xe0;" horiz-adv-x="599" 
d="M289 522l-51 196h132l42 -196h-123zM185 -10q-98 0 -143 57t-21 171q17 79 55 138.5t97.5 93.5t138.5 34q41 0 66 -9.5t47 -27.5l5 27h161l-100 -474h-139l-1 40q-70 -50 -166 -50zM262 107q53 0 98 36l40 190q-20 33 -71 33q-57 0 -92 -35.5t-52 -112.5q-13 -63 4.5 -87
t72.5 -24z" />
    <glyph glyph-name="uni1EA3" unicode="&#x1ea3;" horiz-adv-x="599" 
d="M277 521l17 81q54 3 74.5 14.5t24.5 31.5q4 19 -11.5 27.5t-46.5 8.5q-14 0 -31.5 -2.5t-30.5 -6.5l16 72q44 14 110 14t95 -27.5t20 -71.5q-10 -43 -34.5 -64.5t-71.5 -32.5l-9 -44h-122zM185 -10q-98 0 -143 57t-21 171q17 79 55 138.5t97.5 93.5t138.5 34
q41 0 66 -9.5t47 -27.5l5 27h161l-100 -474h-139l-1 40q-70 -50 -166 -50zM262 107q53 0 98 36l40 190q-20 33 -71 33q-57 0 -92 -35.5t-52 -112.5q-13 -63 4.5 -87t72.5 -24z" />
    <glyph glyph-name="uni0251" unicode="&#x251;" horiz-adv-x="599" 
d="M185 -10q-98 0 -143 57t-21 171q17 79 55 138.5t97.5 93.5t138.5 34q41 0 66 -9.5t47 -27.5l5 27h161l-100 -474h-139l-1 40q-70 -50 -166 -50zM262 107q53 0 98 36l40 190q-20 33 -71 33q-57 0 -92 -35.5t-52 -112.5q-13 -63 4.5 -87t72.5 -24z" />
    <glyph glyph-name="amacron" unicode="&#x101;" horiz-adv-x="599" 
d="M203 538l21 97h317l-21 -97h-317zM185 -10q-98 0 -143 57t-21 171q17 79 55 138.5t97.5 93.5t138.5 34q41 0 66 -9.5t47 -27.5l5 27h161l-100 -474h-139l-1 40q-70 -50 -166 -50zM262 107q53 0 98 36l40 190q-20 33 -71 33q-57 0 -92 -35.5t-52 -112.5q-13 -63 4.5 -87
t72.5 -24z" />
    <glyph glyph-name="aogonek" unicode="&#x105;" horiz-adv-x="599" 
d="M382 -220q-51 0 -82 22.5t-21 71.5q8 38 29 71t44 55l-1 40q-70 -50 -166 -50q-98 0 -143 57t-21 171q17 79 55 138.5t97.5 93.5t138.5 34q41 0 66 -9.5t47 -27.5l5 27h161l-100 -474q-34 -18 -55.5 -44t-27.5 -53q-4 -20 6 -29t29 -9q13 0 27.5 3t24.5 8l-17 -81
q-16 -6 -42 -10.5t-54 -4.5zM262 107q53 0 98 36l40 190q-20 33 -71 33q-57 0 -92 -35.5t-52 -112.5q-13 -63 4.5 -87t72.5 -24z" />
    <glyph glyph-name="aring" unicode="&#xe5;" horiz-adv-x="599" 
d="M354 521q-61 0 -88 36.5t-16 88.5q11 53 52 89.5t105 36.5q63 0 89.5 -36.5t15.5 -89.5q-11 -52 -51 -88.5t-107 -36.5zM369 591q28 0 46.5 16t22.5 39q5 23 -4 39.5t-42 16.5q-26 0 -45 -16.5t-24 -39.5q-4 -23 5.5 -39t40.5 -16zM185 -10q-98 0 -143 57t-21 171
q17 79 55 138.5t97.5 93.5t138.5 34q41 0 66 -9.5t47 -27.5l5 27h161l-100 -474h-139l-1 40q-70 -50 -166 -50zM262 107q53 0 98 36l40 190q-20 33 -71 33q-57 0 -92 -35.5t-52 -112.5q-13 -63 4.5 -87t72.5 -24z" />
    <glyph glyph-name="aringacute" unicode="&#x1fb;" horiz-adv-x="599" 
d="M359 795l126 156h132l-134 -156h-124zM354 521q-61 0 -88 36.5t-16 88.5q11 53 52 89.5t105 36.5q63 0 89.5 -36.5t15.5 -89.5q-11 -52 -51 -88.5t-107 -36.5zM369 591q28 0 46.5 16t22.5 39q5 23 -4 39.5t-42 16.5q-26 0 -45 -16.5t-24 -39.5q-4 -23 5.5 -39t40.5 -16z
M185 -10q-98 0 -143 57t-21 171q17 79 55 138.5t97.5 93.5t138.5 34q41 0 66 -9.5t47 -27.5l5 27h161l-100 -474h-139l-1 40q-70 -50 -166 -50zM262 107q53 0 98 36l40 190q-20 33 -71 33q-57 0 -92 -35.5t-52 -112.5q-13 -63 4.5 -87t72.5 -24z" />
    <glyph glyph-name="atilde" unicode="&#xe3;" horiz-adv-x="599" 
d="M447 532q-31 0 -58 10.5t-52.5 20.5t-51.5 10q-29 0 -54.5 -10t-47.5 -28l23 107q17 14 43.5 23t54.5 9q32 0 57.5 -10t50.5 -20.5t54 -10.5q30 0 54.5 10.5t40.5 28.5l-23 -108q-13 -13 -37.5 -22.5t-53.5 -9.5zM185 -10q-98 0 -143 57t-21 171q17 79 55 138.5
t97.5 93.5t138.5 34q41 0 66 -9.5t47 -27.5l5 27h161l-100 -474h-139l-1 40q-70 -50 -166 -50zM262 107q53 0 98 36l40 190q-20 33 -71 33q-57 0 -92 -35.5t-52 -112.5q-13 -63 4.5 -87t72.5 -24z" />
    <glyph glyph-name="ae" unicode="&#xe6;" horiz-adv-x="882" 
d="M153 -10q-46 0 -84 16t-56.5 49.5t-8.5 83.5q16 73 74 114.5t157 41.5h132l3 11q10 35 -10.5 51t-89.5 16q-81 0 -165 -25l23 104q37 14 89.5 23t108.5 9t92 -11.5t61 -34.5q35 23 82.5 34.5t98.5 11.5q72 0 119 -29t66.5 -77.5t6.5 -107.5l-18 -85h-336
q1 -47 34.5 -66.5t109.5 -19.5q39 0 81 7.5t71 17.5l-22 -103q-37 -16 -86 -23.5t-105 -7.5q-57 0 -105 19t-72 54q-31 -21 -66 -37.5t-79.5 -26t-105.5 -9.5zM518 278h196l4 21q8 35 -9 55.5t-67 20.5q-61 0 -87 -23.5t-37 -73.5zM212 89q38 0 68 11.5t52 30.5l15 71h-114
q-70 0 -83 -57q-5 -26 6.5 -41t55.5 -15z" />
    <glyph glyph-name="aeacute" unicode="&#x1fd;" horiz-adv-x="882" 
d="M426 522l126 196h132l-134 -196h-124zM153 -10q-46 0 -84 16t-56.5 49.5t-8.5 83.5q16 73 74 114.5t157 41.5h132l3 11q10 35 -10.5 51t-89.5 16q-81 0 -165 -25l23 104q37 14 89.5 23t108.5 9t92 -11.5t61 -34.5q35 23 82.5 34.5t98.5 11.5q72 0 119 -29t66.5 -77.5
t6.5 -107.5l-18 -85h-336q1 -47 34.5 -66.5t109.5 -19.5q39 0 81 7.5t71 17.5l-22 -103q-37 -16 -86 -23.5t-105 -7.5q-57 0 -105 19t-72 54q-31 -21 -66 -37.5t-79.5 -26t-105.5 -9.5zM518 278h196l4 21q8 35 -9 55.5t-67 20.5q-61 0 -87 -23.5t-37 -73.5zM212 89
q38 0 68 11.5t52 30.5l15 71h-114q-70 0 -83 -57q-5 -26 6.5 -41t55.5 -15z" />
    <glyph glyph-name="b" unicode="b" horiz-adv-x="598" 
d="M288 -10q-48 0 -81 12.5t-57 37.5l-16 -40h-140l143 674h161l-47 -222q30 16 65.5 24t71.5 8q65 0 110 -26.5t62.5 -80.5t0.5 -136q-27 -128 -94 -189.5t-179 -61.5zM267 107q54 0 84.5 32.5t45.5 100.5q14 70 -2.5 98t-72.5 28q-57 0 -96 -30l-41 -193q13 -18 34.5 -27
t47.5 -9z" />
    <glyph glyph-name="c" unicode="c" horiz-adv-x="501" 
d="M241 -10q-76 0 -131.5 27.5t-79 82.5t-6.5 137q26 125 108 186t217 61q52 0 89 -7.5t70 -24.5l-25 -114q-49 27 -125 27q-70 0 -112.5 -28t-57.5 -100q-14 -67 9.5 -97.5t105.5 -30.5q73 0 139 30l-25 -119q-40 -16 -83 -23t-93 -7z" />
    <glyph glyph-name="cacute" unicode="&#x107;" horiz-adv-x="501" 
d="M274 522l126 196h132l-134 -196h-124zM241 -10q-76 0 -131.5 27.5t-79 82.5t-6.5 137q26 125 108 186t217 61q52 0 89 -7.5t70 -24.5l-25 -114q-49 27 -125 27q-70 0 -112.5 -28t-57.5 -100q-14 -67 9.5 -97.5t105.5 -30.5q73 0 139 30l-25 -119q-40 -16 -83 -23t-93 -7z
" />
    <glyph glyph-name="ccaron" unicode="&#x10d;" horiz-adv-x="501" 
d="M279 521l-104 187h116l50 -104l97 104h126l-185 -187h-100zM241 -10q-76 0 -131.5 27.5t-79 82.5t-6.5 137q26 125 108 186t217 61q52 0 89 -7.5t70 -24.5l-25 -114q-49 27 -125 27q-70 0 -112.5 -28t-57.5 -100q-14 -67 9.5 -97.5t105.5 -30.5q73 0 139 30l-25 -119
q-40 -16 -83 -23t-93 -7z" />
    <glyph glyph-name="ccedilla" unicode="&#xe7;" horiz-adv-x="501" 
d="M166 -240q-17 0 -41.5 2.5t-35.5 5.5l15 71q27 -8 59 -8q41 0 60 6.5t23 28.5q5 23 -12 28.5t-46 5.5h-54l47 95q-88 14 -133.5 75t-23.5 167q26 125 108 186t217 61q52 0 89 -7.5t70 -24.5l-25 -114q-49 27 -125 27q-70 0 -112.5 -28t-57.5 -100q-14 -67 9.5 -97.5
t105.5 -30.5q73 0 139 30l-25 -119q-33 -13 -68.5 -20t-74.5 -9l-19 -34q56 0 77 -25.5t13 -67.5q-10 -49 -54.5 -76.5t-124.5 -27.5z" />
    <glyph glyph-name="ccircumflex" unicode="&#x109;" horiz-adv-x="501" 
d="M131 521l184 187h100l105 -187h-114l-53 104l-94 -104h-128zM241 -10q-76 0 -131.5 27.5t-79 82.5t-6.5 137q26 125 108 186t217 61q52 0 89 -7.5t70 -24.5l-25 -114q-49 27 -125 27q-70 0 -112.5 -28t-57.5 -100q-14 -67 9.5 -97.5t105.5 -30.5q73 0 139 30l-25 -119
q-40 -16 -83 -23t-93 -7z" />
    <glyph glyph-name="cdotaccent" unicode="&#x10b;" horiz-adv-x="501" 
d="M279 548l24 109h117l-24 -109h-117zM241 -10q-76 0 -131.5 27.5t-79 82.5t-6.5 137q26 125 108 186t217 61q52 0 89 -7.5t70 -24.5l-25 -114q-49 27 -125 27q-70 0 -112.5 -28t-57.5 -100q-14 -67 9.5 -97.5t105.5 -30.5q73 0 139 30l-25 -119q-40 -16 -83 -23t-93 -7z
" />
    <glyph glyph-name="d" unicode="d" horiz-adv-x="599" 
d="M191 -10q-59 0 -103.5 25.5t-63 79t-0.5 138.5q27 128 100.5 189.5t178.5 61.5q76 0 123 -32l47 222h161l-143 -674h-139l-1 40q-34 -25 -73 -37.5t-87 -12.5zM262 107q53 0 98 36l41 192q-28 31 -81 31q-51 0 -84 -32t-48 -102q-15 -68 2 -96.5t72 -28.5z" />
    <glyph glyph-name="eth" unicode="&#xf0;" horiz-adv-x="573" 
d="M231 -10q-127 0 -181 56.5t-33 153.5q22 103 88.5 153.5t181.5 50.5q41 0 77 -11.5t58 -28.5l6 29q6 30 8.5 54t-2.5 43l-126 -50l13 59l85 34q-27 18 -83 18q-41 0 -78 -7.5t-74 -21.5l23 105q78 27 177 27q60 0 103 -17.5t69 -49.5l99 39l-13 -59l-61 -24
q27 -71 6 -173l-26 -123q-55 -257 -317 -257zM253 96q56 0 90 28t47 88l11 56q-19 17 -44.5 26.5t-60.5 9.5q-62 0 -93 -27.5t-42 -76.5q-10 -49 9.5 -76.5t82.5 -27.5z" />
    <glyph glyph-name="dcaron" unicode="&#x10f;" horiz-adv-x="758" 
d="M193 -10q-81 0 -129 39.5t-48 124.5q0 94 38 168.5t103.5 118t147.5 43.5q75 0 122 -32l47 222h161l-143 -674h-139l-1 40q-34 -25 -73 -37.5t-86 -12.5zM637 461l78 213h129l-98 -213h-109zM263 107q53 0 98 36l41 192q-28 31 -81 31q-40 0 -71 -24t-49 -65.5t-18 -95.5
q0 -40 20.5 -57t59.5 -17z" />
    <glyph glyph-name="dcroat" unicode="&#x111;" horiz-adv-x="600" 
d="M191 -10q-59 0 -103.5 25.5t-63 79t-0.5 138.5q27 128 100.5 189.5t178.5 61.5q76 0 123 -32l14 69h-138l22 102h138l11 51h161l-11 -51h41l-22 -102h-41l-110 -521h-139l-1 40q-34 -25 -73 -37.5t-87 -12.5zM262 107q53 0 98 36l41 192q-28 31 -81 31q-51 0 -84 -32
t-48 -102q-15 -68 2 -96.5t72 -28.5z" />
    <glyph glyph-name="uni1E0D" unicode="&#x1e0d;" horiz-adv-x="599" 
d="M191 -10q-59 0 -103.5 25.5t-63 79t-0.5 138.5q27 128 100.5 189.5t178.5 61.5q76 0 123 -32l47 222h161l-143 -674h-139l-1 40q-34 -25 -73 -37.5t-87 -12.5zM262 107q53 0 98 36l41 192q-28 31 -81 31q-51 0 -84 -32t-48 -102q-15 -68 2 -96.5t72 -28.5zM160 -189
l23 109h118l-23 -109h-118z" />
    <glyph glyph-name="uni1E0F" unicode="&#x1e0f;" horiz-adv-x="599" 
d="M191 -10q-59 0 -103.5 25.5t-63 79t-0.5 138.5q27 128 100.5 189.5t178.5 61.5q76 0 123 -32l47 222h161l-143 -674h-139l-1 40q-34 -25 -73 -37.5t-87 -12.5zM262 107q53 0 98 36l41 192q-28 31 -81 31q-51 0 -84 -32t-48 -102q-15 -68 2 -96.5t72 -28.5zM53 -180l21 98
h317l-21 -98h-317z" />
    <glyph glyph-name="e" unicode="e" horiz-adv-x="547" 
d="M245 -10q-75 0 -131.5 27.5t-81.5 82.5t-8 137q24 113 95 180t205 67q72 0 119.5 -28.5t66.5 -76.5t6 -109l-18 -85h-336q1 -47 33 -65.5t111 -18.5q39 0 81 7t71 18l-22 -105q-37 -16 -86 -23.5t-105 -7.5zM182 278h196l4 21q8 35 -9 55.5t-67 20.5q-58 0 -85.5 -23.5
t-38.5 -73.5z" />
    <glyph glyph-name="eacute" unicode="&#xe9;" horiz-adv-x="547" 
d="M274 522l126 196h132l-134 -196h-124zM245 -10q-75 0 -131.5 27.5t-81.5 82.5t-8 137q24 113 95 180t205 67q72 0 119.5 -28.5t66.5 -76.5t6 -109l-18 -85h-336q1 -47 33 -65.5t111 -18.5q39 0 81 7t71 18l-22 -105q-37 -16 -86 -23.5t-105 -7.5zM182 278h196l4 21
q8 35 -9 55.5t-67 20.5q-58 0 -85.5 -23.5t-38.5 -73.5z" />
    <glyph glyph-name="ebreve" unicode="&#x115;" horiz-adv-x="547" 
d="M337 522q-76 0 -114.5 45t-21.5 127h99q-8 -38 1.5 -60t48.5 -22q37 0 58 24t28 58h112q-17 -82 -71.5 -127t-139.5 -45zM245 -10q-75 0 -131.5 27.5t-81.5 82.5t-8 137q24 113 95 180t205 67q72 0 119.5 -28.5t66.5 -76.5t6 -109l-18 -85h-336q1 -47 33 -65.5t111 -18.5
q39 0 81 7t71 18l-22 -105q-37 -16 -86 -23.5t-105 -7.5zM182 278h196l4 21q8 35 -9 55.5t-67 20.5q-58 0 -85.5 -23.5t-38.5 -73.5z" />
    <glyph glyph-name="ecaron" unicode="&#x11b;" horiz-adv-x="547" 
d="M292 521l-104 187h116l50 -104l97 104h126l-185 -187h-100zM245 -10q-75 0 -131.5 27.5t-81.5 82.5t-8 137q24 113 95 180t205 67q72 0 119.5 -28.5t66.5 -76.5t6 -109l-18 -85h-336q1 -47 33 -65.5t111 -18.5q39 0 81 7t71 18l-22 -105q-37 -16 -86 -23.5t-105 -7.5z
M182 278h196l4 21q8 35 -9 55.5t-67 20.5q-58 0 -85.5 -23.5t-38.5 -73.5z" />
    <glyph glyph-name="ecircumflex" unicode="&#xea;" horiz-adv-x="547" 
d="M140 521l184 187h100l105 -187h-114l-53 104l-94 -104h-128zM245 -10q-75 0 -131.5 27.5t-81.5 82.5t-8 137q24 113 95 180t205 67q72 0 119.5 -28.5t66.5 -76.5t6 -109l-18 -85h-336q1 -47 33 -65.5t111 -18.5q39 0 81 7t71 18l-22 -105q-37 -16 -86 -23.5t-105 -7.5z
M182 278h196l4 21q8 35 -9 55.5t-67 20.5q-58 0 -85.5 -23.5t-38.5 -73.5z" />
    <glyph glyph-name="uni1EBF" unicode="&#x1ebf;" horiz-adv-x="546" 
d="M472 642l99 149h120l-106 -149h-113zM140 521l164 144h121l104 -144h-124l-48 80l-82 -80h-135zM245 -10q-75 0 -131.5 27.5t-81.5 82.5t-8 137q24 113 95 180t205 67q72 0 119.5 -28.5t66.5 -76.5t6 -109l-18 -85h-336q1 -47 33 -65.5t111 -18.5q39 0 81 7t71 18
l-22 -105q-37 -16 -86 -23.5t-105 -7.5zM182 278h196l4 21q8 35 -9 55.5t-67 20.5q-58 0 -85.5 -23.5t-38.5 -73.5z" />
    <glyph glyph-name="uni1EC7" unicode="&#x1ec7;" horiz-adv-x="547" 
d="M141 521l184 187h100l105 -187h-114l-53 104l-94 -104h-128zM245 -10q-75 0 -131.5 27.5t-81.5 82.5t-8 137q24 113 95 180t205 67q72 0 119.5 -28.5t66.5 -76.5t6 -109l-18 -85h-336q1 -47 33 -65.5t111 -18.5q39 0 81 7t71 18l-22 -105q-37 -16 -86 -23.5t-105 -7.5z
M182 278h196l4 21q8 35 -9 55.5t-67 20.5q-58 0 -85.5 -23.5t-38.5 -73.5zM128 -179l23 109h118l-23 -109h-118z" />
    <glyph glyph-name="uni1EC1" unicode="&#x1ec1;" horiz-adv-x="547" 
d="M135 643l-44 149h120l38 -149h-114zM139 522l164 144h121l104 -144h-124l-48 80l-82 -80h-135zM245 -10q-75 0 -131.5 27.5t-81.5 82.5t-8 137q24 113 95 180t205 67q72 0 119.5 -28.5t66.5 -76.5t6 -109l-18 -85h-336q1 -47 33 -65.5t111 -18.5q39 0 81 7t71 18
l-22 -105q-37 -16 -86 -23.5t-105 -7.5zM182 278h196l4 21q8 35 -9 55.5t-67 20.5q-58 0 -85.5 -23.5t-38.5 -73.5z" />
    <glyph glyph-name="uni1EC3" unicode="&#x1ec3;" horiz-adv-x="546" 
d="M477 620l15 71q44 2 60 10.5t19 22.5q6 25 -38 25q-14 0 -28 -2.5t-26 -7.5l14 67q19 5 42 8.5t51 3.5q57 0 81 -22.5t16 -60.5q-7 -34 -29 -55t-62 -27l-7 -33h-108zM140 521l164 144h121l104 -144h-124l-48 80l-82 -80h-135zM245 -10q-75 0 -131.5 27.5t-81.5 82.5
t-8 137q24 113 95 180t205 67q72 0 119.5 -28.5t66.5 -76.5t6 -109l-18 -85h-336q1 -47 33 -65.5t111 -18.5q39 0 81 7t71 18l-22 -105q-37 -16 -86 -23.5t-105 -7.5zM182 278h196l4 21q8 35 -9 55.5t-67 20.5q-58 0 -85.5 -23.5t-38.5 -73.5z" />
    <glyph glyph-name="uni1EC5" unicode="&#x1ec5;" horiz-adv-x="547" 
d="M468 680q-30 0 -57 10t-52.5 20t-51.5 10q-57 0 -100 -37l20 91q16 14 42 23t53 9q32 0 57.5 -10t50 -20.5t53.5 -10.5t53 10.5t40 28.5l-20 -92q-12 -13 -35.5 -22.5t-52.5 -9.5zM142 521l164 144h121l104 -144h-124l-48 80l-82 -80h-135zM245 -10q-75 0 -131.5 27.5
t-81.5 82.5t-8 137q24 113 95 180t205 67q72 0 119.5 -28.5t66.5 -76.5t6 -109l-18 -85h-336q1 -47 33 -65.5t111 -18.5q39 0 81 7t71 18l-22 -105q-37 -16 -86 -23.5t-105 -7.5zM182 278h196l4 21q8 35 -9 55.5t-67 20.5q-58 0 -85.5 -23.5t-38.5 -73.5z" />
    <glyph glyph-name="edieresis" unicode="&#xeb;" horiz-adv-x="547" 
d="M178 548l24 109h117l-24 -109h-117zM383 548l24 109h118l-24 -109h-118zM245 -10q-75 0 -131.5 27.5t-81.5 82.5t-8 137q24 113 95 180t205 67q72 0 119.5 -28.5t66.5 -76.5t6 -109l-18 -85h-336q1 -47 33 -65.5t111 -18.5q39 0 81 7t71 18l-22 -105q-37 -16 -86 -23.5
t-105 -7.5zM182 278h196l4 21q8 35 -9 55.5t-67 20.5q-58 0 -85.5 -23.5t-38.5 -73.5z" />
    <glyph glyph-name="edotaccent" unicode="&#x117;" horiz-adv-x="547" 
d="M282 548l24 109h117l-24 -109h-117zM245 -10q-75 0 -131.5 27.5t-81.5 82.5t-8 137q24 113 95 180t205 67q72 0 119.5 -28.5t66.5 -76.5t6 -109l-18 -85h-336q1 -47 33 -65.5t111 -18.5q39 0 81 7t71 18l-22 -105q-37 -16 -86 -23.5t-105 -7.5zM182 278h196l4 21
q8 35 -9 55.5t-67 20.5q-58 0 -85.5 -23.5t-38.5 -73.5z" />
    <glyph glyph-name="uni1EB9" unicode="&#x1eb9;" horiz-adv-x="547" 
d="M245 -10q-75 0 -131.5 27.5t-81.5 82.5t-8 137q24 113 95 180t205 67q72 0 119.5 -28.5t66.5 -76.5t6 -109l-18 -85h-336q1 -47 33 -65.5t111 -18.5q39 0 81 7t71 18l-22 -105q-37 -16 -86 -23.5t-105 -7.5zM182 278h196l4 21q8 35 -9 55.5t-67 20.5q-58 0 -85.5 -23.5
t-38.5 -73.5zM131 -179l23 109h118l-23 -109h-118z" />
    <glyph glyph-name="egrave" unicode="&#xe8;" horiz-adv-x="547" 
d="M274 522l-51 196h132l42 -196h-123zM245 -10q-75 0 -131.5 27.5t-81.5 82.5t-8 137q24 113 95 180t205 67q72 0 119.5 -28.5t66.5 -76.5t6 -109l-18 -85h-336q1 -47 33 -65.5t111 -18.5q39 0 81 7t71 18l-22 -105q-37 -16 -86 -23.5t-105 -7.5zM182 278h196l4 21
q8 35 -9 55.5t-67 20.5q-58 0 -85.5 -23.5t-38.5 -73.5z" />
    <glyph glyph-name="uni1EBB" unicode="&#x1ebb;" horiz-adv-x="547" 
d="M275 521l17 81q54 3 74.5 14.5t24.5 31.5q4 19 -11.5 27.5t-46.5 8.5q-14 0 -31.5 -2.5t-30.5 -6.5l16 72q44 14 110 14t95 -27.5t20 -71.5q-10 -43 -34.5 -64.5t-71.5 -32.5l-9 -44h-122zM245 -10q-75 0 -131.5 27.5t-81.5 82.5t-8 137q24 113 95 180t205 67
q72 0 119.5 -28.5t66.5 -76.5t6 -109l-18 -85h-336q1 -47 33 -65.5t111 -18.5q39 0 81 7t71 18l-22 -105q-37 -16 -86 -23.5t-105 -7.5zM182 278h196l4 21q8 35 -9 55.5t-67 20.5q-58 0 -85.5 -23.5t-38.5 -73.5z" />
    <glyph glyph-name="emacron" unicode="&#x113;" horiz-adv-x="547" 
d="M187 557l21 97h317l-21 -97h-317zM245 -10q-75 0 -131.5 27.5t-81.5 82.5t-8 137q24 113 95 180t205 67q72 0 119.5 -28.5t66.5 -76.5t6 -109l-18 -85h-336q1 -47 33 -65.5t111 -18.5q39 0 81 7t71 18l-22 -105q-37 -16 -86 -23.5t-105 -7.5zM182 278h196l4 21
q8 35 -9 55.5t-67 20.5q-58 0 -85.5 -23.5t-38.5 -73.5z" />
    <glyph glyph-name="eogonek" unicode="&#x119;" horiz-adv-x="547" 
d="M253 -220q-51 0 -82 22.5t-21 71.5q7 34 29 64t54 52q-72 2 -125.5 30t-77 82.5t-6.5 134.5q24 113 95 180t205 67q72 0 119.5 -28.5t66.5 -76.5t6 -109l-18 -85h-336q1 -47 33 -65.5t111 -18.5q39 0 81 7t71 18l-22 -105q-32 -15 -75 -21q-32 -21 -54 -45.5t-28 -51.5
q-4 -20 6 -29t29 -9q13 0 27.5 3t24.5 8l-17 -81q-16 -6 -42 -10.5t-54 -4.5zM182 278h196l4 21q8 35 -9 55.5t-67 20.5q-58 0 -85.5 -23.5t-38.5 -73.5z" />
    <glyph glyph-name="uni1EBD" unicode="&#x1ebd;" horiz-adv-x="547" 
d="M435 532q-31 0 -58 10.5t-52.5 20.5t-51.5 10q-29 0 -54.5 -10t-47.5 -28l23 107q17 14 43.5 23t54.5 9q32 0 57.5 -10t50.5 -20.5t54 -10.5q30 0 54.5 10.5t40.5 28.5l-23 -108q-13 -13 -37.5 -22.5t-53.5 -9.5zM245 -10q-75 0 -131.5 27.5t-81.5 82.5t-8 137
q24 113 95 180t205 67q72 0 119.5 -28.5t66.5 -76.5t6 -109l-18 -85h-336q1 -47 33 -65.5t111 -18.5q39 0 81 7t71 18l-22 -105q-37 -16 -86 -23.5t-105 -7.5zM182 278h196l4 21q8 35 -9 55.5t-67 20.5q-58 0 -85.5 -23.5t-38.5 -73.5z" />
    <glyph glyph-name="uni0259" unicode="&#x259;" horiz-adv-x="547" 
d="M208 -10q-69 0 -117 26.5t-68 74.5t-6 113l18 84h336q-1 32 -13.5 50.5t-43 26.5t-87.5 8q-40 0 -82 -7t-71 -18l23 104q75 32 190 32q77 0 133.5 -27.5t81.5 -82t7 -137.5q-24 -113 -96.5 -180t-204.5 -67zM226 98q58 0 86.5 24t38.5 74h-196l-5 -22q-7 -34 6 -55
t70 -21z" />
    <glyph glyph-name="f" unicode="f" horiz-adv-x="376" 
d="M17 0l74 352h-63l26 122h63l9 39q19 82 67 129.5t145 47.5q36 0 63 -5.5t50 -15.5l-23 -108q-14 5 -27.5 8t-30.5 3q-39 0 -58 -14.5t-26 -47.5l-8 -36h117l-33 -122h-110l-74 -352h-161z" />
    <glyph glyph-name="g" unicode="g" horiz-adv-x="599" 
d="M158 -176q-16 0 -42 1.5t-50.5 4t-37.5 4.5l26 119q19 -6 50 -9.5t53 -3.5q86 0 126.5 16t48.5 57l4 18q-28 -16 -65 -25t-75 -9q-63 0 -108.5 22.5t-64 72t-2.5 128.5q26 128 98 196t184 68q50 0 80.5 -13.5t51.5 -37.5l17 41h139l-91 -431q-14 -67 -51.5 -116t-108 -76
t-182.5 -27zM266 114q28 0 51 8t43 23l40 185q-24 36 -80 36t-87.5 -36.5t-47.5 -108.5q-13 -62 3.5 -84.5t77.5 -22.5z" />
    <glyph glyph-name="gbreve" unicode="&#x11f;" horiz-adv-x="599" 
d="M331 522q-76 0 -114.5 45t-21.5 127h99q-8 -38 1.5 -60t48.5 -22q37 0 58 24t28 58h112q-17 -82 -71.5 -127t-139.5 -45zM158 -176q-16 0 -42 1.5t-50.5 4t-37.5 4.5l26 119q19 -6 50 -9.5t53 -3.5q86 0 126.5 16t48.5 57l4 18q-28 -16 -65 -25t-75 -9q-63 0 -108.5 22.5
t-64 72t-2.5 128.5q26 128 98 196t184 68q50 0 80.5 -13.5t51.5 -37.5l17 41h139l-91 -431q-14 -67 -51.5 -116t-108 -76t-182.5 -27zM266 114q28 0 51 8t43 23l40 185q-24 36 -80 36t-87.5 -36.5t-47.5 -108.5q-13 -62 3.5 -84.5t77.5 -22.5z" />
    <glyph glyph-name="gcaron" unicode="&#x1e7;" horiz-adv-x="599" 
d="M296 522l-104 187h116l50 -104l97 104h126l-185 -187h-100zM158 -176q-16 0 -42 1.5t-50.5 4t-37.5 4.5l26 119q19 -6 50 -9.5t53 -3.5q86 0 126.5 16t48.5 57l4 18q-28 -16 -65 -25t-75 -9q-63 0 -108.5 22.5t-64 72t-2.5 128.5q26 128 98 196t184 68q50 0 80.5 -13.5
t51.5 -37.5l17 41h139l-91 -431q-14 -67 -51.5 -116t-108 -76t-182.5 -27zM266 114q28 0 51 8t43 23l40 185q-24 36 -80 36t-87.5 -36.5t-47.5 -108.5q-13 -62 3.5 -84.5t77.5 -22.5z" />
    <glyph glyph-name="gcircumflex" unicode="&#x11d;" horiz-adv-x="599" 
d="M141 521l184 187h100l105 -187h-114l-53 104l-94 -104h-128zM158 -176q-16 0 -42 1.5t-50.5 4t-37.5 4.5l26 119q19 -6 50 -9.5t53 -3.5q86 0 126.5 16t48.5 57l4 18q-28 -16 -65 -25t-75 -9q-63 0 -108.5 22.5t-64 72t-2.5 128.5q26 128 98 196t184 68q50 0 80.5 -13.5
t51.5 -37.5l17 41h139l-91 -431q-14 -67 -51.5 -116t-108 -76t-182.5 -27zM266 114q28 0 51 8t43 23l40 185q-24 36 -80 36t-87.5 -36.5t-47.5 -108.5q-13 -62 3.5 -84.5t77.5 -22.5z" />
    <glyph glyph-name="uni0123" unicode="&#x123;" horiz-adv-x="599" 
d="M263 522l99 213h108l-78 -213h-129zM158 -176q-16 0 -42 1.5t-50.5 4t-37.5 4.5l26 119q19 -6 50 -9.5t53 -3.5q86 0 126.5 16t48.5 57l4 18q-28 -16 -65 -25t-75 -9q-63 0 -108.5 22.5t-64 72t-2.5 128.5q26 128 98 196t184 68q50 0 80.5 -13.5t51.5 -37.5l17 41h139
l-91 -431q-14 -67 -51.5 -116t-108 -76t-182.5 -27zM266 114q28 0 51 8t43 23l40 185q-24 36 -80 36t-87.5 -36.5t-47.5 -108.5q-13 -62 3.5 -84.5t77.5 -22.5z" />
    <glyph glyph-name="gdotaccent" unicode="&#x121;" horiz-adv-x="599" 
d="M267 535l24 109h117l-24 -109h-117zM158 -176q-16 0 -42 1.5t-50.5 4t-37.5 4.5l26 119q19 -6 50 -9.5t53 -3.5q86 0 126.5 16t48.5 57l4 18q-28 -16 -65 -25t-75 -9q-63 0 -108.5 22.5t-64 72t-2.5 128.5q26 128 98 196t184 68q50 0 80.5 -13.5t51.5 -37.5l17 41h139
l-91 -431q-14 -67 -51.5 -116t-108 -76t-182.5 -27zM266 114q28 0 51 8t43 23l40 185q-24 36 -80 36t-87.5 -36.5t-47.5 -108.5q-13 -62 3.5 -84.5t77.5 -22.5z" />
    <glyph glyph-name="uni1E21" unicode="&#x1e21;" horiz-adv-x="599" 
d="M183 551l21 97h317l-21 -97h-317zM158 -176q-16 0 -42 1.5t-50.5 4t-37.5 4.5l26 119q19 -6 50 -9.5t53 -3.5q86 0 126.5 16t48.5 57l4 18q-28 -16 -65 -25t-75 -9q-63 0 -108.5 22.5t-64 72t-2.5 128.5q26 128 98 196t184 68q50 0 80.5 -13.5t51.5 -37.5l17 41h139
l-91 -431q-14 -67 -51.5 -116t-108 -76t-182.5 -27zM266 114q28 0 51 8t43 23l40 185q-24 36 -80 36t-87.5 -36.5t-47.5 -108.5q-13 -62 3.5 -84.5t77.5 -22.5z" />
    <glyph glyph-name="h" unicode="h" horiz-adv-x="595" 
d="M-6 0l143 674h161l-50 -235q31 20 73.5 32.5t88.5 12.5q88 0 126.5 -45t18.5 -138l-63 -301h-161l61 290q9 41 -3 58t-59 17q-26 0 -55.5 -12t-51.5 -30l-68 -323h-161z" />
    <glyph glyph-name="hbar" unicode="&#x127;" horiz-adv-x="596" 
d="M-5 0l111 523h-45l21 101h45l11 50h161l-11 -50h123l-21 -101h-123l-18 -84q31 20 73.5 32.5t88.5 12.5q88 0 126.5 -45t18.5 -138l-63 -301h-161l61 290q9 41 -3 58t-59 17q-26 0 -55.5 -12t-51.5 -30l-68 -323h-161z" />
    <glyph glyph-name="uni1E2B" unicode="&#x1e2b;" horiz-adv-x="595" 
d="M-6 0l143 674h161l-50 -235q31 20 73.5 32.5t88.5 12.5q88 0 126.5 -45t18.5 -138l-63 -301h-161l61 290q9 41 -3 58t-59 17q-26 0 -55.5 -12t-51.5 -30l-68 -323h-161zM197 -227q-77 0 -115.5 45t-20.5 127h100q-11 -43 1 -62.5t48 -19.5q37 0 58 24t28 58h112
q-18 -82 -72.5 -127t-138.5 -45z" />
    <glyph glyph-name="hcircumflex" unicode="&#x125;" horiz-adv-x="595" 
d="M147 706l184 187h100l105 -187h-114l-53 104l-94 -104h-128zM-6 0l143 674h161l-50 -235q31 20 73.5 32.5t88.5 12.5q88 0 126.5 -45t18.5 -138l-63 -301h-161l61 290q9 41 -3 58t-59 17q-26 0 -55.5 -12t-51.5 -30l-68 -323h-161z" />
    <glyph glyph-name="uni1E25" unicode="&#x1e25;" horiz-adv-x="595" 
d="M-6 0l143 674h161l-50 -235q31 20 73.5 32.5t88.5 12.5q88 0 126.5 -45t18.5 -138l-63 -301h-161l61 290q9 41 -3 58t-59 17q-26 0 -55.5 -12t-51.5 -30l-68 -323h-161zM147 -189l23 109h118l-23 -109h-118z" />
    <glyph glyph-name="i" unicode="i" horiz-adv-x="309" 
d="M142 549l26 121h175l-26 -121h-175zM39 0l75 355h-70l39 119h217l-100 -474h-161z" />
    <glyph glyph-name="dotlessi" unicode="&#x131;" horiz-adv-x="334" 
d="M64 0l75 355h-70l39 119h217l-100 -474h-161z" />
    <glyph glyph-name="iacute" unicode="&#xed;" horiz-adv-x="334" 
d="M174 522l126 196h132l-134 -196h-124zM64 0l75 355h-70l39 119h217l-100 -474h-161z" />
    <glyph glyph-name="ibreve" unicode="&#x12d;" horiz-adv-x="334" 
d="M225 522q-77 0 -115.5 45t-21.5 127h101q-7 -34 1.5 -58t48.5 -24q37 0 58 24t28 58h111q-17 -82 -71 -127t-140 -45zM65 0l75 355h-70l39 119h217l-100 -474h-161z" />
    <glyph glyph-name="uni01D0" unicode="&#x1d0;" horiz-adv-x="333" 
d="M177 521l-104 187h116l50 -104l97 104h126l-185 -187h-100zM64 0l75 355h-70l39 119h217l-100 -474h-161z" />
    <glyph glyph-name="icircumflex" unicode="&#xee;" horiz-adv-x="333" 
d="M32 521l184 187h100l105 -187h-114l-53 104l-94 -104h-128zM64 0l75 355h-70l39 119h217l-100 -474h-161z" />
    <glyph glyph-name="idieresis" unicode="&#xef;" horiz-adv-x="334" 
d="M68 548l24 109h117l-24 -109h-117zM273 548l24 109h118l-24 -109h-118zM65 0l75 355h-70l39 119h217l-100 -474h-161z" />
    <glyph glyph-name="uni1ECB" unicode="&#x1ecb;" horiz-adv-x="334" 
d="M167 549l26 121h175l-26 -121h-175zM64 0l75 355h-70l39 119h217l-100 -474h-161zM45 -179l23 109h118l-23 -109h-118z" />
    <glyph glyph-name="igrave" unicode="&#xec;" horiz-adv-x="334" 
d="M188 522l-51 196h132l42 -196h-123zM64 0l75 355h-70l39 119h217l-100 -474h-161z" />
    <glyph glyph-name="uni1EC9" unicode="&#x1ec9;" horiz-adv-x="334" 
d="M162 521l17 81q54 3 74.5 14.5t24.5 31.5q4 19 -11.5 27.5t-46.5 8.5q-14 0 -31.5 -2.5t-30.5 -6.5l16 72q44 14 110 14t95 -27.5t20 -71.5q-10 -43 -34.5 -64.5t-71.5 -32.5l-9 -44h-122zM64 0l75 355h-70l39 119h217l-100 -474h-161z" />
    <glyph glyph-name="ij" unicode="&#x133;" horiz-adv-x="603" 
d="M167 549l26 121h175l-26 -121h-175zM436 549l26 121h175l-26 -121h-175zM272 -234q-70 0 -113 20l23 109q29 -10 58 -10q41 0 58 14.5t24 45.5l87 410h-70l39 119h217l-115 -543q-10 -49 -34 -86t-66 -58t-108 -21zM64 0l75 355h-70l39 119h217l-100 -474h-161z" />
    <glyph glyph-name="imacron" unicode="&#x12b;" horiz-adv-x="334" 
d="M74 574l21 97h318l-21 -97h-318zM64 0l75 355h-70l39 119h217l-100 -474h-161z" />
    <glyph glyph-name="iogonek" unicode="&#x12f;" horiz-adv-x="334" 
d="M167 549l26 121h175l-26 -121h-175zM94 -220q-51 0 -82 22.5t-21 71.5q8 38 34.5 71t64.5 55h-26l75 355h-70l39 119h217l-100 -474h-22q-32 -21 -54.5 -45.5t-28.5 -51.5q-4 -20 6 -29t29 -9q13 0 27.5 3t24.5 8l-17 -81q-16 -6 -42 -10.5t-54 -4.5z" />
    <glyph glyph-name="itilde" unicode="&#x129;" horiz-adv-x="334" 
d="M314 538q-31 0 -58 10.5t-52.5 20.5t-51.5 10q-29 0 -54.5 -10t-47.5 -28l23 107q17 14 43.5 23t54.5 9q32 0 57.5 -10t50.5 -20.5t54 -10.5q30 0 54.5 10.5t40.5 28.5l-23 -108q-13 -13 -37.5 -22.5t-53.5 -9.5zM64 0l75 355h-70l39 119h217l-100 -474h-161z" />
    <glyph glyph-name="j" unicode="j" horiz-adv-x="338" 
d="M171 549l26 121h175l-26 -121h-175zM7 -234q-70 0 -113 20l23 109q29 -10 58 -10q41 0 58 14.5t24 45.5l87 410h-70l39 119h217l-115 -543q-10 -49 -34 -86t-66 -58t-108 -21z" />
    <glyph glyph-name="uni0237" unicode="&#x237;" horiz-adv-x="332" 
d="M1 -234q-70 0 -113 20l23 109q29 -10 58 -10q69 0 82 60l87 410h-70l39 119h217l-115 -543q-16 -73 -67.5 -119t-140.5 -46z" />
    <glyph glyph-name="jcircumflex" unicode="&#x135;" horiz-adv-x="331" 
d="M40 521l184 187h100l105 -187h-114l-53 104l-94 -104h-128zM1 -234q-70 0 -113 20l23 109q29 -10 58 -10q69 0 82 60l87 410h-70l39 119h217l-115 -543q-16 -73 -67.5 -119t-140.5 -46z" />
    <glyph glyph-name="k" unicode="k" horiz-adv-x="581" 
d="M-6 0l143 674h161l-75 -352l187 152h183l-232 -197l143 -277h-171l-91 192l-56 -46l-31 -146h-161z" />
    <glyph glyph-name="uni0137" unicode="&#x137;" horiz-adv-x="592" 
d="M-6 0l143 674h161l-75 -352l187 152h183l-232 -197l143 -277h-171l-91 192l-56 -46l-31 -146h-161zM77 -250l78 213h129l-99 -213h-108z" />
    <glyph glyph-name="kgreenlandic" unicode="&#x138;" horiz-adv-x="593" 
d="M-5 0l100 474h161l-35 -167l190 167h183l-234 -209l145 -265h-171l-92 180l-59 -50l-27 -130h-161z" />
    <glyph glyph-name="l" unicode="l" horiz-adv-x="307" 
d="M137 -10q-72 0 -101.5 34t-13.5 109l115 541h161l-112 -525q-4 -23 3.5 -31.5t26.5 -8.5q27 0 49 7l-23 -109q-25 -9 -48.5 -13t-56.5 -4z" />
    <glyph glyph-name="lacute" unicode="&#x13a;" horiz-adv-x="307" 
d="M169 741l126 196h132l-134 -196h-124zM137 -10q-72 0 -101.5 34t-13.5 109l115 541h161l-112 -525q-4 -23 3.5 -31.5t26.5 -8.5q27 0 49 7l-23 -109q-25 -9 -48.5 -13t-56.5 -4z" />
    <glyph glyph-name="lcaron" unicode="&#x13e;" horiz-adv-x="426" 
d="M138 -10q-79 0 -105.5 35t-10.5 108l115 541h161l-112 -525q-5 -24 3 -32t27 -8q27 0 49 7l-23 -109q-25 -9 -48 -13t-56 -4zM305 461l78 213h129l-98 -213h-109z" />
    <glyph glyph-name="uni013C" unicode="&#x13c;" horiz-adv-x="307" 
d="M137 -10q-72 0 -101.5 34t-13.5 109l115 541h161l-112 -525q-4 -23 3.5 -31.5t26.5 -8.5q27 0 49 7l-23 -109q-25 -9 -48.5 -13t-56.5 -4zM-14 -250l78 213h129l-99 -213h-108z" />
    <glyph glyph-name="ldot" unicode="&#x140;" horiz-adv-x="426" 
d="M137 -10q-72 0 -101.5 34t-13.5 109l115 541h161l-112 -525q-5 -23 3 -31.5t27 -8.5q27 0 49 7l-23 -109q-25 -9 -48.5 -13t-56.5 -4zM287 288l24 109h118l-24 -109h-118z" />
    <glyph glyph-name="uni1E37" unicode="&#x1e37;" horiz-adv-x="307" 
d="M137 -10q-72 0 -101.5 34t-13.5 109l115 541h161l-112 -525q-4 -23 3.5 -31.5t26.5 -8.5q27 0 49 7l-23 -109q-25 -9 -48.5 -13t-56.5 -4zM22 -179l23 109h118l-23 -109h-118z" />
    <glyph glyph-name="uni1E39" unicode="&#x1e39;" horiz-adv-x="307" 
d="M71 725l21 97h317l-21 -97h-317zM137 -10q-72 0 -101.5 34t-13.5 109l115 541h161l-112 -525q-4 -23 3.5 -31.5t26.5 -8.5q27 0 49 7l-23 -109q-25 -9 -48.5 -13t-56.5 -4zM22 -179l23 109h118l-23 -109h-118z" />
    <glyph glyph-name="uni1E3B" unicode="&#x1e3b;" horiz-adv-x="307" 
d="M137 -10q-72 0 -101.5 34t-13.5 109l115 541h161l-112 -525q-4 -23 3.5 -31.5t26.5 -8.5q27 0 49 7l-23 -109q-25 -9 -48.5 -13t-56.5 -4zM-86 -168l21 98h317l-21 -98h-317z" />
    <glyph glyph-name="lslash" unicode="&#x142;" horiz-adv-x="308" 
d="M138 -10q-78 0 -104.5 34t-10.5 109l26 125l-89 -36l24 115l90 36l64 301h161l-49 -231l92 37l-25 -115l-92 -37l-38 -179q-4 -23 3.5 -31.5t26.5 -8.5q27 0 49 7l-23 -109q-25 -9 -48.5 -13t-56.5 -4z" />
    <glyph glyph-name="m" unicode="m" horiz-adv-x="860" 
d="M-5 0l100 474h149l-4 -42q38 23 80.5 37.5t88.5 14.5q48 0 72 -14.5t34 -40.5q38 24 82.5 39.5t100.5 15.5q83 0 112 -46.5t12 -127.5l-65 -310h-159l61 291q8 39 -4.5 56.5t-49.5 17.5q-23 0 -47 -9.5t-43 -26.5q0 -11 -1.5 -21t-4.5 -24l-60 -284h-150l62 293
q8 36 -1 54t-44 18q-25 0 -50 -11.5t-46 -31.5l-68 -322h-157z" />
    <glyph glyph-name="uni1E43" unicode="&#x1e43;" horiz-adv-x="860" 
d="M-5 0l100 474h149l-4 -42q38 23 80.5 37.5t88.5 14.5q48 0 72 -14.5t34 -40.5q38 24 82.5 39.5t100.5 15.5q83 0 112 -46.5t12 -127.5l-65 -310h-159l61 291q8 39 -4.5 56.5t-49.5 17.5q-23 0 -47 -9.5t-43 -26.5q0 -11 -1.5 -21t-4.5 -24l-60 -284h-150l62 293
q8 36 -1 54t-44 18q-25 0 -50 -11.5t-46 -31.5l-68 -322h-157zM284 -179l23 109h118l-23 -109h-118z" />
    <glyph glyph-name="n" unicode="n" horiz-adv-x="596" 
d="M-5 0l100 474h150l-3 -41q32 20 79.5 35.5t97.5 15.5q92 0 124 -47.5t14 -132.5l-64 -304h-161l61 291q9 40 -3 57t-56 17q-26 0 -57 -12t-53 -30l-68 -323h-161z" />
    <glyph glyph-name="nacute" unicode="&#x144;" horiz-adv-x="596" 
d="M268 522l126 196h132l-134 -196h-124zM-5 0l100 474h150l-3 -41q32 20 79.5 35.5t97.5 15.5q92 0 124 -47.5t14 -132.5l-64 -304h-161l61 291q9 40 -3 57t-56 17q-26 0 -57 -12t-53 -30l-68 -323h-161z" />
    <glyph glyph-name="napostrophe" unicode="&#x149;" horiz-adv-x="692" 
d="M15 431l78 213h129l-99 -213h-108zM91 0l100 474h150l-3 -41q32 20 79.5 35.5t97.5 15.5q92 0 124 -47.5t14 -132.5l-64 -304h-161l61 291q9 40 -3 57t-56 17q-26 0 -57 -12t-53 -30l-68 -323h-161z" />
    <glyph glyph-name="ncaron" unicode="&#x148;" horiz-adv-x="596" 
d="M290 521l-104 187h116l50 -104l97 104h126l-185 -187h-100zM-5 0l100 474h150l-3 -41q32 20 79.5 35.5t97.5 15.5q92 0 124 -47.5t14 -132.5l-64 -304h-161l61 291q9 40 -3 57t-56 17q-26 0 -57 -12t-53 -30l-68 -323h-161z" />
    <glyph glyph-name="uni0146" unicode="&#x146;" horiz-adv-x="596" 
d="M-5 0l100 474h150l-3 -41q32 20 79.5 35.5t97.5 15.5q92 0 124 -47.5t14 -132.5l-64 -304h-161l61 291q9 40 -3 57t-56 17q-26 0 -57 -12t-53 -30l-68 -323h-161zM104 -250l78 213h129l-99 -213h-108z" />
    <glyph glyph-name="uni1E45" unicode="&#x1e45;" horiz-adv-x="596" 
d="M301 548l24 109h117l-24 -109h-117zM-5 0l100 474h150l-3 -41q32 20 79.5 35.5t97.5 15.5q92 0 124 -47.5t14 -132.5l-64 -304h-161l61 291q9 40 -3 57t-56 17q-26 0 -57 -12t-53 -30l-68 -323h-161z" />
    <glyph glyph-name="uni1E47" unicode="&#x1e47;" horiz-adv-x="596" 
d="M-5 0l100 474h150l-3 -41q32 20 79.5 35.5t97.5 15.5q92 0 124 -47.5t14 -132.5l-64 -304h-161l61 291q9 40 -3 57t-56 17q-26 0 -57 -12t-53 -30l-68 -323h-161zM154 -179l23 109h118l-23 -109h-118z" />
    <glyph glyph-name="eng" unicode="&#x14b;" horiz-adv-x="596" 
d="M269 -234q-71 0 -114 20l23 107q14 -5 29.5 -7.5t28.5 -2.5q37 0 56.5 15.5t26.5 46.5l73 346q9 40 -4 57t-57 17q-26 0 -55.5 -12t-51.5 -30l-68 -323h-161l100 474h150l-3 -41q32 20 79.5 35.5t97.5 15.5q92 0 125 -44t13 -136l-79 -373q-16 -73 -68 -119t-141 -46z
" />
    <glyph glyph-name="uni1E49" unicode="&#x1e49;" horiz-adv-x="596" 
d="M-5 0l100 474h150l-3 -41q32 20 79.5 35.5t97.5 15.5q92 0 124 -47.5t14 -132.5l-64 -304h-161l61 291q9 40 -3 57t-56 17q-26 0 -57 -12t-53 -30l-68 -323h-161zM54 -166l21 98h317l-21 -98h-317z" />
    <glyph glyph-name="ntilde" unicode="&#xf1;" horiz-adv-x="596" 
d="M449 532q-31 0 -58 10.5t-52.5 20.5t-51.5 10q-29 0 -54.5 -10t-47.5 -28l23 107q17 14 43.5 23t54.5 9q32 0 57.5 -10t50.5 -20.5t54 -10.5q30 0 54.5 10.5t40.5 28.5l-23 -108q-13 -13 -37.5 -22.5t-53.5 -9.5zM-5 0l100 474h150l-3 -41q32 20 79.5 35.5t97.5 15.5
q92 0 124 -47.5t14 -132.5l-64 -304h-161l61 291q9 40 -3 57t-56 17q-26 0 -57 -12t-53 -30l-68 -323h-161z" />
    <glyph glyph-name="o" unicode="o" horiz-adv-x="597" 
d="M238 -10q-128 0 -183.5 63.5t-30.5 183.5q25 119 100 183t219 64q131 0 186 -64t30 -183q-25 -120 -100 -183.5t-221 -63.5zM265 116q56 0 86 28t44 93t-4 93t-74 28q-55 0 -85 -28t-44 -93t4 -93t73 -28z" />
    <glyph glyph-name="oacute" unicode="&#xf3;" horiz-adv-x="597" 
d="M279 522l126 196h132l-134 -196h-124zM238 -10q-128 0 -183.5 63.5t-30.5 183.5q25 119 100 183t219 64q131 0 186 -64t30 -183q-25 -120 -100 -183.5t-221 -63.5zM265 116q56 0 86 28t44 93t-4 93t-74 28q-55 0 -85 -28t-44 -93t4 -93t73 -28z" />
    <glyph glyph-name="obreve" unicode="&#x14f;" horiz-adv-x="597" 
d="M351 522q-76 0 -114.5 45t-21.5 127h99q-8 -38 1.5 -60t48.5 -22q37 0 58 24t28 58h112q-17 -82 -71.5 -127t-139.5 -45zM238 -10q-128 0 -183.5 63.5t-30.5 183.5q25 119 100 183t219 64q131 0 186 -64t30 -183q-25 -120 -100 -183.5t-221 -63.5zM265 116q56 0 86 28
t44 93t-4 93t-74 28q-55 0 -85 -28t-44 -93t4 -93t73 -28z" />
    <glyph glyph-name="uni01D2" unicode="&#x1d2;" horiz-adv-x="597" 
d="M301 521l-104 187h116l50 -104l97 104h126l-185 -187h-100zM238 -10q-128 0 -183.5 63.5t-30.5 183.5q25 119 100 183t219 64q131 0 186 -64t30 -183q-25 -120 -100 -183.5t-221 -63.5zM265 116q56 0 86 28t44 93t-4 93t-74 28q-55 0 -85 -28t-44 -93t4 -93t73 -28z" />
    <glyph glyph-name="ocircumflex" unicode="&#xf4;" horiz-adv-x="597" 
d="M157 521l184 187h100l105 -187h-114l-53 104l-94 -104h-128zM238 -10q-128 0 -183.5 63.5t-30.5 183.5q25 119 100 183t219 64q131 0 186 -64t30 -183q-25 -120 -100 -183.5t-221 -63.5zM265 116q56 0 86 28t44 93t-4 93t-74 28q-55 0 -85 -28t-44 -93t4 -93t73 -28z" />
    <glyph glyph-name="uni1ED1" unicode="&#x1ed1;" horiz-adv-x="596" 
d="M489 642l99 149h120l-106 -149h-113zM157 521l164 144h121l104 -144h-124l-48 80l-82 -80h-135zM238 -10q-128 0 -183.5 63.5t-30.5 183.5q25 119 100 183t219 64q131 0 186 -64t30 -183q-25 -120 -100 -183.5t-221 -63.5zM265 116q56 0 86 28t44 93t-4 93t-74 28
q-55 0 -85 -28t-44 -93t4 -93t73 -28z" />
    <glyph glyph-name="uni1ED9" unicode="&#x1ed9;" horiz-adv-x="597" 
d="M157 521l184 187h100l105 -187h-114l-53 104l-94 -104h-128zM238 -10q-128 0 -183.5 63.5t-30.5 183.5q25 119 100 183t219 64q131 0 186 -64t30 -183q-25 -120 -100 -183.5t-221 -63.5zM265 116q56 0 86 28t44 93t-4 93t-74 28q-55 0 -85 -28t-44 -93t4 -93t73 -28z
M144 -179l23 109h118l-23 -109h-118z" />
    <glyph glyph-name="uni1ED3" unicode="&#x1ed3;" horiz-adv-x="597" 
d="M150 642l-44 149h120l38 -149h-114zM154 521l164 144h121l104 -144h-124l-48 80l-82 -80h-135zM238 -10q-128 0 -183.5 63.5t-30.5 183.5q25 119 100 183t219 64q131 0 186 -64t30 -183q-25 -120 -100 -183.5t-221 -63.5zM265 116q56 0 86 28t44 93t-4 93t-74 28
q-55 0 -85 -28t-44 -93t4 -93t73 -28z" />
    <glyph glyph-name="uni1ED5" unicode="&#x1ed5;" horiz-adv-x="596" 
d="M492 620l15 71q44 2 60 10.5t19 22.5q6 25 -38 25q-14 0 -28 -2.5t-26 -7.5l14 67q19 5 42 8.5t51 3.5q57 0 81 -22.5t16 -60.5q-7 -34 -29 -55t-62 -27l-7 -33h-108zM155 521l164 144h121l104 -144h-124l-48 80l-82 -80h-135zM238 -10q-128 0 -183.5 63.5t-30.5 183.5
q25 119 100 183t219 64q131 0 186 -64t30 -183q-25 -120 -100 -183.5t-221 -63.5zM265 116q56 0 86 28t44 93t-4 93t-74 28q-55 0 -85 -28t-44 -93t4 -93t73 -28z" />
    <glyph glyph-name="uni1ED7" unicode="&#x1ed7;" horiz-adv-x="597" 
d="M476 680q-30 0 -57 10t-52.5 20t-51.5 10q-57 0 -100 -37l20 91q16 14 42 23t53 9q32 0 57.5 -10t50 -20.5t53.5 -10.5t53 10.5t40 28.5l-20 -92q-12 -13 -35.5 -22.5t-52.5 -9.5zM155 521l164 144h121l104 -144h-124l-48 80l-82 -80h-135zM238 -10q-128 0 -183.5 63.5
t-30.5 183.5q25 119 100 183t219 64q131 0 186 -64t30 -183q-25 -120 -100 -183.5t-221 -63.5zM265 116q56 0 86 28t44 93t-4 93t-74 28q-55 0 -85 -28t-44 -93t4 -93t73 -28z" />
    <glyph glyph-name="odieresis" unicode="&#xf6;" horiz-adv-x="597" 
d="M195 548l24 109h117l-24 -109h-117zM400 548l24 109h118l-24 -109h-118zM238 -10q-128 0 -183.5 63.5t-30.5 183.5q25 119 100 183t219 64q131 0 186 -64t30 -183q-25 -120 -100 -183.5t-221 -63.5zM265 116q56 0 86 28t44 93t-4 93t-74 28q-55 0 -85 -28t-44 -93t4 -93
t73 -28z" />
    <glyph glyph-name="uni1ECD" unicode="&#x1ecd;" horiz-adv-x="597" 
d="M238 -10q-128 0 -183.5 63.5t-30.5 183.5q25 119 100 183t219 64q131 0 186 -64t30 -183q-25 -120 -100 -183.5t-221 -63.5zM265 116q56 0 86 28t44 93t-4 93t-74 28q-55 0 -85 -28t-44 -93t4 -93t73 -28zM144 -179l23 109h118l-23 -109h-118z" />
    <glyph glyph-name="ograve" unicode="&#xf2;" horiz-adv-x="597" 
d="M292 522l-51 196h132l42 -196h-123zM238 -10q-128 0 -183.5 63.5t-30.5 183.5q25 119 100 183t219 64q131 0 186 -64t30 -183q-25 -120 -100 -183.5t-221 -63.5zM265 116q56 0 86 28t44 93t-4 93t-74 28q-55 0 -85 -28t-44 -93t4 -93t73 -28z" />
    <glyph glyph-name="uni1ECF" unicode="&#x1ecf;" horiz-adv-x="597" 
d="M286 521l17 81q54 3 74.5 14.5t24.5 31.5q4 19 -11.5 27.5t-46.5 8.5q-14 0 -31.5 -2.5t-30.5 -6.5l16 72q44 14 110 14t95 -27.5t20 -71.5q-10 -43 -34.5 -64.5t-71.5 -32.5l-9 -44h-122zM238 -10q-128 0 -183.5 63.5t-30.5 183.5q25 119 100 183t219 64q131 0 186 -64
t30 -183q-25 -120 -100 -183.5t-221 -63.5zM265 116q56 0 86 28t44 93t-4 93t-74 28q-55 0 -85 -28t-44 -93t4 -93t73 -28z" />
    <glyph glyph-name="ohorn" unicode="&#x1a1;" horiz-adv-x="706" 
d="M238 -10q-128 0 -183.5 63.5t-30.5 183.5q25 119 100 183t219 64q122 0 179 -57q56 0 83 25.5t39 83.5h115q-21 -101 -67.5 -149.5t-125.5 -61.5q2 -20 0 -42t-7 -46q-25 -120 -100 -183.5t-221 -63.5zM265 116q56 0 86 28t44 93t-4 93t-74 28q-55 0 -85 -28t-44 -93
t4 -93t73 -28z" />
    <glyph glyph-name="uni1EDB" unicode="&#x1edb;" horiz-adv-x="706" 
d="M286 522l126 196h132l-134 -196h-124zM238 -10q-128 0 -183.5 63.5t-30.5 183.5q25 119 100 183t219 64q122 0 179 -57q56 0 83 25.5t39 83.5h115q-21 -101 -67.5 -149.5t-125.5 -61.5q2 -20 0 -42t-7 -46q-25 -120 -100 -183.5t-221 -63.5zM265 116q56 0 86 28t44 93
t-4 93t-74 28q-55 0 -85 -28t-44 -93t4 -93t73 -28z" />
    <glyph glyph-name="uni1EE3" unicode="&#x1ee3;" horiz-adv-x="706" 
d="M238 -10q-128 0 -183.5 63.5t-30.5 183.5q25 119 100 183t219 64q122 0 179 -57q56 0 83 25.5t39 83.5h115q-21 -101 -67.5 -149.5t-125.5 -61.5q2 -20 0 -42t-7 -46q-25 -120 -100 -183.5t-221 -63.5zM265 116q56 0 86 28t44 93t-4 93t-74 28q-55 0 -85 -28t-44 -93
t4 -93t73 -28zM148 -179l23 109h118l-23 -109h-118z" />
    <glyph glyph-name="uni1EDD" unicode="&#x1edd;" horiz-adv-x="706" 
d="M299 522l-51 196h132l42 -196h-123zM238 -10q-128 0 -183.5 63.5t-30.5 183.5q25 119 100 183t219 64q122 0 179 -57q56 0 83 25.5t39 83.5h115q-21 -101 -67.5 -149.5t-125.5 -61.5q2 -20 0 -42t-7 -46q-25 -120 -100 -183.5t-221 -63.5zM265 116q56 0 86 28t44 93
t-4 93t-74 28q-55 0 -85 -28t-44 -93t4 -93t73 -28z" />
    <glyph glyph-name="uni1EDF" unicode="&#x1edf;" horiz-adv-x="706" 
d="M287 521l17 81q54 3 74.5 14.5t24.5 31.5q4 19 -11.5 27.5t-46.5 8.5q-14 0 -31.5 -2.5t-30.5 -6.5l16 72q44 14 110 14t95 -27.5t20 -71.5q-10 -43 -34.5 -64.5t-71.5 -32.5l-9 -44h-122zM238 -10q-128 0 -183.5 63.5t-30.5 183.5q25 119 100 183t219 64q122 0 179 -57
q56 0 83 25.5t39 83.5h115q-21 -101 -67.5 -149.5t-125.5 -61.5q2 -20 0 -42t-7 -46q-25 -120 -100 -183.5t-221 -63.5zM265 116q56 0 86 28t44 93t-4 93t-74 28q-55 0 -85 -28t-44 -93t4 -93t73 -28z" />
    <glyph glyph-name="uni1EE1" unicode="&#x1ee1;" horiz-adv-x="706" 
d="M448 528q-31 0 -58 10.5t-52.5 20.5t-51.5 10q-29 0 -54.5 -10t-47.5 -28l23 107q17 14 43.5 23t54.5 9q32 0 57.5 -10t50.5 -20.5t54 -10.5q30 0 54.5 10.5t40.5 28.5l-23 -108q-13 -13 -37.5 -22.5t-53.5 -9.5zM238 -10q-128 0 -183.5 63.5t-30.5 183.5q25 119 100 183
t219 64q122 0 179 -57q56 0 83 25.5t39 83.5h115q-21 -101 -67.5 -149.5t-125.5 -61.5q2 -20 0 -42t-7 -46q-25 -120 -100 -183.5t-221 -63.5zM265 116q56 0 86 28t44 93t-4 93t-74 28q-55 0 -85 -28t-44 -93t4 -93t73 -28z" />
    <glyph glyph-name="ohungarumlaut" unicode="&#x151;" horiz-adv-x="597" 
d="M156 521l120 180h138l-134 -180h-124zM386 521l120 180h139l-135 -180h-124zM238 -10q-128 0 -183.5 63.5t-30.5 183.5q25 119 100 183t219 64q131 0 186 -64t30 -183q-25 -120 -100 -183.5t-221 -63.5zM265 116q56 0 86 28t44 93t-4 93t-74 28q-55 0 -85 -28t-44 -93
t4 -93t73 -28z" />
    <glyph glyph-name="omacron" unicode="&#x14d;" horiz-adv-x="597" 
d="M197 557l21 97h317l-21 -97h-317zM238 -10q-128 0 -183.5 63.5t-30.5 183.5q25 119 100 183t219 64q131 0 186 -64t30 -183q-25 -120 -100 -183.5t-221 -63.5zM265 116q56 0 86 28t44 93t-4 93t-74 28q-55 0 -85 -28t-44 -93t4 -93t73 -28z" />
    <glyph glyph-name="oslash" unicode="&#xf8;" horiz-adv-x="597" 
d="M72 -53l39 65q-123 55 -87 225q25 119 100 183t219 64q25 0 49 -3l28 47h87l-40 -66q127 -53 92 -225q-25 -120 -100 -183.5t-221 -63.5q-27 0 -53 3l-27 -46h-86zM191 145l127 213h-1q-55 0 -85 -28t-44 -93q-15 -63 3 -92zM259 116h6q56 0 86 28t44 93q14 67 -6 95z
" />
    <glyph glyph-name="oslashacute" unicode="&#x1ff;" horiz-adv-x="597" 
d="M249 522l126 196h132l-134 -196h-124zM72 -53l39 65q-123 55 -87 225q25 119 100 183t219 64q25 0 49 -3l28 47h87l-40 -66q127 -53 92 -225q-25 -120 -100 -183.5t-221 -63.5q-27 0 -53 3l-27 -46h-86zM191 145l127 213h-1q-55 0 -85 -28t-44 -93q-15 -63 3 -92z
M259 116h6q56 0 86 28t44 93q14 67 -6 95z" />
    <glyph glyph-name="otilde" unicode="&#xf5;" horiz-adv-x="597" 
d="M447 544q-31 0 -58 10.5t-52.5 20.5t-51.5 10q-29 0 -54.5 -10t-47.5 -28l23 107q17 14 43.5 23t54.5 9q32 0 57.5 -10t50.5 -20.5t54 -10.5q30 0 54.5 10.5t40.5 28.5l-23 -108q-13 -13 -37.5 -22.5t-53.5 -9.5zM238 -10q-128 0 -183.5 63.5t-30.5 183.5q25 119 100 183
t219 64q131 0 186 -64t30 -183q-25 -120 -100 -183.5t-221 -63.5zM265 116q56 0 86 28t44 93t-4 93t-74 28q-55 0 -85 -28t-44 -93t4 -93t73 -28z" />
    <glyph glyph-name="oe" unicode="&#x153;" horiz-adv-x="931" 
d="M238 -10q-128 0 -183.5 63.5t-30.5 183.5q25 119 100 183t219 64q60 0 99 -14.5t67 -39.5q34 25 84.5 39.5t114.5 14.5q72 0 119.5 -28.5t66.5 -76.5t6 -109l-18 -85h-336q1 -47 33 -65.5t111 -18.5q39 0 81 7t71 18l-22 -105q-37 -16 -86 -23.5t-105 -7.5
q-55 0 -101 14.5t-77 43.5q-38 -28 -90.5 -43t-122.5 -15zM566 278h196l4 21q8 35 -9 55.5t-67 20.5q-58 0 -85.5 -23.5t-38.5 -73.5zM265 116q56 0 86 28t44 93t-4 93t-74 28q-55 0 -85 -28t-44 -93t4 -93t73 -28z" />
    <glyph glyph-name="p" unicode="p" horiz-adv-x="599" 
d="M-51 -216l146 690h140v-41q34 24 72.5 37.5t86.5 13.5q105 0 148 -62.5t19 -184.5q-25 -128 -95 -187.5t-185 -59.5q-74 0 -121 31l-50 -237h-161zM265 108q51 0 84.5 31t48.5 101q14 68 -4 97t-71 29q-27 0 -50.5 -9t-46.5 -27l-41 -192q14 -15 32.5 -22.5t47.5 -7.5z
" />
    <glyph glyph-name="thorn" unicode="&#xfe;" horiz-adv-x="599" 
d="M-51 -216l194 916h161l-52 -248q29 16 64.5 24t72.5 8q64 0 109 -26t63 -80.5t0 -140.5q-27 -127 -94 -187t-186 -60q-74 0 -121 31l-50 -237h-161zM265 108q51 0 84.5 31t48.5 101q14 68 -1.5 97t-73.5 29q-27 0 -50.5 -9t-46.5 -27l-41 -192q16 -14 33.5 -22t46.5 -8z
" />
    <glyph glyph-name="q" unicode="q" horiz-adv-x="592" 
d="M426 -242q-71 0 -101.5 38t-15.5 110l24 115q-59 -31 -135 -31q-100 0 -149.5 61t-24.5 186q26 128 93.5 187.5t179.5 59.5q48 0 80 -13.5t57 -37.5l17 41h139l-117 -551q-6 -28 2 -37.5t33 -9.5q23 0 45 8l-23 -109q-25 -9 -47 -13t-57 -4zM263 108q29 0 51.5 8t43.5 22
l41 192q-16 18 -35 27t-46 9q-52 0 -83.5 -29t-45.5 -97q-15 -70 4.5 -101t69.5 -31z" />
    <glyph glyph-name="r" unicode="r" horiz-adv-x="389" 
d="M-5 0l100 474h153l-4 -44q35 19 84 34.5t96 19.5l-25 -121q-27 -3 -60 -9.5t-63.5 -15.5t-52.5 -19l-67 -319h-161z" />
    <glyph glyph-name="racute" unicode="&#x155;" horiz-adv-x="390" 
d="M136 522l126 196h132l-134 -196h-124zM-5 0l100 474h153l-4 -44q35 19 84 34.5t96 19.5l-25 -121q-27 -3 -60 -9.5t-63.5 -15.5t-52.5 -19l-67 -319h-161z" />
    <glyph glyph-name="rcaron" unicode="&#x159;" horiz-adv-x="389" 
d="M151 521l-104 187h116l50 -104l97 104h126l-185 -187h-100zM-6 0l100 474h153l-4 -44q35 19 84 34.5t96 19.5l-25 -121q-27 -3 -60 -9.5t-63.5 -15.5t-52.5 -19l-67 -319h-161z" />
    <glyph glyph-name="uni0157" unicode="&#x157;" horiz-adv-x="393" 
d="M-2 0l100 474h153l-4 -44q35 19 84 34.5t96 19.5l-25 -121q-27 -3 -60 -9.5t-63.5 -15.5t-52.5 -19l-67 -319h-161zM-76 -250l78 213h129l-99 -213h-108z" />
    <glyph glyph-name="uni1E5B" unicode="&#x1e5b;" horiz-adv-x="390" 
d="M-5 0l100 474h153l-4 -44q35 19 84 34.5t96 19.5l-25 -121q-27 -3 -60 -9.5t-63.5 -15.5t-52.5 -19l-67 -319h-161zM-17 -179l23 109h118l-23 -109h-118z" />
    <glyph glyph-name="uni1E5D" unicode="&#x1e5d;" horiz-adv-x="389" 
d="M68 551l21 97h317l-21 -97h-317zM-6 0l100 474h153l-4 -44q35 19 84 34.5t96 19.5l-25 -121q-27 -3 -60 -9.5t-63.5 -15.5t-52.5 -19l-67 -319h-161zM-18 -179l23 109h118l-23 -109h-118z" />
    <glyph glyph-name="uni1E5F" unicode="&#x1e5f;" horiz-adv-x="389" 
d="M-6 0l100 474h153l-4 -44q35 19 84 34.5t96 19.5l-25 -121q-27 -3 -60 -9.5t-63.5 -15.5t-52.5 -19l-67 -319h-161zM-114 -166l21 98h317l-21 -98h-317z" />
    <glyph glyph-name="s" unicode="s" horiz-adv-x="479" 
d="M167 -10q-57 0 -106 8t-77 20l26 123q32 -15 76.5 -23t80.5 -8q43 0 63 4t24 22q5 20 -25 30t-82 29q-61 23 -87.5 53.5t-13.5 90.5q14 70 71.5 107.5t178.5 37.5q45 0 88 -7t68 -16l-25 -121q-26 13 -60.5 19t-63.5 6q-37 0 -63.5 -4.5t-29.5 -21.5q-4 -19 22 -26.5
t76 -24.5q52 -17 79 -36.5t34.5 -46.5t-1.5 -68q-16 -71 -74.5 -109t-178.5 -38z" />
    <glyph glyph-name="sacute" unicode="&#x15b;" horiz-adv-x="479" 
d="M216 522l126 196h132l-134 -196h-124zM167 -10q-57 0 -106 8t-77 20l26 123q32 -15 76.5 -23t80.5 -8q43 0 63 4t24 22q5 20 -25 30t-82 29q-61 23 -87.5 53.5t-13.5 90.5q14 70 71.5 107.5t178.5 37.5q45 0 88 -7t68 -16l-25 -121q-26 13 -60.5 19t-63.5 6
q-37 0 -63.5 -4.5t-29.5 -21.5q-4 -19 22 -26.5t76 -24.5q52 -17 79 -36.5t34.5 -46.5t-1.5 -68q-16 -71 -74.5 -109t-178.5 -38z" />
    <glyph glyph-name="scaron" unicode="&#x161;" horiz-adv-x="479" 
d="M232 521l-104 187h116l50 -104l97 104h126l-185 -187h-100zM167 -10q-57 0 -106 8t-77 20l26 123q32 -15 76.5 -23t80.5 -8q43 0 63 4t24 22q5 20 -25 30t-82 29q-61 23 -87.5 53.5t-13.5 90.5q14 70 71.5 107.5t178.5 37.5q45 0 88 -7t68 -16l-25 -121q-26 13 -60.5 19
t-63.5 6q-37 0 -63.5 -4.5t-29.5 -21.5q-4 -19 22 -26.5t76 -24.5q52 -17 79 -36.5t34.5 -46.5t-1.5 -68q-16 -71 -74.5 -109t-178.5 -38z" />
    <glyph glyph-name="scedilla" unicode="&#x15f;" horiz-adv-x="479" 
d="M110 -240q-17 0 -41.5 2.5t-35.5 5.5l15 71q27 -8 59 -8q41 0 60 6.5t23 28.5q5 23 -12 28.5t-46 5.5h-54l45 91q-91 6 -139 27l26 123q32 -15 76.5 -23t80.5 -8q43 0 63 4t24 22q5 20 -25 30t-82 29q-61 23 -87.5 53.5t-13.5 90.5q14 70 71.5 107.5t178.5 37.5
q45 0 88 -7t68 -16l-25 -121q-26 13 -60.5 19t-63.5 6q-37 0 -63.5 -4.5t-29.5 -21.5q-4 -19 22 -26.5t76 -24.5q52 -17 79 -36.5t34.5 -46.5t-1.5 -68q-14 -63 -61 -100t-140 -45l-20 -35q56 0 77 -25.5t13 -67.5q-10 -49 -54.5 -76.5t-124.5 -27.5z" />
    <glyph glyph-name="scircumflex" unicode="&#x15d;" horiz-adv-x="479" 
d="M87 522l184 187h100l105 -187h-114l-53 104l-94 -104h-128zM167 -10q-57 0 -106 8t-77 20l26 123q32 -15 76.5 -23t80.5 -8q43 0 63 4t24 22q5 20 -25 30t-82 29q-61 23 -87.5 53.5t-13.5 90.5q14 70 71.5 107.5t178.5 37.5q45 0 88 -7t68 -16l-25 -121q-26 13 -60.5 19
t-63.5 6q-37 0 -63.5 -4.5t-29.5 -21.5q-4 -19 22 -26.5t76 -24.5q52 -17 79 -36.5t34.5 -46.5t-1.5 -68q-16 -71 -74.5 -109t-178.5 -38z" />
    <glyph glyph-name="uni0219" unicode="&#x219;" horiz-adv-x="479" 
d="M167 -10q-57 0 -106 8t-77 20l26 123q32 -15 76.5 -23t80.5 -8q43 0 63 4t24 22q5 20 -25 30t-82 29q-61 23 -87.5 53.5t-13.5 90.5q14 70 71.5 107.5t178.5 37.5q45 0 88 -7t68 -16l-25 -121q-26 13 -60.5 19t-63.5 6q-37 0 -63.5 -4.5t-29.5 -21.5q-4 -19 22 -26.5
t76 -24.5q52 -17 79 -36.5t34.5 -46.5t-1.5 -68q-16 -71 -74.5 -109t-178.5 -38zM44 -231l70 186h132l-84 -186h-118z" />
    <glyph glyph-name="uni1E61" unicode="&#x1e61;" horiz-adv-x="479" 
d="M231 548l24 109h117l-24 -109h-117zM167 -10q-57 0 -106 8t-77 20l26 123q32 -15 76.5 -23t80.5 -8q43 0 63 4t24 22q5 20 -25 30t-82 29q-61 23 -87.5 53.5t-13.5 90.5q14 70 71.5 107.5t178.5 37.5q45 0 88 -7t68 -16l-25 -121q-26 13 -60.5 19t-63.5 6
q-37 0 -63.5 -4.5t-29.5 -21.5q-4 -19 22 -26.5t76 -24.5q52 -17 79 -36.5t34.5 -46.5t-1.5 -68q-16 -71 -74.5 -109t-178.5 -38z" />
    <glyph glyph-name="uni1E63" unicode="&#x1e63;" horiz-adv-x="479" 
d="M167 -10q-57 0 -106 8t-77 20l26 123q32 -15 76.5 -23t80.5 -8q43 0 63 4t24 22q5 20 -25 30t-82 29q-61 23 -87.5 53.5t-13.5 90.5q14 70 71.5 107.5t178.5 37.5q45 0 88 -7t68 -16l-25 -121q-26 13 -60.5 19t-63.5 6q-37 0 -63.5 -4.5t-29.5 -21.5q-4 -19 22 -26.5
t76 -24.5q52 -17 79 -36.5t34.5 -46.5t-1.5 -68q-16 -71 -74.5 -109t-178.5 -38zM93 -179l23 109h118l-23 -109h-118z" />
    <glyph glyph-name="germandbls" unicode="&#xdf;" horiz-adv-x="640" 
d="M336 -10q-82 0 -135 22l27 129q41 -19 99 -19q40 0 67.5 19.5t35.5 56.5q9 44 -10 62t-69 18h-68l24 117h61q44 0 67 21.5t32 63.5q5 23 0.5 41.5t-24.5 29.5t-62 11q-56 0 -90 -28t-48 -92l-93 -442h-161l95 448q28 133 104.5 192.5t218.5 59.5q84 0 138 -31t76 -80.5
t10 -105.5q-11 -52 -39 -89.5t-64 -55.5q41 -16 58.5 -54.5t5.5 -94.5q-20 -93 -83 -146t-173 -53z" />
    <glyph glyph-name="t" unicode="t" horiz-adv-x="375" 
d="M187 -10q-81 0 -116 45t-19 124l41 193h-64l26 122h64l21 99l170 43l-30 -142h115l-33 -122h-108l-38 -182q-7 -34 2.5 -47.5t49.5 -13.5q31 0 64 10l-23 -109q-51 -20 -122 -20z" />
    <glyph glyph-name="tbar" unicode="&#x167;" horiz-adv-x="375" 
d="M187 -10q-88 0 -119.5 45t-15.5 124l7 32h-64l21 99h64l13 62h-64l26 122h64l21 99l171 43l-30 -142h114l-33 -122h-107l-13 -62h115l-21 -99h-115l-4 -21q-7 -34 6.5 -47.5t47.5 -13.5q28 0 61 10l-23 -109q-51 -20 -122 -20z" />
    <glyph glyph-name="tcaron" unicode="&#x165;" horiz-adv-x="405" 
d="M390 558l78 213h129l-99 -213h-108zM187 -10q-81 0 -116 45t-19 124l41 193h-64l26 122h64l21 99l170 43l-30 -142h115l-33 -122h-108l-38 -182q-7 -34 2.5 -47.5t49.5 -13.5q31 0 64 10l-23 -109q-51 -20 -122 -20z" />
    <glyph glyph-name="uni0163" unicode="&#x163;" horiz-adv-x="390" 
d="M122 -240q-17 0 -41.5 2.5t-35.5 5.5l15 71q27 -8 59 -8q41 0 60 6.5t23 28.5q5 23 -12 28.5t-46 5.5h-54l47 96q-55 13 -77 55.5t-8 107.5l41 193h-64l26 122h64l21 99l170 43l-30 -142h115l-33 -122h-108l-38 -182q-7 -34 2.5 -47.5t49.5 -13.5q31 0 64 10l-23 -109
q-18 -7 -37 -11.5t-41 -6.5l-20 -35q56 0 77 -25.5t13 -67.5q-10 -49 -54.5 -76.5t-124.5 -27.5z" />
    <glyph glyph-name="uni021B" unicode="&#x21b;" horiz-adv-x="375" 
d="M187 -10q-81 0 -116 45t-19 124l41 193h-64l26 122h64l21 99l170 43l-30 -142h115l-33 -122h-108l-38 -182q-7 -34 2.5 -47.5t49.5 -13.5q31 0 64 10l-23 -109q-51 -20 -122 -20zM25 -258l78 213h129l-99 -213h-108z" />
    <glyph glyph-name="uni1E97" unicode="&#x1e97;" horiz-adv-x="376" 
d="M97 642l24 109h117l-24 -109h-117zM302 642l24 109h118l-24 -109h-118zM187 -10q-81 0 -116 45t-19 124l41 193h-64l26 122h64l21 99l170 43l-30 -142h115l-33 -122h-108l-38 -182q-7 -34 2.5 -47.5t49.5 -13.5q31 0 64 10l-23 -109q-51 -20 -122 -20z" />
    <glyph glyph-name="uni1E6D" unicode="&#x1e6d;" horiz-adv-x="375" 
d="M187 -10q-81 0 -116 45t-19 124l41 193h-64l26 122h64l21 99l170 43l-30 -142h115l-33 -122h-108l-38 -182q-7 -34 2.5 -47.5t49.5 -13.5q31 0 64 10l-23 -109q-51 -20 -122 -20zM63 -174l23 109h118l-23 -109h-118z" />
    <glyph glyph-name="uni1E6F" unicode="&#x1e6f;" horiz-adv-x="375" 
d="M187 -10q-81 0 -116 45t-19 124l41 193h-64l26 122h64l21 99l170 43l-30 -142h115l-33 -122h-108l-38 -182q-7 -34 2.5 -47.5t49.5 -13.5q31 0 64 10l-23 -109q-51 -20 -122 -20zM-54 -161l21 98h317l-21 -98h-317z" />
    <glyph glyph-name="u" unicode="u" horiz-adv-x="596" 
d="M165 -10q-78 0 -117.5 49t-20.5 137l63 298h161l-61 -289q-9 -40 4.5 -58.5t56.5 -18.5q29 0 57.5 12t49.5 30l69 324h161l-100 -474h-150l3 40q-34 -22 -78 -36t-98 -14z" />
    <glyph glyph-name="uacute" unicode="&#xfa;" horiz-adv-x="596" 
d="M270 522l126 196h132l-134 -196h-124zM165 -10q-78 0 -117.5 49t-20.5 137l63 298h161l-61 -289q-9 -40 4.5 -58.5t56.5 -18.5q29 0 57.5 12t49.5 30l69 324h161l-100 -474h-150l3 40q-34 -22 -78 -36t-98 -14z" />
    <glyph glyph-name="ubreve" unicode="&#x16d;" horiz-adv-x="596" 
d="M353 522q-76 0 -114.5 45t-21.5 127h99q-8 -38 1.5 -60t48.5 -22q37 0 58 24t28 58h112q-17 -82 -71.5 -127t-139.5 -45zM165 -10q-78 0 -117.5 49t-20.5 137l63 298h161l-61 -289q-9 -40 4.5 -58.5t56.5 -18.5q29 0 57.5 12t49.5 30l69 324h161l-100 -474h-150l3 40
q-34 -22 -78 -36t-98 -14z" />
    <glyph glyph-name="uni01D4" unicode="&#x1d4;" horiz-adv-x="596" 
d="M300 521l-104 187h116l50 -104l97 104h126l-185 -187h-100zM165 -10q-78 0 -117.5 49t-20.5 137l63 298h161l-61 -289q-9 -40 4.5 -58.5t56.5 -18.5q29 0 57.5 12t49.5 30l69 324h161l-100 -474h-150l3 40q-34 -22 -78 -36t-98 -14z" />
    <glyph glyph-name="ucircumflex" unicode="&#xfb;" horiz-adv-x="596" 
d="M154 521l184 187h100l105 -187h-114l-53 104l-94 -104h-128zM165 -10q-78 0 -117.5 49t-20.5 137l63 298h161l-61 -289q-9 -40 4.5 -58.5t56.5 -18.5q29 0 57.5 12t49.5 30l69 324h161l-100 -474h-150l3 40q-34 -22 -78 -36t-98 -14z" />
    <glyph glyph-name="udieresis" unicode="&#xfc;" horiz-adv-x="596" 
d="M193 548l24 109h117l-24 -109h-117zM398 548l24 109h118l-24 -109h-118zM165 -10q-78 0 -117.5 49t-20.5 137l63 298h161l-61 -289q-9 -40 4.5 -58.5t56.5 -18.5q29 0 57.5 12t49.5 30l69 324h161l-100 -474h-150l3 40q-34 -22 -78 -36t-98 -14z" />
    <glyph glyph-name="uni01D8" unicode="&#x1d8;" horiz-adv-x="596" 
d="M312 656l87 133h121l-97 -133h-111zM183 530l22 103h114l-22 -103h-114zM391 530l22 103h114l-22 -103h-114zM165 -10q-78 0 -117.5 49t-20.5 137l63 298h161l-61 -289q-9 -40 4.5 -58.5t56.5 -18.5q29 0 57.5 12t49.5 30l69 324h161l-100 -474h-150l3 40
q-34 -22 -78 -36t-98 -14z" />
    <glyph glyph-name="uni01DA" unicode="&#x1da;" horiz-adv-x="596" 
d="M323 647l-93 127h113l42 -73l72 73h122l-145 -127h-111zM190 523l22 103h114l-22 -103h-114zM398 523l22 103h113l-22 -103h-113zM165 -10q-78 0 -117.5 49t-20.5 137l63 298h161l-61 -289q-9 -40 4.5 -58.5t56.5 -18.5q29 0 57.5 12t49.5 30l69 324h161l-100 -474h-150
l3 40q-34 -22 -78 -36t-98 -14z" />
    <glyph glyph-name="uni01DC" unicode="&#x1dc;" horiz-adv-x="596" 
d="M328 656l-39 133h121l29 -133h-111zM194 530l22 103h114l-22 -103h-114zM402 530l22 103h114l-22 -103h-114zM165 -10q-78 0 -117.5 49t-20.5 137l63 298h161l-61 -289q-9 -40 4.5 -58.5t56.5 -18.5q29 0 57.5 12t49.5 30l69 324h161l-100 -474h-150l3 40
q-34 -22 -78 -36t-98 -14z" />
    <glyph glyph-name="uni01D6" unicode="&#x1d6;" horiz-adv-x="596" 
d="M231 689l21 97h317l-21 -97h-317zM191 530l24 109h117l-24 -109h-117zM396 530l24 109h118l-24 -109h-118zM165 -10q-78 0 -117.5 49t-20.5 137l63 298h161l-61 -289q-9 -40 4.5 -58.5t56.5 -18.5q29 0 57.5 12t49.5 30l69 324h161l-100 -474h-150l3 40q-34 -22 -78 -36
t-98 -14z" />
    <glyph glyph-name="uni1EE5" unicode="&#x1ee5;" horiz-adv-x="596" 
d="M165 -10q-78 0 -117.5 49t-20.5 137l63 298h161l-61 -289q-9 -40 4.5 -58.5t56.5 -18.5q29 0 57.5 12t49.5 30l69 324h161l-100 -474h-150l3 40q-34 -22 -78 -36t-98 -14zM139 -179l23 109h118l-23 -109h-118z" />
    <glyph glyph-name="ugrave" unicode="&#xf9;" horiz-adv-x="596" 
d="M304 522l-51 196h132l42 -196h-123zM165 -10q-78 0 -117.5 49t-20.5 137l63 298h161l-61 -289q-9 -40 4.5 -58.5t56.5 -18.5q29 0 57.5 12t49.5 30l69 324h161l-100 -474h-150l3 40q-34 -22 -78 -36t-98 -14z" />
    <glyph glyph-name="uni1EE7" unicode="&#x1ee7;" horiz-adv-x="596" 
d="M289 521l17 81q54 3 74.5 14.5t24.5 31.5q4 19 -11.5 27.5t-46.5 8.5q-14 0 -31.5 -2.5t-30.5 -6.5l16 72q44 14 110 14t95 -27.5t20 -71.5q-10 -43 -34.5 -64.5t-71.5 -32.5l-9 -44h-122zM165 -10q-78 0 -117.5 49t-20.5 137l63 298h161l-61 -289q-9 -40 4.5 -58.5
t56.5 -18.5q29 0 57.5 12t49.5 30l69 324h161l-100 -474h-150l3 40q-34 -22 -78 -36t-98 -14z" />
    <glyph glyph-name="uhorn" unicode="&#x1b0;" horiz-adv-x="745" 
d="M165 -10q-78 0 -117.5 49t-20.5 137l63 298h161l-61 -289q-9 -40 4.5 -58.5t56.5 -18.5q29 0 57.5 12t49.5 30l69 324h161l-10 -46q46 4 68 28t32 80h115q-16 -76 -45.5 -122t-76.5 -67.5t-116 -25.5l-67 -321h-150l3 40q-34 -22 -78 -36t-98 -14z" />
    <glyph glyph-name="uni1EE9" unicode="&#x1ee9;" horiz-adv-x="745" 
d="M281 522l126 196h132l-134 -196h-124zM165 -10q-78 0 -117.5 49t-20.5 137l63 298h161l-61 -289q-9 -40 4.5 -58.5t56.5 -18.5q29 0 57.5 12t49.5 30l69 324h161l-10 -46q46 4 68 28t32 80h115q-16 -76 -45.5 -122t-76.5 -67.5t-116 -25.5l-67 -321h-150l3 40
q-34 -22 -78 -36t-98 -14z" />
    <glyph glyph-name="uni1EF1" unicode="&#x1ef1;" horiz-adv-x="745" 
d="M165 -10q-78 0 -117.5 49t-20.5 137l63 298h161l-61 -289q-9 -40 4.5 -58.5t56.5 -18.5q29 0 57.5 12t49.5 30l69 324h161l-10 -46q46 4 68 28t32 80h115q-16 -76 -45.5 -122t-76.5 -67.5t-116 -25.5l-67 -321h-150l3 40q-34 -22 -78 -36t-98 -14zM143 -179l23 109h118
l-23 -109h-118z" />
    <glyph glyph-name="uni1EEB" unicode="&#x1eeb;" horiz-adv-x="745" 
d="M280 522l-51 196h132l42 -196h-123zM165 -10q-78 0 -117.5 49t-20.5 137l63 298h161l-61 -289q-9 -40 4.5 -58.5t56.5 -18.5q29 0 57.5 12t49.5 30l69 324h161l-10 -46q46 4 68 28t32 80h115q-16 -76 -45.5 -122t-76.5 -67.5t-116 -25.5l-67 -321h-150l3 40
q-34 -22 -78 -36t-98 -14z" />
    <glyph glyph-name="uni1EED" unicode="&#x1eed;" horiz-adv-x="745" 
d="M276 521l17 81q54 3 74.5 14.5t24.5 31.5q4 19 -11.5 27.5t-46.5 8.5q-14 0 -31.5 -2.5t-30.5 -6.5l16 72q44 14 110 14t95 -27.5t20 -71.5q-10 -43 -34.5 -64.5t-71.5 -32.5l-9 -44h-122zM165 -10q-78 0 -117.5 49t-20.5 137l63 298h161l-61 -289q-9 -40 4.5 -58.5
t56.5 -18.5q29 0 57.5 12t49.5 30l69 324h161l-10 -46q46 4 68 28t32 80h115q-16 -76 -45.5 -122t-76.5 -67.5t-116 -25.5l-67 -321h-150l3 40q-34 -22 -78 -36t-98 -14z" />
    <glyph glyph-name="uni1EEF" unicode="&#x1eef;" horiz-adv-x="745" 
d="M446 528q-31 0 -58 10.5t-52.5 20.5t-51.5 10q-29 0 -54.5 -10t-47.5 -28l23 107q17 14 43.5 23t54.5 9q32 0 57.5 -10t50.5 -20.5t54 -10.5q30 0 54.5 10.5t40.5 28.5l-23 -108q-13 -13 -37.5 -22.5t-53.5 -9.5zM165 -10q-78 0 -117.5 49t-20.5 137l63 298h161l-61 -289
q-9 -40 4.5 -58.5t56.5 -18.5q29 0 57.5 12t49.5 30l69 324h161l-10 -46q46 4 68 28t32 80h115q-16 -76 -45.5 -122t-76.5 -67.5t-116 -25.5l-67 -321h-150l3 40q-34 -22 -78 -36t-98 -14z" />
    <glyph glyph-name="uhungarumlaut" unicode="&#x171;" horiz-adv-x="596" 
d="M138 521l120 180h138l-134 -180h-124zM368 521l120 180h139l-135 -180h-124zM165 -10q-78 0 -117.5 49t-20.5 137l63 298h161l-61 -289q-9 -40 4.5 -58.5t56.5 -18.5q29 0 57.5 12t49.5 30l69 324h161l-100 -474h-150l3 40q-34 -22 -78 -36t-98 -14z" />
    <glyph glyph-name="umacron" unicode="&#x16b;" horiz-adv-x="596" 
d="M200 557l21 97h317l-21 -97h-317zM165 -10q-78 0 -117.5 49t-20.5 137l63 298h161l-61 -289q-9 -40 4.5 -58.5t56.5 -18.5q29 0 57.5 12t49.5 30l69 324h161l-100 -474h-150l3 40q-34 -22 -78 -36t-98 -14z" />
    <glyph glyph-name="uogonek" unicode="&#x173;" horiz-adv-x="610" 
d="M362 -220q-51 0 -82 22.5t-21 71.5q8 38 32.5 73.5t49.5 52.5l3 40q-34 -22 -79.5 -36t-99.5 -14q-78 0 -117.5 49t-20.5 137l63 298h161l-61 -289q-9 -40 4.5 -58.5t56.5 -18.5q29 0 57.5 12t49.5 30l69 324h161l-100 -474q-42 -17 -68 -43.5t-32 -53.5q-4 -20 6 -29
t29 -9q13 0 27.5 3t24.5 8l-17 -81q-16 -6 -42 -10.5t-54 -4.5z" />
    <glyph glyph-name="uring" unicode="&#x16f;" horiz-adv-x="596" 
d="M349 521q-61 0 -88 36.5t-16 88.5q11 53 52 89.5t105 36.5q63 0 89.5 -36.5t15.5 -89.5q-11 -52 -51 -88.5t-107 -36.5zM364 591q28 0 46.5 16t22.5 39q5 23 -4 39.5t-42 16.5q-26 0 -45 -16.5t-24 -39.5q-4 -23 5.5 -39t40.5 -16zM165 -10q-78 0 -117.5 49t-20.5 137
l63 298h161l-61 -289q-9 -40 4.5 -58.5t56.5 -18.5q29 0 57.5 12t49.5 30l69 324h161l-100 -474h-150l3 40q-34 -22 -78 -36t-98 -14z" />
    <glyph glyph-name="utilde" unicode="&#x169;" horiz-adv-x="596" 
d="M445 532q-31 0 -58 10.5t-52.5 20.5t-51.5 10q-29 0 -54.5 -10t-47.5 -28l23 107q17 14 43.5 23t54.5 9q32 0 57.5 -10t50.5 -20.5t54 -10.5q30 0 54.5 10.5t40.5 28.5l-23 -108q-13 -13 -37.5 -22.5t-53.5 -9.5zM165 -10q-78 0 -117.5 49t-20.5 137l63 298h161l-61 -289
q-9 -40 4.5 -58.5t56.5 -18.5q29 0 57.5 12t49.5 30l69 324h161l-100 -474h-150l3 40q-34 -22 -78 -36t-98 -14z" />
    <glyph glyph-name="v" unicode="v" horiz-adv-x="607" 
d="M162 0l-87 474h163l39 -308l170 308h173l-287 -474h-171z" />
    <glyph glyph-name="w" unicode="w" horiz-adv-x="770" 
d="M100 0l-25 474h158l6 -272l111 207l14 65h121l20 -272l120 272h158l-225 -474h-140l-29 246l-135 -246h-154z" />
    <glyph glyph-name="wacute" unicode="&#x1e83;" horiz-adv-x="770" 
d="M371 522l126 196h132l-134 -196h-124zM100 0l-25 474h158l6 -272l111 207l14 65h121l20 -272l120 272h158l-225 -474h-140l-29 246l-135 -246h-154z" />
    <glyph glyph-name="wcircumflex" unicode="&#x175;" horiz-adv-x="770" 
d="M247 521l184 187h100l105 -187h-114l-53 104l-94 -104h-128zM100 0l-25 474h158l6 -272l111 207l14 65h121l20 -272l120 272h158l-225 -474h-140l-29 246l-135 -246h-154z" />
    <glyph glyph-name="wdieresis" unicode="&#x1e85;" horiz-adv-x="770" 
d="M285 549l24 109h117l-24 -109h-117zM490 549l24 109h118l-24 -109h-118zM100 0l-25 474h158l6 -272l111 207l14 65h121l20 -272l120 272h158l-225 -474h-140l-29 246l-135 -246h-154z" />
    <glyph glyph-name="wgrave" unicode="&#x1e81;" horiz-adv-x="770" 
d="M371 522l-51 196h132l42 -196h-123zM100 0l-25 474h158l6 -272l111 207l14 65h121l20 -272l120 272h158l-225 -474h-140l-29 246l-135 -246h-154z" />
    <glyph glyph-name="x" unicode="x" horiz-adv-x="592" 
d="M-31 0l233 241l-126 233h175l63 -119l113 119h175l-224 -233l131 -241h-176l-68 125l-120 -125h-176z" />
    <glyph glyph-name="y" unicode="y" horiz-adv-x="601" 
d="M151 -176q-21 0 -46.5 1.5t-48 3.5t-35.5 5l26 119q19 -6 50 -9.5t53 -3.5q95 0 139 19.5t53 60.5l4 20q-34 -22 -77.5 -36t-97.5 -14q-49 0 -84.5 23.5t-50 65.5t-3.5 97l63 298h161l-61 -289q-9 -44 2 -60.5t59 -16.5q29 0 57.5 12t49.5 30l69 324h161l-91 -431
q-22 -106 -104 -162.5t-248 -56.5z" />
    <glyph glyph-name="yacute" unicode="&#xfd;" horiz-adv-x="601" 
d="M286 522l126 196h132l-134 -196h-124zM151 -176q-21 0 -46.5 1.5t-48 3.5t-35.5 5l26 119q19 -6 50 -9.5t53 -3.5q95 0 139 19.5t53 60.5l4 20q-34 -22 -77.5 -36t-97.5 -14q-49 0 -84.5 23.5t-50 65.5t-3.5 97l63 298h161l-61 -289q-9 -44 2 -60.5t59 -16.5
q29 0 57.5 12t49.5 30l69 324h161l-91 -431q-22 -106 -104 -162.5t-248 -56.5z" />
    <glyph glyph-name="ycircumflex" unicode="&#x177;" horiz-adv-x="601" 
d="M171 521l184 187h100l105 -187h-114l-53 104l-94 -104h-128zM151 -176q-21 0 -46.5 1.5t-48 3.5t-35.5 5l26 119q19 -6 50 -9.5t53 -3.5q95 0 139 19.5t53 60.5l4 20q-34 -22 -77.5 -36t-97.5 -14q-49 0 -84.5 23.5t-50 65.5t-3.5 97l63 298h161l-61 -289q-9 -44 2 -60.5
t59 -16.5q29 0 57.5 12t49.5 30l69 324h161l-91 -431q-22 -106 -104 -162.5t-248 -56.5z" />
    <glyph glyph-name="ydieresis" unicode="&#xff;" horiz-adv-x="601" 
d="M204 565l24 109h117l-24 -109h-117zM409 565l24 109h118l-24 -109h-118zM151 -176q-21 0 -46.5 1.5t-48 3.5t-35.5 5l26 119q19 -6 50 -9.5t53 -3.5q95 0 139 19.5t53 60.5l4 20q-34 -22 -77.5 -36t-97.5 -14q-49 0 -84.5 23.5t-50 65.5t-3.5 97l63 298h161l-61 -289
q-9 -44 2 -60.5t59 -16.5q29 0 57.5 12t49.5 30l69 324h161l-91 -431q-22 -106 -104 -162.5t-248 -56.5z" />
    <glyph glyph-name="uni1E8F" unicode="&#x1e8f;" horiz-adv-x="601" 
d="M301 549l24 109h117l-24 -109h-117zM151 -176q-21 0 -46.5 1.5t-48 3.5t-35.5 5l26 119q19 -6 50 -9.5t53 -3.5q95 0 139 19.5t53 60.5l4 20q-34 -22 -77.5 -36t-97.5 -14q-49 0 -84.5 23.5t-50 65.5t-3.5 97l63 298h161l-61 -289q-9 -44 2 -60.5t59 -16.5q29 0 57.5 12
t49.5 30l69 324h161l-91 -431q-22 -106 -104 -162.5t-248 -56.5z" />
    <glyph glyph-name="uni1EF5" unicode="&#x1ef5;" horiz-adv-x="607" 
d="M151 -176q-21 0 -46.5 1.5t-48 3.5t-35.5 5l26 119q19 -6 50 -9.5t53 -3.5q95 0 139 19.5t53 60.5l4 20q-34 -22 -77.5 -36t-97.5 -14q-49 0 -84.5 23.5t-50 65.5t-3.5 97l63 298h161l-61 -289q-9 -44 2 -60.5t59 -16.5q29 0 57.5 12t49.5 30l69 324h161l-91 -431
q-22 -106 -104 -162.5t-248 -56.5zM459 -174l23 109h118l-23 -109h-118z" />
    <glyph glyph-name="ygrave" unicode="&#x1ef3;" horiz-adv-x="601" 
d="M293 522l-51 196h132l42 -196h-123zM151 -176q-21 0 -46.5 1.5t-48 3.5t-35.5 5l26 119q19 -6 50 -9.5t53 -3.5q95 0 139 19.5t53 60.5l4 20q-34 -22 -77.5 -36t-97.5 -14q-49 0 -84.5 23.5t-50 65.5t-3.5 97l63 298h161l-61 -289q-9 -44 2 -60.5t59 -16.5q29 0 57.5 12
t49.5 30l69 324h161l-91 -431q-22 -106 -104 -162.5t-248 -56.5z" />
    <glyph glyph-name="uni1EF7" unicode="&#x1ef7;" horiz-adv-x="601" 
d="M285 521l17 81q54 3 74.5 14.5t24.5 31.5q4 19 -11.5 27.5t-46.5 8.5q-14 0 -31.5 -2.5t-30.5 -6.5l16 72q44 14 110 14t95 -27.5t20 -71.5q-10 -43 -34.5 -64.5t-71.5 -32.5l-9 -44h-122zM151 -176q-21 0 -46.5 1.5t-48 3.5t-35.5 5l26 119q19 -6 50 -9.5t53 -3.5
q95 0 139 19.5t53 60.5l4 20q-34 -22 -77.5 -36t-97.5 -14q-49 0 -84.5 23.5t-50 65.5t-3.5 97l63 298h161l-61 -289q-9 -44 2 -60.5t59 -16.5q29 0 57.5 12t49.5 30l69 324h161l-91 -431q-22 -106 -104 -162.5t-248 -56.5z" />
    <glyph glyph-name="uni1EF9" unicode="&#x1ef9;" horiz-adv-x="601" 
d="M448 532q-31 0 -58 10.5t-52.5 20.5t-51.5 10q-29 0 -54.5 -10t-47.5 -28l23 107q17 14 43.5 23t54.5 9q32 0 57.5 -10t50.5 -20.5t54 -10.5q30 0 54.5 10.5t40.5 28.5l-23 -108q-13 -13 -37.5 -22.5t-53.5 -9.5zM151 -176q-21 0 -46.5 1.5t-48 3.5t-35.5 5l26 119
q19 -6 50 -9.5t53 -3.5q95 0 139 19.5t53 60.5l4 20q-34 -22 -77.5 -36t-97.5 -14q-49 0 -84.5 23.5t-50 65.5t-3.5 97l63 298h161l-61 -289q-9 -44 2 -60.5t59 -16.5q29 0 57.5 12t49.5 30l69 324h161l-91 -431q-22 -106 -104 -162.5t-248 -56.5z" />
    <glyph glyph-name="z" unicode="z" horiz-adv-x="492" 
d="M-26 0l18 86l274 260h-211l27 128h415l-20 -94l-268 -256h221l-26 -124h-430z" />
    <glyph glyph-name="zacute" unicode="&#x17a;" horiz-adv-x="492" 
d="M233 522l126 196h132l-134 -196h-124zM-26 0l18 86l274 260h-211l27 128h415l-20 -94l-268 -256h221l-26 -124h-430z" />
    <glyph glyph-name="zcaron" unicode="&#x17e;" horiz-adv-x="492" 
d="M245 521l-104 187h116l50 -104l97 104h126l-185 -187h-100zM-26 0l18 86l274 260h-211l27 128h415l-20 -94l-268 -256h221l-26 -124h-430z" />
    <glyph glyph-name="zdotaccent" unicode="&#x17c;" horiz-adv-x="492" 
d="M249 548l24 109h117l-24 -109h-117zM-26 0l18 86l274 260h-211l27 128h415l-20 -94l-268 -256h221l-26 -124h-430z" />
    <glyph glyph-name="uni1E93" unicode="&#x1e93;" horiz-adv-x="492" 
d="M-26 0l18 86l274 260h-211l27 128h415l-20 -94l-268 -256h221l-26 -124h-430zM87 -179l23 109h118l-23 -109h-118z" />
    <glyph glyph-name="ordfeminine" unicode="&#xaa;" horiz-adv-x="336" 
d="M147 380q-36 0 -60.5 19.5t-14.5 62.5q9 44 38 66.5t90 22.5h73l1 4q5 18 -5.5 25.5t-49.5 7.5q-45 0 -90 -14l13 62q21 8 52 13t60 5q60 0 90.5 -26t19.5 -79l-34 -163h-83l-1 21q-20 -13 -43.5 -20t-55.5 -7zM192 438q17 0 33 6.5t29 20.5l7 31h-51q-22 0 -34 -6
t-16 -24q-4 -16 4.5 -22t27.5 -6z" />
    <glyph glyph-name="ordmasculine" unicode="&#xba;" horiz-adv-x="360" 
d="M203 380q-67 0 -100 34.5t-19 102.5q15 68 55.5 102.5t122.5 34.5q70 0 102.5 -34.5t17.5 -102.5q-14 -68 -56 -102.5t-123 -34.5zM218 449q29 0 45 16.5t23 51.5q8 35 1 51t-40 16q-28 0 -44 -16t-24 -51q-7 -35 0 -51.5t39 -16.5z" />
    <glyph glyph-name="uni207F" unicode="&#x207f;" horiz-adv-x="351" 
d="M62 386l55 262h87l-2 -22q46 27 106 27q41 0 61.5 -26t11.5 -70l-36 -171h-93l33 156q5 22 -2.5 31t-29.5 9q-13 0 -31.5 -6t-29.5 -16l-37 -174h-93z" />
    <glyph glyph-name="uni0394" unicode="&#x394;" horiz-adv-x="640" 
d="M-26 0l18 86l338 558h136l104 -559l-18 -85h-578zM160 123h268l-62 338z" />
    <glyph glyph-name="uni03A9" unicode="&#x3a9;" horiz-adv-x="752" 
d="M-19 0l25 122h114q-43 41 -63.5 103.5t-4.5 141.5q20 99 70.5 172.5t135.5 114.5t208 41q102 0 171.5 -41t97.5 -114.5t7 -172.5q-17 -82 -61.5 -143t-112.5 -102h114l-25 -122h-297l26 126q82 42 127.5 99t61.5 132q20 95 -9 147.5t-129 52.5q-90 0 -147 -54.5
t-77 -145.5q-16 -75 5.5 -132t85.5 -99l-26 -126h-297z" />
    <glyph glyph-name="uni03BC" unicode="&#x3bc;" horiz-adv-x="601" 
d="M-36 -143l131 617h161l-61 -289q-9 -40 4.5 -58.5t56.5 -18.5q29 0 57.5 12t49.5 30l69 324h161l-100 -474h-150l3 40q-30 -22 -68 -36t-85 -14q-22 0 -38 7l-30 -140h-161z" />
    <glyph glyph-name="pi" unicode="&#x3c0;" horiz-adv-x="684" 
d="M492 -10q-81 0 -117 47.5t-17 134.5l38 178h-133l-74 -350h-161l74 350h-63l26 124h580l-26 -124h-62l-36 -168q-7 -34 3.5 -48t44.5 -14q15 0 33 2.5t34 7.5l-25 -120q-25 -10 -53.5 -15t-65.5 -5z" />
    <glyph glyph-name="uni0E01" unicode="&#xe01;" horiz-adv-x="627" 
d="M-4 0l36 171q9 42 32 76.5t69 48.5l-90 27l29 136q50 34 126 62.5t166 28.5q128 0 186.5 -57.5t35.5 -167.5l-69 -325h-161l68 324q13 57 -5 81t-89 24q-39 0 -75 -11t-60 -28l-2 -11l101 -31l-18 -85q-37 -10 -56 -31t-28 -63l-35 -169h-161z" />
    <glyph glyph-name="uni0E02" unicode="&#xe02;" horiz-adv-x="604" 
d="M236 -10q-120 0 -173.5 58.5t-35.5 149.5l6 30q6 32 23.5 57.5t37 45.5t35 36.5t18.5 31.5q3 14 -2.5 19.5t-22.5 5.5h-59l37 116h156q47 0 63 -21t7 -63q-7 -34 -25.5 -60.5t-40.5 -50.5t-40 -49.5t-24 -57.5l-9 -44q-8 -41 7.5 -62t67.5 -21q54 0 79 22.5t35 65.5
l72 341h161l-72 -339q-21 -99 -94 -155t-207 -56z" />
    <glyph glyph-name="uni0E03" unicode="&#xe03;" horiz-adv-x="604" 
d="M236 -10q-80 0 -131.5 26t-72 70.5t-8.5 99.5l3 14q7 34 31.5 65t53.5 58t51.5 48.5t25.5 36.5q4 19 -12 19q-14 0 -25 -11l-9 -40h-92l35 164h99l-6 -28q18 11 41 19.5t52 8.5q89 0 71 -87q-9 -40 -30.5 -70.5t-47 -56.5t-46.5 -51t-27 -55l-5 -24q-8 -41 7.5 -63
t67.5 -22q54 0 79 22.5t35 65.5l72 341h161l-72 -339q-21 -99 -94 -155t-207 -56z" />
    <glyph glyph-name="uni0E04" unicode="&#xe04;" horiz-adv-x="635" 
d="M-5 0l69 327q23 110 97.5 166.5t214.5 56.5q134 0 186.5 -61.5t31.5 -161.5l-69 -327h-161l70 333q11 49 -7.5 72.5t-75.5 23.5q-62 0 -88.5 -24t-36.5 -72l-16 -77q41 26 89 26h59l-23 -127h-65q-48 0 -86 -23l-28 -132h-161z" />
    <glyph glyph-name="uni0E05" unicode="&#xe05;" horiz-adv-x="635" 
d="M-5 0l82 387q16 74 60 118.5t118 44.5q33 0 60 -11.5t45 -39.5q29 28 64.5 39.5t76.5 11.5q70 0 96 -44.5t10 -118.5l-82 -387h-161l80 379q5 24 1 37t-26 13q-16 0 -28 -9t-22 -23h-50q-2 14 -8 23t-22 9q-21 0 -34 -11t-19 -39l-26 -123q39 26 89 26h59l-23 -127h-66
q-47 0 -85 -23l-28 -132h-161z" />
    <glyph glyph-name="uni0E06" unicode="&#xe06;" horiz-adv-x="623" 
d="M321 -10q-55 0 -95 15.5t-69 41.5l-15 -47h-149l41 194q8 39 32.5 71.5t53 59.5t50.5 47.5t25 35.5q4 19 -12 19q-14 0 -25 -11l-9 -40h-92l35 164h99l-6 -28q18 11 41 19.5t52 8.5q89 0 71 -87q-9 -43 -31 -76t-47.5 -61.5t-46.5 -58t-29 -64.5l-8 -35q14 -19 42 -33
t61 -14q47 0 70.5 21t33.5 67l72 341h161l-75 -355q-20 -93 -82.5 -144t-148.5 -51z" />
    <glyph glyph-name="uni0E07" unicode="&#xe07;" horiz-adv-x="555" 
d="M206 -10q-28 0 -61.5 4t-56.5 13l-71 364h157l52 -265q61 3 98.5 47.5t56.5 132.5q17 77 -1 104.5t-81 27.5h-40l26 122h68q114 0 164.5 -63t23.5 -191q-33 -156 -119.5 -226t-215.5 -70z" />
    <glyph glyph-name="uni0E08" unicode="&#xe08;" horiz-adv-x="568" 
d="M218 -10q-28 0 -57.5 5t-46.5 12l-29 181h-76l32 122h164l33 -200q52 3 87 42.5t54 121.5q14 61 8 94.5t-39.5 47t-102.5 13.5q-40 0 -87.5 -7t-92.5 -19l24 114q48 14 106.5 23.5t115.5 9.5q146 0 201.5 -71t26.5 -205q-20 -93 -67 -156.5t-112.5 -95.5t-141.5 -32z" />
    <glyph glyph-name="uni0E09" unicode="&#xe09;" horiz-adv-x="601" 
d="M154 -10q-76 0 -116 47t-21 139l26 124h161l-21 -100q-10 -48 4.5 -68.5t58.5 -20.5q35 0 64.5 13t52.5 35l32 148q10 48 3 74.5t-38.5 37t-94.5 10.5q-27 0 -63.5 -4t-74 -10.5t-67.5 -14.5l24 114q52 17 118.5 26.5t128.5 9.5q142 0 196.5 -61.5t28.5 -182.5l-65 -306
h-149l4 48q-38 -25 -85.5 -41.5t-106.5 -16.5z" />
    <glyph glyph-name="uni0E0A" unicode="&#xe0a;" horiz-adv-x="606" 
d="M237 -10q-117 0 -172.5 55.5t-36.5 152.5l6 30q6 32 23.5 57.5t37 45.5t35 36.5t18.5 31.5q3 14 -2.5 19.5t-22.5 5.5h-59l37 116h155q47 0 63 -21t7 -63q-7 -34 -25.5 -61t-40 -51t-39.5 -49.5t-24 -56.5l-9 -44q-9 -45 7 -64t68 -19q96 0 114 88l12 56q6 29 -3.5 45.5
t-36.5 16.5h-23l33 112h12q29 0 45 15t23 52l11 54h162l-11 -54q-10 -47 -30.5 -77.5t-63.5 -49.5q33 -20 41.5 -50t-0.5 -74l-10 -44q-21 -99 -92.5 -155t-208.5 -56z" />
    <glyph glyph-name="uni0E0B" unicode="&#xe0b;" horiz-adv-x="606" 
d="M237 -10q-78 0 -129 25.5t-72.5 69.5t-10.5 98l4 20q7 34 31.5 64.5t53.5 57t51 47.5t25 36q4 19 -12 19q-14 0 -25 -11l-9 -40h-92l35 164h99l-6 -28q18 11 41 19.5t52 8.5q44 0 60.5 -23t8.5 -64q-9 -40 -30.5 -71t-46.5 -57t-45.5 -51.5t-26.5 -55.5l-5 -24
q-9 -45 7 -64t68 -19q96 0 114 88l12 56q6 29 -3.5 45.5t-36.5 16.5h-23l33 112h12q29 0 45 15t23 52l11 54h162l-11 -54q-10 -47 -30.5 -77.5t-63.5 -49.5q33 -20 41.5 -50t-0.5 -74l-10 -44q-21 -99 -92.5 -155t-208.5 -56z" />
    <glyph glyph-name="uni0E0C" unicode="&#xe0c;" horiz-adv-x="958" 
d="M662 -10q-55 0 -91.5 15.5t-65.5 41.5l-16 -47h-146l68 324q13 57 -3 81t-82 24q-39 0 -73 -11t-58 -28l-2 -11l101 -31l-18 -85q-37 -10 -55.5 -29.5t-26.5 -58.5l-6 -28q-4 -18 1 -26t22 -8h51l-24 -113h-138q-47 0 -69.5 29.5t-12.5 75.5l14 66q9 42 32 76.5t69 48.5
l-90 27l29 136q50 34 124 62.5t164 28.5q120 0 177.5 -56.5t33.5 -168.5l-36 -167q14 -19 39.5 -33t56.5 -14q48 0 68 21t30 67l72 341h161l-75 -355q-20 -93 -81 -144t-144 -51z" />
    <glyph glyph-name="uni0E0D" unicode="&#xe0d;" horiz-adv-x="971" 
d="M596 -81q-47 0 -103 12.5t-95 30.5l25 114q27 -15 62 -24.5t70 -14t61 -4.5q71 0 101 13t35 36q4 21 -8 31q-24 -10 -55 -16.5t-68 -6.5q-116 0 -174.5 54t-37.5 169l2 11q13 57 -3.5 81t-81.5 24q-39 0 -73 -11t-58 -28l-2 -11l101 -31l-18 -85q-37 -10 -55.5 -29.5
t-26.5 -58.5l-6 -28q-4 -18 1.5 -26t22.5 -8h50l-24 -113h-138q-47 0 -69.5 29.5t-12.5 75.5l14 66q9 42 32 76.5t69 48.5l-90 27l29 136q50 34 124 62.5t164 28.5q122 0 178.5 -60.5t32.5 -164.5l-4 -17q-12 -56 5 -76.5t74 -20.5q53 0 82 26t41 81l47 222h161l-46 -217
q-10 -48 -30 -87t-51 -66q15 -16 23.5 -42t1.5 -57q-16 -76 -83.5 -114t-195.5 -38z" />
    <glyph glyph-name="uni0E0D.less" horiz-adv-x="973" 
d="M599 -10q-80 0 -132 29.5t-71.5 82t-5.5 121.5l21 101q13 57 -2.5 81t-82.5 24q-39 0 -73 -11t-58 -28l-2 -11l101 -31l-18 -85q-37 -10 -55.5 -29.5t-26.5 -58.5l-6 -28q-4 -18 1 -26t26 -8h47l-24 -113h-135q-47 0 -71 29.5t-14 75.5l14 66q9 42 32 76.5t69 48.5
l-90 27l29 136q50 34 124 62.5t164 28.5q122 0 178.5 -56.5t32.5 -168.5l-23 -107q-12 -56 2 -81.5t75 -25.5q53 0 82 26t41 81l68 322h161l-67 -317q-25 -118 -100.5 -175.5t-210.5 -57.5z" />
    <glyph glyph-name="uni0E0E" unicode="&#xe0e;" horiz-adv-x="660" 
d="M57 -198l26 121q40 16 82.5 24.5t93.5 8.5q35 0 66.5 -6t48.5 -15l82 389q13 57 -5 81t-83 24q-39 0 -74.5 -11t-60.5 -28l-2 -11l101 -31l-18 -85q-36 -11 -49.5 -30.5t-22.5 -60.5l-10 -46q-13 -65 -52.5 -95.5t-99.5 -30.5h-100l24 113h29q18 0 26.5 8t12.5 26l6 28
q9 42 28.5 73.5t65.5 47.5l-91 27l29 136q51 34 126.5 62.5t165.5 28.5q126 0 183 -57.5t34 -167.5l-111 -519h-154q-48 29 -135 29q-39 0 -83.5 -9.5t-78.5 -23.5z" />
    <glyph glyph-name="uni0E0E.short" horiz-adv-x="660" 
d="M72 -128l25 118q40 16 83 25t94 9q35 0 66.5 -6t47.5 -16l68 322q13 57 -4 81t-84 24q-39 0 -74.5 -11t-60.5 -28l-2 -11l101 -31l-18 -85q-36 -11 -49.5 -30.5t-22.5 -60.5l-6 -29q-14 -65 -53.5 -96t-99.5 -31h-100l24 114h29q18 0 26.5 7.5t12.5 25.5l4 19
q8 40 28.5 69t64.5 45l-91 27l29 136q51 34 126.5 62.5t165.5 28.5q122 0 181.5 -57t35.5 -168l-96 -449h-154q-25 15 -57.5 22t-77.5 7q-39 0 -83.5 -9.5t-78.5 -23.5z" />
    <glyph glyph-name="uni0E0F" unicode="&#xe0f;" horiz-adv-x="660" 
d="M340 -197q-43 0 -74 13.5t-45 33.5q-18 -20 -44 -32t-64 -12h-98l33 118h65q28 0 44 9.5t29 31.5h99q1 -20 10 -32t31 -12q44 0 54 46l76 357q13 57 -5 81t-83 24q-39 0 -74.5 -11t-60.5 -28l-2 -11l101 -31l-18 -85q-36 -11 -49.5 -30.5t-22.5 -60.5l-10 -46
q-13 -65 -52.5 -95.5t-99.5 -30.5h-100l24 113h29q18 0 26.5 8t12.5 26l6 28q9 42 28.5 73.5t65.5 47.5l-91 27l29 136q51 34 126.5 62.5t165.5 28.5q125 0 182.5 -57.5t34.5 -167.5l-77 -361q-16 -73 -69 -117t-133 -44z" />
    <glyph glyph-name="uni0E0F.short" horiz-adv-x="660" 
d="M355 -124q-43 0 -74 13t-45 34q-18 -20 -43.5 -32.5t-63.5 -12.5h-98l32 116h65q28 0 44.5 9t27.5 29h99q2 -20 11 -30.5t31 -10.5q44 0 54 46l61 287q13 57 -5 81t-83 24q-39 0 -74.5 -11t-60.5 -28l-2 -11l101 -31l-18 -85q-36 -11 -49.5 -30.5t-22.5 -60.5l-6 -29
q-14 -65 -53.5 -96t-99.5 -31h-100l24 114h29q18 0 26.5 7.5t12.5 25.5l4 19q8 40 28.5 69t64.5 45l-91 27l29 136q51 34 126.5 62.5t165.5 28.5q123 0 182 -56.5t35 -168.5l-62 -289q-15 -72 -68.5 -116t-133.5 -44z" />
    <glyph glyph-name="uni0E10" unicode="&#xe10;" horiz-adv-x="610" 
d="M218 -10q-28 0 -57.5 5t-46.5 12l-29 181h-76l32 122h164l33 -200q52 3 87 42.5t54 121.5q14 61 8 94.5t-39.5 47t-102.5 13.5q-40 0 -87.5 -7t-92.5 -19l24 114q48 14 106.5 23.5t115.5 9.5q27 0 50.5 -2.5t44.5 -7.5h239l-33 -120h-82q14 -27 16 -65t-7 -81
q-20 -93 -67 -156.5t-112.5 -95.5t-141.5 -32zM253 -213q-45 0 -75 13.5t-44 34.5q-17 -20 -42.5 -33t-63.5 -13h-86l31 115h58q28 0 44.5 10.5t28.5 32.5h102q1 -22 12 -34t36 -12q54 0 64 46l5 22h129l-5 -22q-15 -72 -64 -116t-130 -44z" />
    <glyph glyph-name="uni0E10.less" horiz-adv-x="610" 
d="M218 -10q-28 0 -57.5 5t-46.5 12l-29 181h-76l32 122h164l33 -200q52 3 87 42.5t54 121.5q14 61 8 94.5t-39.5 47t-102.5 13.5q-40 0 -87.5 -7t-92.5 -19l24 114q48 14 106.5 23.5t115.5 9.5q27 0 50.5 -2.5t44.5 -7.5h239l-33 -120h-82q14 -27 16 -65t-7 -81
q-20 -93 -67 -156.5t-112.5 -95.5t-141.5 -32z" />
    <glyph glyph-name="uni0E11" unicode="&#xe11;" horiz-adv-x="620" 
d="M14 0l39 184q8 37 28.5 69.5t44 60.5t42 51.5t22.5 42.5t-12 19q-14 0 -25 -11l-9 -40h-92l35 164h99l-6 -28q18 11 38.5 19.5t48.5 8.5q41 0 60 -28q26 16 60 27t69 11q87 0 117.5 -51t13.5 -134l-77 -365h-161l76 362q8 35 0 50.5t-39 15.5q-13 0 -28.5 -6t-27.5 -14
q-7 -34 -23 -60t-35 -50.5t-35 -52t-24 -64.5l-38 -181h-161z" />
    <glyph glyph-name="uni0E12" unicode="&#xe12;" horiz-adv-x="991" 
d="M202 -10q-61 0 -107.5 27t-66 85.5t0.5 152.5q31 145 90 220t157 75q41 0 63 -14t35 -37q26 23 59.5 37t78.5 14q73 0 97 -43.5t9 -111.5l-50 -237q12 -21 38.5 -34t57.5 -13q48 0 68 21t30 67l72 341h161l-75 -355q-20 -93 -79 -144t-140 -51q-55 0 -94.5 15.5
t-68.5 41.5l-16 -47h-145l77 366q7 31 4 47t-26 16q-33 0 -53 -39h-60q-4 19 -10.5 29t-24.5 10q-25 0 -42.5 -23t-29.5 -62.5t-23 -88.5q-17 -80 -1 -112t74 -32q17 0 35.5 2t31.5 6l-24 -113q-20 -7 -45.5 -11.5t-57.5 -4.5z" />
    <glyph glyph-name="uni0E13" unicode="&#xe13;" horiz-adv-x="962" 
d="M524 -10q-51 0 -87 24t-51 67.5t-3 103.5l29 139q13 57 -4.5 81t-81.5 24q-39 0 -73 -11t-58 -28l-2 -11l101 -31l-18 -85q-37 -10 -55.5 -29.5t-26.5 -58.5l-6 -28q-4 -18 1 -26t24 -8h49l-24 -113h-138q-47 0 -69.5 29.5t-12.5 75.5l14 66q9 42 32 76.5t69 48.5l-90 27
l29 136q50 34 124 62.5t164 28.5q123 0 178.5 -58t32.5 -167l-27 -126q-11 -52 2.5 -70t59.5 -18q32 0 63.5 14t53.5 33l81 382h162l-114 -540h-149l2 47q-38 -27 -82 -42t-99 -15z" />
    <glyph glyph-name="uni0E14" unicode="&#xe14;" horiz-adv-x="657" 
d="M202 -10q-61 0 -107.5 27t-66 85.5t0.5 152.5t62.5 160t114 100.5t178.5 34.5q94 0 149 -32.5t75 -83.5t8 -107l-69 -327h-162l66 314q13 59 -5 87t-90 28q-61 0 -104.5 -42.5t-62.5 -131.5q-17 -80 -1 -112t74 -32q17 0 35.5 2t31.5 6l-24 -113q-20 -7 -45.5 -11.5
t-57.5 -4.5z" />
    <glyph glyph-name="uni0E15" unicode="&#xe15;" horiz-adv-x="660" 
d="M202 -10q-62 0 -108.5 27t-65.5 85.5t1 152.5q31 145 92 220t161 75q41 0 64.5 -14t36.5 -37q26 23 61.5 37t78.5 14q68 0 96.5 -43.5t13.5 -111.5l-83 -395h-162l77 366q7 31 2.5 47t-27.5 16q-34 0 -54 -39h-60q-4 19 -11 29t-25 10q-25 0 -44 -23t-32.5 -62.5
t-24.5 -88.5q-18 -83 -2 -113.5t75 -30.5q17 0 35.5 2t31.5 6l-24 -113q-20 -7 -45.5 -11.5t-57.5 -4.5z" />
    <glyph glyph-name="uni0E16" unicode="&#xe16;" horiz-adv-x="627" 
d="M100 0q-47 0 -69.5 29.5t-12.5 75.5l14 66q9 42 32 76.5t69 48.5l-90 27l29 136q50 34 126 62.5t166 28.5q127 0 186.5 -56.5t35.5 -168.5l-69 -325h-161l68 324q13 59 -6.5 82t-87.5 23q-39 0 -75 -11t-60 -28l-2 -11l101 -31l-18 -85q-37 -10 -55.5 -29.5t-26.5 -58.5
l-6 -28q-4 -18 0.5 -26t24.5 -8h49l-24 -113h-138z" />
    <glyph glyph-name="uni0E17" unicode="&#xe17;" horiz-adv-x="625" 
d="M-5 0l114 540h149l-4 -48q38 25 88 41.5t107 16.5q48 0 84.5 -22.5t53 -65.5t3.5 -105l-75 -357h-162l67 343q10 47 -2.5 66t-56.5 19q-36 0 -69 -13.5t-56 -33.5l-80 -381h-161z" />
    <glyph glyph-name="uni0E18" unicode="&#xe18;" horiz-adv-x="544" 
d="M218 -10q-70 0 -129.5 12.5t-97.5 30.5l41 195h144l-23 -107q14 -6 36.5 -9.5t44.5 -3.5q47 0 74.5 13.5t34.5 47.5q6 26 -11 39.5t-52 23t-85 21.5q-45 12 -79 30t-49.5 45.5t-7.5 67.5q14 73 79 113.5t203 40.5q38 0 77 -3.5t71 -9t50 -12.5l-26 -122q-30 14 -78.5 21
t-92.5 7q-28 0 -56 -2t-47.5 -9t-22.5 -23q-4 -18 17.5 -28t57.5 -17.5t74 -18.5q77 -22 110 -58t17 -107q-19 -87 -84.5 -132.5t-189.5 -45.5z" />
    <glyph glyph-name="uni0E19" unicode="&#xe19;" horiz-adv-x="625" 
d="M179 -10q-53 0 -90 24t-52 68t-3 103l75 355h161l-72 -341q-10 -49 5 -68.5t61 -19.5q33 0 66.5 14t55.5 33l81 382h162l-114 -540h-149l2 47q-39 -26 -86.5 -41.5t-102.5 -15.5z" />
    <glyph glyph-name="uni0E1A" unicode="&#xe1a;" horiz-adv-x="639" 
d="M259 -10q-77 0 -131.5 28t-77.5 80t-8 125l67 317h161l-68 -322q-13 -59 5 -83t78 -24q53 0 84.5 26t43.5 81l68 322h162l-67 -317q-26 -123 -102.5 -178t-214.5 -55z" />
    <glyph glyph-name="uni0E1B" unicode="&#xe1b;" horiz-adv-x="639" 
d="M259 -10q-77 0 -131.5 28t-77.5 80t-8 125l67 317h161l-68 -322q-13 -59 5 -83t78 -24q53 0 84.5 26t43.5 81l102 482h162l-101 -477q-26 -123 -102.5 -178t-214.5 -55z" />
    <glyph glyph-name="uni0E1C" unicode="&#xe1c;" horiz-adv-x="648" 
d="M-5 0l93 440q9 43 37 71.5t73 28.5h139l-18 -113h-49q-39 0 -47 -41l-39 -183l135 172h56l62 -172l71 337h146l-114 -540h-140l-77 227l-174 -227h-154z" />
    <glyph glyph-name="uni0E1D" unicode="&#xe1d;" horiz-adv-x="648" 
d="M-5 0l93 440q9 43 37 71.5t73 28.5h139l-18 -113h-49q-39 0 -47 -41l-39 -183l135 172h56l62 -172l105 497h146l-148 -700h-140l-77 227l-174 -227h-154z" />
    <glyph glyph-name="uni0E1E" unicode="&#xe1e;" horiz-adv-x="732" 
d="M82 0l-3 540h149l-12 -319l125 224l20 95h112l25 -319l123 319h148l-232 -540h-129l-30 286l-153 -286h-143z" />
    <glyph glyph-name="uni0E1F" unicode="&#xe1f;" horiz-adv-x="732" 
d="M82 0l-3 540h149l-12 -319l125 224l20 95h112l25 -319l181 479h148l-290 -700h-129l-30 286l-153 -286h-143z" />
    <glyph glyph-name="uni0E20" unicode="&#xe20;" horiz-adv-x="660" 
d="M-20 0l24 113h29q18 0 26.5 8t12.5 26l6 28q9 42 28.5 73.5t65.5 47.5l-91 27l29 136q51 34 126.5 62.5t165.5 28.5q126 0 183 -58.5t34 -166.5l-69 -325h-162l68 324q13 57 -4 81t-84 24q-39 0 -74.5 -11t-60.5 -28l-2 -11l101 -31l-18 -85q-36 -11 -49.5 -30.5
t-22.5 -60.5l-10 -46q-13 -65 -52.5 -95.5t-99.5 -30.5h-100z" />
    <glyph glyph-name="uni0E21" unicode="&#xe21;" horiz-adv-x="625" 
d="M323 -10q-55 0 -95 15.5t-69 41.5l-15 -47h-149l114 540h161l-81 -382q14 -19 42 -33t61 -14q50 0 71.5 19t31.5 69l72 341h162l-75 -355q-20 -93 -74 -144t-157 -51z" />
    <glyph glyph-name="uni0E22" unicode="&#xe22;" horiz-adv-x="624" 
d="M244 -10q-79 0 -136 18.5t-83 57.5t-13 102q8 35 29.5 64t56.5 48q-23 14 -34 42t-3 67q17 80 77.5 120.5t145.5 40.5q32 0 56 -4t40 -11l-24 -114q-26 8 -62 8q-31 0 -50 -10t-24 -36q-6 -28 8 -38t50 -10h53l-18 -110h-60q-69 0 -81 -57q-6 -28 15.5 -42.5t78.5 -14.5
q111 0 129 89l72 340h162l-70 -330q-24 -115 -100 -167.5t-215 -52.5z" />
    <glyph glyph-name="uni0E23" unicode="&#xe23;" horiz-adv-x="503" 
d="M179 -10q-59 0 -110.5 8.5t-80.5 21.5l27 126q33 -16 77 -25.5t82 -9.5q57 0 83 8t31 32q4 20 -8 31t-39.5 21.5t-70.5 26.5q-65 26 -95.5 59.5t-17.5 96.5q15 73 77 118.5t189 45.5q49 0 96.5 -7.5t75.5 -16.5l-26 -125q-29 14 -69.5 21t-72.5 7q-43 0 -74 -8.5
t-36 -34.5q-4 -17 9.5 -27.5t40.5 -19.5t65 -24q53 -21 81.5 -42t36 -50t-2.5 -74q-16 -77 -80 -118t-188 -41z" />
    <glyph glyph-name="uni0E24" unicode="&#xe24;" horiz-adv-x="627" 
d="M321 -160l103 484q13 57 -6.5 81t-87.5 24q-39 0 -75 -11t-60 -28l-2 -11l101 -31l-18 -85q-37 -10 -55.5 -29.5t-26.5 -58.5l-6 -28q-4 -18 1 -26t24 -8h49l-24 -113h-138q-47 0 -69.5 29.5t-12.5 75.5l14 66q9 42 32 76.5t69 48.5l-90 27l29 136q50 34 126 62.5
t166 28.5q134 0 189.5 -59.5t32.5 -165.5l-104 -485h-161z" />
    <glyph glyph-name="uni0E24.short" horiz-adv-x="627" 
d="M332 -110l92 434q13 57 -6.5 81t-87.5 24q-39 0 -75 -11t-60 -28l-2 -11l101 -31l-18 -85q-37 -10 -55.5 -29.5t-26.5 -58.5l-6 -28q-4 -18 1 -26t26 -8h47l-24 -113h-138q-47 0 -69.5 29.5t-12.5 75.5l14 66q9 42 32 76.5t69 48.5l-90 27l29 136q50 34 126 62.5
t166 28.5q128 0 187 -56.5t35 -168.5l-93 -435h-161z" />
    <glyph glyph-name="uni0E25" unicode="&#xe25;" horiz-adv-x="601" 
d="M156 -10q-46 0 -85 18t-57.5 56.5t-6.5 97.5q17 83 78 127.5t170 44.5h144l5 20q6 27 0 43.5t-29.5 24t-73.5 7.5q-47 0 -94 -7t-94 -21l24 116q45 14 104.5 23.5t114.5 9.5q116 0 171.5 -55t33.5 -161l-70 -334h-162l46 220h-119q-40 0 -62 -12t-30 -47
q-7 -31 5.5 -43.5t59.5 -12.5q17 0 32.5 1.5t28.5 5.5l-23 -108q-21 -7 -48.5 -10.5t-62.5 -3.5z" />
    <glyph glyph-name="uni0E26" unicode="&#xe26;" horiz-adv-x="660" 
d="M353 -160l103 484q13 57 -4 81t-84 24q-39 0 -74.5 -11t-60.5 -28l-2 -11l101 -31l-18 -85q-36 -11 -49.5 -30.5t-22.5 -60.5l-10 -46q-13 -65 -52.5 -95.5t-99.5 -30.5h-100l24 113h29q18 0 26.5 8t12.5 26l6 28q9 42 28.5 73.5t65.5 47.5l-91 27l29 136
q51 34 126.5 62.5t165.5 28.5q125 0 182.5 -58.5t34.5 -166.5l-104 -485h-162z" />
    <glyph glyph-name="uni0E26.short" horiz-adv-x="660" 
d="M364 -110l92 434q13 57 -5 81t-83 24q-39 0 -74.5 -11t-60.5 -28l-2 -11l101 -31l-18 -85q-36 -11 -49.5 -30.5t-22.5 -60.5l-10 -46q-13 -65 -52.5 -95.5t-99.5 -30.5h-100l24 113h29q18 0 26.5 8t12.5 26l6 28q9 42 28.5 73.5t65.5 47.5l-91 27l29 136
q51 34 126.5 62.5t165.5 28.5q128 0 184 -59t33 -166l-93 -435h-162z" />
    <glyph glyph-name="uni0E27" unicode="&#xe27;" horiz-adv-x="514" 
d="M148 -10q-52 0 -96.5 8t-79.5 26l25 120q29 -15 65 -24t73 -9q85 0 130.5 37t63.5 122q12 56 7.5 91t-35 51.5t-97.5 16.5q-37 0 -77.5 -8.5t-75.5 -22.5l25 118q90 34 192 34q131 0 190.5 -73t30.5 -207q-31 -141 -110 -210.5t-231 -69.5z" />
    <glyph glyph-name="uni0E28" unicode="&#xe28;" horiz-adv-x="653" 
d="M-4 0l69 327q23 110 97.5 166.5t214.5 56.5q26 0 49 -2.5t42 -7.5h223l-33 -120h-71q10 -16 11.5 -41.5t-3.5 -51.5l-69 -327h-161l70 333q11 49 -7.5 72.5t-75.5 23.5q-62 0 -88.5 -24t-36.5 -72l-16 -77q41 26 89 26h59l-23 -127h-65q-48 0 -86 -23l-28 -132h-161z" />
    <glyph glyph-name="uni0E29" unicode="&#xe29;" horiz-adv-x="656" 
d="M261 -10q-77 0 -131.5 28t-78 80t-7.5 125l67 317h161l-68 -322q-13 -59 5 -83t78 -24q53 0 84.5 26t43.5 81l11 53h-100l26 123h100l31 146h162l-31 -146h59l-37 -123h-48l-10 -48q-26 -123 -102.5 -178t-214.5 -55z" />
    <glyph glyph-name="uni0E2A" unicode="&#xe2a;" horiz-adv-x="625" 
d="M156 -10q-46 0 -85 18t-57.5 56.5t-6.5 97.5q17 83 78 127.5t170 44.5h144l5 20q6 27 0 43.5t-29.5 24t-73.5 7.5q-47 0 -94 -7t-94 -21l24 116q45 14 104.5 23.5t114.5 9.5q24 0 46 -2.5t41 -7.5h209l-33 -120h-64q7 -16 9 -39t-3 -47l-70 -334h-162l46 220h-119
q-40 0 -62 -12t-30 -47q-7 -31 5.5 -43.5t59.5 -12.5q17 0 32.5 1.5t28.5 5.5l-23 -108q-21 -7 -48.5 -10.5t-62.5 -3.5z" />
    <glyph glyph-name="uni0E2B" unicode="&#xe2b;" horiz-adv-x="617" 
d="M-5 0l114 540h161l-33 -155h112q44 0 65.5 20t29.5 60l16 75h162l-19 -87q-10 -46 -33 -82.5t-66 -53.5q35 -16 42.5 -50.5t-0.5 -71.5l-41 -195h-162l38 182q10 44 -3.5 62t-57.5 18h-109l-55 -262h-161z" />
    <glyph glyph-name="uni0E2C" unicode="&#xe2c;" horiz-adv-x="732" 
d="M82 0l-3 540h149l-12 -324l120 189l20 95h107l35 -284l78 213q17 45 11 63t-38 18h-35l40 104h43q34 0 51 13t31 44l12 29h137l-23 -56q-32 -77 -96 -93q21 -19 21 -49t-17 -72l-176 -430h-124l-37 253l-145 -253h-149z" />
    <glyph glyph-name="uni0E2C.short" horiz-adv-x="732" 
d="M83 0l-4 540h150l-8 -341l101 151l17 80h111l44 -235l60 178q16 46 8.5 63.5t-39.5 17.5h-35l40 104h43q34 0 53.5 13t32.5 44l36 85h136l-43 -105q-16 -40 -39 -62.5t-58 -30.5q42 -30 5 -121l-157 -381h-124l-46 211l-136 -211h-148z" />
    <glyph glyph-name="uni0E2D" unicode="&#xe2d;" horiz-adv-x="593" 
d="M215 -10q-69 0 -128 12.5t-96 30.5l60 286h240l-16 -111h-90l-19 -87q30 -10 74 -10q72 0 108 35.5t54 120.5q14 66 7 101t-40.5 48t-100.5 13q-43 0 -94 -7t-99 -21l24 116q53 16 115.5 24.5t117.5 8.5q140 0 199 -74t31 -209q-18 -90 -57.5 -152t-109 -93.5
t-180.5 -31.5z" />
    <glyph glyph-name="uni0E2E" unicode="&#xe2e;" horiz-adv-x="633" 
d="M215 -10q-69 0 -128 12.5t-96 30.5l60 286h240l-16 -111h-90l-19 -87q30 -10 74 -10q72 0 108 35.5t54 120.5q14 66 7 101t-40.5 48t-100.5 13q-43 0 -94 -7t-99 -21l24 116q53 16 115.5 24.5t117.5 8.5q25 0 48 -2.5t42 -7.5h238l-33 -120h-74q11 -28 14.5 -68t-5.5 -85
q-18 -90 -57.5 -152t-109 -93.5t-180.5 -31.5z" />
    <glyph glyph-name="uni0E30" unicode="&#xe30;" horiz-adv-x="324" 
d="M41 312l34 162h128l-10 -48h136l-29 -114h-259zM-15 49l34 162h128l-10 -49h136l-29 -113h-259z" />
    <glyph glyph-name="uni0E32" unicode="&#xe32;" horiz-adv-x="445" 
d="M176 0l69 326q12 58 -3 80.5t-71 22.5q-34 0 -70.5 -8t-67.5 -19l24 114q33 14 80 24t93 10q110 0 155.5 -52.5t23.5 -154.5l-72 -343h-161z" />
    <glyph glyph-name="uni0E33" unicode="&#xe33;" horiz-adv-x="445" 
d="M-66 575q-52 0 -83 34.5t-20 87.5q11 54 53.5 88.5t100.5 34.5q52 0 82.5 -34.5t19.5 -88.5q-11 -53 -54 -87.5t-99 -34.5zM-50 656q17 0 32 12.5t18 28.5q4 18 -4 30t-28 12q-17 0 -31.5 -12.5t-18.5 -29.5t3.5 -29t28.5 -12zM176 0l69 326q12 58 -3 80.5t-71 22.5
q-34 0 -70.5 -8t-67.5 -19l24 114q33 14 80 24t93 10q110 0 155.5 -52.5t23.5 -154.5l-72 -343h-161z" />
    <glyph glyph-name="uni0E40" unicode="&#xe40;" horiz-adv-x="319" 
d="M108 0q-57 0 -78.5 28t-11.5 80l92 432h162l-83 -390q-4 -22 1 -29.5t26 -7.5h39l-24 -113h-123z" />
    <glyph glyph-name="uni0E41" unicode="&#xe41;" horiz-adv-x="581" 
d="M377 0q-57 0 -79 28t-11 80l92 432h161l-83 -390q-4 -22 1 -29.5t26 -7.5h39l-24 -113h-122zM107 0q-57 0 -78.5 28t-11.5 80l92 432h161l-83 -390q-4 -22 1 -29.5t26 -7.5h39l-24 -113h-122z" />
    <glyph glyph-name="uni0E42" unicode="&#xe42;" horiz-adv-x="322" 
d="M137 0q-57 0 -79 28t-11 80l89 416q12 57 -4.5 89t-61.5 47l22 104h342l-24 -114h-140q47 -36 29 -120l-81 -380q-4 -22 1 -29.5t26 -7.5h39l-24 -113h-123z" />
    <glyph glyph-name="uni0E43" unicode="&#xe43;" horiz-adv-x="307" 
d="M91 0q-57 0 -79 28t-11 80l63 287q10 44 32 75.5t47.5 54.5t45 42t23.5 38q9 41 -46 41q-54 0 -109 -30l23 111q36 19 82 29.5t91 10.5q78 0 113 -31t22 -90q-9 -42 -32 -72t-50 -55.5t-49.5 -55t-31.5 -70.5l-53 -243q-4 -22 1 -29.5t26 -7.5h39l-24 -113h-123z" />
    <glyph glyph-name="uni0E44" unicode="&#xe44;" horiz-adv-x="314" 
d="M118 0q-57 0 -79 28t-11 80l87 408q10 45 32.5 80t53.5 54h-138l24 114h332l-22 -104q-52 -15 -80 -53t-41 -99l-77 -358q-4 -22 1 -29.5t26 -7.5h39l-24 -113h-123z" />
    <glyph glyph-name="uni0E45" unicode="&#xe45;" horiz-adv-x="445" 
d="M141 -160l104 486q12 58 -3 80.5t-71 22.5q-34 0 -70.5 -8t-67.5 -19l24 114q33 14 80 24t93 10q110 0 155.5 -52.5t23.5 -154.5l-107 -503h-161z" />
    <glyph glyph-name="uni210A" unicode="&#x210a;" horiz-adv-x="599" 
d="M158 -176q-16 0 -42 1.5t-50.5 4t-37.5 4.5l26 119q19 -6 50 -9.5t53 -3.5q86 0 126.5 16t48.5 57l4 18q-28 -16 -65 -25t-75 -9q-63 0 -108.5 22.5t-64 72t-2.5 128.5q26 128 98 196t184 68q50 0 80.5 -13.5t51.5 -37.5l17 41h139l-91 -431q-14 -67 -51.5 -116t-108 -76
t-182.5 -27zM266 114q28 0 51 8t43 23l40 185q-24 36 -80 36t-87.5 -36.5t-47.5 -108.5q-13 -62 3.5 -84.5t77.5 -22.5z" />
    <glyph glyph-name="zero" unicode="0" horiz-adv-x="661" 
d="M270 -18q-154 0 -208 87.5t-20 248.5q23 107 66 182t117 114.5t188 39.5q153 0 208 -87.5t20 -248.5q-23 -107 -65 -182.5t-115 -114.5t-191 -39zM299 120q76 0 116 50.5t61 147.5q15 69 13.5 112.5t-26 64.5t-80.5 21q-76 0 -116 -50.5t-61 -147.5q-14 -68 -12.5 -112
t26.5 -65t79 -21z" />
    <glyph glyph-name="one" unicode="1" horiz-adv-x="349" 
d="M81 0l105 496l-110 -17l29 135l276 40l-139 -654h-161z" />
    <glyph glyph-name="two" unicode="2" horiz-adv-x="517" 
d="M-25 0l15 75q39 56 91 100t112 89q55 42 87 67t48.5 48t23.5 55q8 41 -9.5 61.5t-79.5 20.5q-41 0 -83 -9.5t-81 -23.5l30 139q42 14 96.5 23t106.5 9q72 0 118 -27.5t63.5 -76.5t2.5 -113q-13 -58 -48.5 -100.5t-99.5 -89.5q-47 -34 -84.5 -62.5t-66.5 -60.5h239
l-26 -124h-455z" />
    <glyph glyph-name="three" unicode="3" horiz-adv-x="529" 
d="M173 -10q-28 0 -65 4t-72 11.5t-57 17.5l29 134q38 -19 82.5 -27t85.5 -8q63 0 98 17t45 62q8 35 -15.5 51t-73.5 16h-105l35 113h87q51 0 78 16.5t34 53.5q8 35 -12.5 53t-88.5 18q-43 0 -89 -9.5t-81 -24.5l28 132q38 14 93 24t108 10q78 0 128.5 -24t72 -65.5
t11.5 -93.5q-9 -46 -37.5 -86t-72.5 -60q42 -16 57 -52t4 -87q-22 -101 -100.5 -148.5t-206.5 -47.5z" />
    <glyph glyph-name="four" unicode="4" horiz-adv-x="547" 
d="M258 0l27 128h-303l22 107l410 409h141l-82 -386h60l-27 -130h-60l-27 -128h-161zM163 252h175l46 215z" />
    <glyph glyph-name="five" unicode="5" horiz-adv-x="521" 
d="M170 -10q-29 0 -64 3.5t-67.5 10.5t-56.5 18l29 134q21 -10 50 -17.5t59 -11.5t54 -4q62 0 95.5 19t42.5 65q9 41 -7.5 59.5t-74.5 18.5h-195l17 81l76 278h400l-38 -124h-250l-32 -117h84q101 0 152.5 -51.5t30.5 -150.5q-13 -64 -46.5 -111.5t-95.5 -73.5t-163 -26z
" />
    <glyph glyph-name="six" unicode="6" horiz-adv-x="583" 
d="M234 -10q-126 0 -179.5 67.5t-27.5 189.5l28 131q28 128 118 202t235 74q52 0 89 -6t69 -20l-28 -131q-57 27 -145 27q-77 0 -123 -31.5t-57 -81.5l-5 -25q33 20 76 30.5t77 10.5q106 0 154 -55.5t26 -159.5q-14 -65 -48.5 -115t-97 -78.5t-161.5 -28.5zM260 106
q57 0 91 27t44 73q11 50 -4.5 76t-77.5 26q-35 0 -68 -10t-62 -26l-11 -54q-24 -112 88 -112z" />
    <glyph glyph-name="seven" unicode="7" horiz-adv-x="498" 
d="M20 0l331 520h-276l26 124h455l-20 -96l-348 -548h-168z" />
    <glyph glyph-name="eight" unicode="8" horiz-adv-x="603" 
d="M242 -10q-131 0 -190 48.5t-39 144.5q11 49 44.5 90t81.5 60q-35 20 -47 54.5t-4 73.5q19 88 91 140.5t205 52.5q125 0 178 -52.5t34 -140.5q-8 -40 -34.5 -76.5t-73.5 -57.5q89 -41 66 -144q-20 -96 -97 -144.5t-215 -48.5zM349 373q42 12 64.5 30.5t29.5 54.5
q8 38 -10.5 56.5t-74.5 18.5q-50 0 -79.5 -17.5t-37.5 -57.5q-13 -60 49 -73zM268 110q60 0 92.5 18t40.5 58q8 35 -8 51.5t-57 25.5l-69 15q-39 -8 -64.5 -27t-34.5 -60q-9 -43 13.5 -62t86.5 -19z" />
    <glyph glyph-name="nine" unicode="9" horiz-adv-x="583" 
d="M199 -10q-52 0 -89 5.5t-70 18.5l28 131q59 -26 146 -26q85 0 127.5 32t52.5 81l5 25q-69 -41 -158 -41q-64 0 -109 25t-63 73.5t-3 116.5q22 101 96 162t211 61q131 0 181.5 -70.5t25.5 -186.5l-28 -131q-29 -136 -114.5 -206t-238.5 -70zM302 335q29 0 61 10.5t61 26.5
l11 53q24 112 -88 112q-57 0 -92 -26.5t-44 -73.5q-10 -57 7 -79.5t84 -22.5z" />
    <glyph glyph-name="uni2080" unicode="&#x2080;" horiz-adv-x="365" 
d="M98 -128q-78 0 -107 38t-15 105q15 71 59.5 110t124.5 39q81 0 109.5 -39t13.5 -110q-14 -67 -60 -105t-125 -38zM115 -49q29 0 43.5 15.5t21.5 48.5q8 37 1 53.5t-37 16.5q-29 0 -43 -16.5t-22 -53.5q-7 -33 0.5 -48.5t35.5 -15.5z" />
    <glyph glyph-name="uni2081" unicode="&#x2081;" horiz-adv-x="219" 
d="M1 -120l37 176l-65 -12l18 85l184 35l-60 -284h-114z" />
    <glyph glyph-name="uni2082" unicode="&#x2082;" horiz-adv-x="304" 
d="M-51 -120l10 48q20 22 39 35.5t44 30.5q37 25 51 35.5t17 23.5q6 28 -41 28q-16 0 -36.5 -4.5t-38.5 -11.5l17 80q19 7 52.5 13t64.5 6q59 0 85 -24.5t18 -61.5q-6 -27 -20 -44.5t-42 -39.5q-15 -11 -24 -17t-23 -17h86l-17 -80h-242z" />
    <glyph glyph-name="uni2083" unicode="&#x2083;" horiz-adv-x="308" 
d="M54 -128q-15 0 -36 2t-39.5 5t-28.5 7l15 69q17 -8 36.5 -11.5t37.5 -3.5q29 0 42.5 5.5t16.5 18.5q4 25 -41 25h-44l18 59h37q42 0 47 26q2 11 -10 15.5t-35 4.5q-19 0 -39 -4t-36 -11l15 70q17 5 47.5 10t58.5 5q71 0 97.5 -24t18.5 -59q-4 -20 -15.5 -36.5
t-31.5 -26.5q36 -13 27 -59q-19 -87 -158 -87z" />
    <glyph glyph-name="uni2084" unicode="&#x2084;" horiz-adv-x="295" 
d="M62 -120l10 46h-132l14 70l167 168h111l-34 -164h29l-16 -74h-29l-10 -46h-110zM54 0h62l17 81z" />
    <glyph glyph-name="uni2085" unicode="&#x2085;" horiz-adv-x="303" 
d="M46 -128q-25 0 -53 3.5t-43 10.5l15 71q14 -7 34.5 -10.5t36.5 -3.5q58 0 64 28q4 16 -6.5 22t-36.5 6h-82l11 50l29 105h214l-19 -69h-115l-8 -27h36q104 0 85 -88q-9 -43 -49 -70.5t-113 -27.5z" />
    <glyph glyph-name="uni2086" unicode="&#x2086;" horiz-adv-x="319" 
d="M77 -128q-58 0 -88 28t-18 85l12 56q12 56 56.5 89.5t112.5 33.5q23 0 47 -3t37 -9l-15 -68q-13 6 -33.5 9t-40.5 3q-31 0 -50.5 -11t-22.5 -28l-1 -5q14 10 33 14.5t36 4.5q56 0 75.5 -24.5t8.5 -74.5q-10 -47 -47 -73.5t-102 -26.5zM90 -64q22 0 32 9t14 26t-1.5 26
t-28.5 9q-11 0 -23 -4t-23 -11l-4 -16q-4 -19 4 -29t30 -10z" />
    <glyph glyph-name="uni2087" unicode="&#x2087;" horiz-adv-x="290" 
d="M-19 -120l125 192h-126l17 82h248l-13 -62l-137 -212h-114z" />
    <glyph glyph-name="uni2088" unicode="&#x2088;" horiz-adv-x="333" 
d="M82 -128q-60 0 -93 21.5t-24 63.5q10 45 53 65q-15 10 -19 25t0 33q8 42 47 63t98 21t89 -21t22 -63q-4 -18 -14.5 -33.5t-30.5 -27.5q35 -20 26 -62t-51.5 -63.5t-102.5 -21.5zM129 45q18 6 24.5 12.5t9.5 20.5q6 27 -31 27t-43 -27q-4 -23 17 -28zM95 -70q44 0 50 29
q2 12 -3 18t-22 10l-26 6q-14 -4 -23.5 -10.5t-12.5 -22.5q-6 -30 37 -30z" />
    <glyph glyph-name="uni2089" unicode="&#x2089;" horiz-adv-x="319" 
d="M61 -128q-23 0 -46 3t-37 8l14 68q14 -5 34.5 -8t40.5 -3q31 0 50 11t23 27l1 5q-32 -19 -66 -19q-56 0 -76.5 25t-10.5 75q10 47 47.5 73.5t101.5 26.5q62 0 89.5 -28.5t15.5 -85.5l-12 -56q-12 -55 -56.5 -88.5t-112.5 -33.5zM107 29q12 0 24 4t23 11l3 16q9 40 -33 40
q-22 0 -33 -9.5t-15 -26.5t2.5 -26t28.5 -9z" />
    <glyph glyph-name="uni2070" unicode="&#x2070;" horiz-adv-x="365" 
d="M202 362q-78 0 -107 38t-15 105q15 71 60 110t125 39q81 0 109 -39t13 -110q-14 -67 -60 -105t-125 -38zM219 441q29 0 43.5 15.5t21.5 48.5q8 37 1 53.5t-37 16.5q-29 0 -43 -16.5t-22 -53.5q-7 -33 0.5 -48.5t35.5 -15.5z" />
    <glyph glyph-name="uni00B9" unicode="&#xb9;" horiz-adv-x="208" 
d="M105 370l38 176l-66 -12l18 85l185 35l-61 -284h-114z" />
    <glyph glyph-name="uni00B2" unicode="&#xb2;" horiz-adv-x="304" 
d="M53 370l10 48q20 22 39 35.5t44 30.5q37 25 51 35.5t17 23.5q6 28 -41 28q-16 0 -36.5 -4.5t-38.5 -11.5l17 80q19 7 53 13t65 6q59 0 84.5 -24.5t17.5 -61.5q-5 -27 -19 -44.5t-43 -39.5q-15 -11 -24 -17t-23 -17h86l-17 -80h-242z" />
    <glyph glyph-name="uni00B3" unicode="&#xb3;" horiz-adv-x="308" 
d="M158 362q-15 0 -36 2t-39.5 5t-28.5 7l15 69q17 -8 36.5 -11.5t37.5 -3.5q29 0 42.5 5.5t16.5 18.5q6 25 -41 25h-44l18 59h37q42 0 47 26q3 11 -9 15.5t-35 4.5q-41 0 -76 -15l15 70q17 5 48 10t59 5q71 0 97 -24t18 -59q-4 -20 -15.5 -36.5t-31.5 -26.5q36 -13 27 -59
q-9 -43 -49.5 -65t-108.5 -22z" />
    <glyph glyph-name="uni2074" unicode="&#x2074;" horiz-adv-x="295" 
d="M166 370l10 46h-133l15 70l168 168h111l-35 -164h29l-16 -74h-29l-10 -46h-110zM158 490h62l17 81z" />
    <glyph glyph-name="uni2075" unicode="&#x2075;" horiz-adv-x="303" 
d="M150 362q-25 0 -53 3.5t-43 10.5l16 71q13 -7 34 -10.5t37 -3.5q31 0 45.5 7t17.5 21q4 16 -6.5 22t-36.5 6h-82l11 50l29 105h214l-19 -69h-115l-8 -27h36q104 0 85 -88q-9 -43 -49 -70.5t-113 -27.5z" />
    <glyph glyph-name="uni2076" unicode="&#x2076;" horiz-adv-x="319" 
d="M181 362q-58 0 -88 28t-18 85l12 56q12 56 57 89.5t113 33.5q23 0 46.5 -3t36.5 -9l-14 -68q-13 6 -34 9t-41 3q-31 0 -50.5 -11t-22.5 -28l-1 -5q14 10 33 14.5t36 4.5q56 0 75.5 -24.5t8.5 -74.5q-10 -47 -47 -73.5t-102 -26.5zM194 426q22 0 32.5 9t13.5 26
q4 17 -1.5 26t-28.5 9q-11 0 -23 -4t-23 -11l-4 -16q-4 -19 4 -29t30 -10z" />
    <glyph glyph-name="uni2077" unicode="&#x2077;" horiz-adv-x="290" 
d="M85 370l125 192h-126l17 82h248l-13 -62l-137 -212h-114z" />
    <glyph glyph-name="uni2078" unicode="&#x2078;" horiz-adv-x="333" 
d="M186 362q-60 0 -92.5 21.5t-23.5 63.5q4 21 18 38t34 27q-15 10 -19 25t0 33q9 42 48 63t98 21t89 -21t21 -63q-4 -18 -14.5 -33.5t-30.5 -27.5q19 -10 25 -25.5t2 -36.5q-9 -42 -52 -63.5t-103 -21.5zM233 535q18 6 24.5 12.5t9.5 20.5q6 27 -31 27t-43 -27
q-4 -23 17 -28zM199 420q44 0 50 29q2 12 -3 18t-22 10l-26 6q-14 -4 -23 -10.5t-13 -22.5q-6 -30 37 -30z" />
    <glyph glyph-name="uni2079" unicode="&#x2079;" horiz-adv-x="319" 
d="M165 362q-23 0 -46 3t-37 8l14 68q14 -5 34.5 -8t40.5 -3q31 0 50.5 11t22.5 27l1 5q-32 -19 -66 -19q-56 0 -76.5 25t-10.5 75q10 47 48 73.5t102 26.5q62 0 89 -28.5t15 -85.5l-12 -56q-11 -55 -56 -88.5t-113 -33.5zM211 519q12 0 24 4t23 11l3 16q9 40 -33 40
q-22 0 -33 -9.5t-15 -26.5t2.5 -26t28.5 -9z" />
    <glyph glyph-name="fraction" unicode="&#x2044;" horiz-adv-x="184" 
d="M-205 0l457 662h165l-457 -662h-165z" />
    <glyph glyph-name="onehalf" unicode="&#xbd;" horiz-adv-x="684" 
d="M116 370l38 176l-66 -12l18 85l185 35l-61 -284h-114zM28 0l473 644h153l-474 -644h-152zM344 0l10 48q20 22 39 35.5t44 30.5q37 25 51 35.5t17 23.5q7 28 -41 28q-17 0 -37 -4.5t-38 -11.5l17 80q20 7 53 13t65 6q59 0 84.5 -24.5t17.5 -61.5q-6 -27 -20 -44.5
t-42 -39.5q-15 -11 -24 -17t-22 -17h85l-17 -80h-242z" />
    <glyph glyph-name="uni2153" unicode="&#x2153;" horiz-adv-x="692" 
d="M116 370l38 176l-66 -12l18 85l185 35l-61 -284h-114zM28 0l473 644h153l-474 -644h-152zM450 -9q-15 0 -36 2t-39.5 5.5t-28.5 7.5l14 68q17 -7 37 -11t37 -4q29 0 43 5.5t16 18.5q6 25 -40 25h-44l18 60h36q43 0 49 25q2 11 -10.5 16t-35.5 5q-19 0 -39 -4.5t-35 -10.5
l14 69q17 6 48 10.5t59 4.5q71 0 97 -23.5t18 -58.5q-9 -44 -47 -63q35 -13 26 -60q-18 -87 -157 -87z" />
    <glyph glyph-name="uni2154" unicode="&#x2154;" horiz-adv-x="726" 
d="M53 370l10 48q20 22 39 35.5t44 30.5q37 25 51 35.5t17 23.5q6 28 -41 28q-16 0 -36.5 -4.5t-38.5 -11.5l17 80q19 7 53 13t65 6q59 0 84.5 -24.5t17.5 -61.5q-5 -27 -19 -44.5t-43 -39.5q-15 -11 -24 -17t-23 -17h86l-17 -80h-242zM43 0l473 644h153l-474 -644h-152z
M465 -9q-15 0 -36 2t-39.5 5t-28.5 7l14 69q17 -8 37 -11.5t37 -3.5q29 0 42.5 5.5t16.5 18.5q6 25 -40 25h-44l18 59h36q43 0 49 26q2 11 -10.5 15.5t-35.5 4.5q-41 0 -74 -15l14 70q17 5 48 10t59 5q71 0 97 -24t18 -59q-10 -44 -47 -63q35 -13 26 -59q-18 -87 -157 -87z
" />
    <glyph glyph-name="onequarter" unicode="&#xbc;" horiz-adv-x="669" 
d="M116 370l38 176l-66 -12l18 85l185 35l-61 -284h-114zM28 0l473 644h153l-474 -644h-152zM443 0l9 46h-134l15 70l169 168h110l-35 -164h30l-16 -74h-30l-9 -46h-109zM433 120h62l17 81z" />
    <glyph glyph-name="threequarters" unicode="&#xbe;" horiz-adv-x="685" 
d="M158 362q-15 0 -36 2t-39.5 5t-28.5 7l15 69q17 -8 36.5 -11.5t37.5 -3.5q29 0 42.5 5.5t16.5 18.5q6 25 -41 25h-44l18 59h37q42 0 47 26q3 11 -9 15.5t-35 4.5q-41 0 -76 -15l15 70q17 5 48 10t59 5q71 0 97 -24t18 -59q-4 -20 -15.5 -36.5t-31.5 -26.5q36 -13 27 -59
q-9 -43 -49.5 -65t-108.5 -22zM44 0l473 644h153l-474 -644h-152zM448 0l9 46h-134l15 70l169 168h110l-35 -164h30l-16 -74h-30l-9 -46h-109zM438 120h62l17 81z" />
    <glyph glyph-name="oneeighth" unicode="&#x215b;" horiz-adv-x="691" 
d="M116 370l38 176l-66 -12l18 85l185 35l-61 -284h-114zM28 0l473 644h153l-474 -644h-152zM454 -10q-60 0 -92.5 21.5t-24.5 63.5q10 45 53 65q-15 10 -19 25t0 33q8 42 47 63t98 21t89 -21t22 -63q-4 -18 -14.5 -33.5t-30.5 -27.5q35 -20 26 -62q-8 -42 -51 -63.5
t-103 -21.5zM501 163q18 6 24.5 12.5t9.5 20.5q6 27 -31 27t-43 -27q-4 -23 17 -28zM467 48q44 0 50 29q2 12 -3 18t-22 10l-26 6q-14 -4 -23 -10.5t-13 -22.5q-6 -30 37 -30z" />
    <glyph glyph-name="threeeighths" unicode="&#x215c;" horiz-adv-x="702" 
d="M158 362q-15 0 -36 2t-39.5 5t-28.5 7l15 69q17 -8 36.5 -11.5t37.5 -3.5q29 0 42.5 5.5t16.5 18.5q6 25 -41 25h-44l18 59h37q42 0 47 26q3 11 -9 15.5t-35 4.5q-41 0 -76 -15l15 70q17 5 48 10t59 5q71 0 97 -24t18 -59q-4 -20 -15.5 -36.5t-31.5 -26.5q36 -13 27 -59
q-9 -43 -49.5 -65t-108.5 -22zM31 0l474 644h153l-475 -644h-152zM458 -10q-60 0 -93 21.5t-25 63.5q10 45 54 65q-15 10 -19 25t0 33q8 42 47 63t98 21t89 -21t22 -63q-4 -18 -14.5 -33.5t-31.5 -27.5q20 -10 25.5 -25.5t0.5 -36.5q-8 -42 -50.5 -63.5t-102.5 -21.5z
M505 163q17 6 24 12.5t10 20.5q6 27 -31 27t-43 -27q-4 -23 17 -28zM471 48q43 0 49 29q2 12 -3 18t-22 10l-25 6q-15 -4 -24 -10.5t-13 -22.5q-6 -30 38 -30z" />
    <glyph glyph-name="fiveeighths" unicode="&#x215d;" horiz-adv-x="688" 
d="M28 0l473 644h153l-474 -644h-152zM150 362q-25 0 -53 3.5t-43 10.5l16 71q13 -7 34 -10.5t37 -3.5q31 0 45.5 7t17.5 21q4 16 -6.5 22t-36.5 6h-82l11 50l29 105h214l-19 -69h-115l-8 -27h36q104 0 85 -88q-9 -43 -49 -70.5t-113 -27.5zM454 -10q-60 0 -92.5 21.5
t-24.5 63.5q10 45 53 65q-15 10 -19 25t0 33q8 42 47 63t98 21t89 -21t22 -63q-4 -18 -14.5 -33.5t-30.5 -27.5q35 -20 26 -62q-8 -42 -51 -63.5t-103 -21.5zM501 163q18 6 24.5 12.5t9.5 20.5q6 27 -31 27t-43 -27q-4 -23 17 -28zM467 48q44 0 50 29q2 12 -3 18t-22 10
l-26 6q-14 -4 -23 -10.5t-13 -22.5q-6 -30 37 -30z" />
    <glyph glyph-name="seveneighths" unicode="&#x215e;" horiz-adv-x="687" 
d="M23 0l473 644h153l-474 -644h-152zM95 370l125 192h-126l17 82h248l-13 -62l-137 -212h-114zM449 -10q-60 0 -92.5 21.5t-24.5 63.5q10 45 53 65q-15 10 -19 25t0 33q8 42 47 63t98 21t89 -21t22 -63q-4 -18 -14.5 -33.5t-30.5 -27.5q35 -20 26 -62q-8 -42 -51 -63.5
t-103 -21.5zM496 163q18 6 24.5 12.5t9.5 20.5q6 27 -31 27t-43 -27q-4 -23 17 -28zM462 48q44 0 50 29q2 12 -3 18t-22 10l-26 6q-14 -4 -23 -10.5t-13 -22.5q-6 -30 37 -30z" />
    <glyph glyph-name="uni0E50" unicode="&#xe50;" horiz-adv-x="608" 
d="M245 -10q-74 0 -130.5 26.5t-82 81t-7.5 139.5q27 126 113 186.5t212 60.5q74 0 130 -26.5t82 -81.5t8 -139q-27 -127 -112 -187t-213 -60zM271 112q59 0 96 29t51 96q14 66 -7.5 95.5t-86.5 29.5q-58 0 -95.5 -29.5t-51.5 -95.5q-14 -67 7.5 -96t86.5 -29z" />
    <glyph glyph-name="uni0E51" unicode="&#xe51;" horiz-adv-x="632" 
d="M220 -108l26 125q93 23 135 73t59 132q14 68 -9.5 104t-96.5 36q-67 0 -104 -24.5t-48 -78.5q-10 -46 4 -66.5t66 -20.5q19 0 43 4.5t42 13.5l-23 -109q-23 -12 -55.5 -19.5t-70.5 -7.5q-57 0 -98 23.5t-58 69t-3 111.5q24 110 104.5 168t226.5 58q138 0 198.5 -67.5
t32.5 -198.5q-25 -120 -114.5 -206.5t-256.5 -119.5z" />
    <glyph glyph-name="uni0E52" unicode="&#xe52;" horiz-adv-x="717" 
d="M313 -10q-95 0 -160.5 30t-94 86t-12.5 134l63 300h134l-60 -283q-11 -55 -2.5 -90t45.5 -51.5t111 -16.5q86 0 130 33t56 91l24 114q9 40 -20 40q-20 0 -30 -15.5t-16 -34.5h-74q2 18 -1 34t-20 16q-19 0 -31 -16t-20 -52q-7 -31 3.5 -44t50.5 -13q32 0 59 9l-19 -89
q-18 -7 -39.5 -11.5t-46.5 -4.5q-67 0 -101 38t-19 116q18 94 59.5 134t99.5 40q32 0 53.5 -11t32.5 -37q26 26 57 37t62 11q66 0 87.5 -37t7.5 -99l-24 -116q-15 -73 -54 -127.5t-109.5 -84.5t-181.5 -30z" />
    <glyph glyph-name="uni0E53" unicode="&#xe53;" horiz-adv-x="648" 
d="M192 -10q-61 0 -106 23.5t-63.5 75t-0.5 136.5q29 135 89.5 197t145.5 62q37 0 61 -13t40 -40q30 28 64 40.5t73 12.5q67 0 100.5 -38t19.5 -104l-72 -342h-149l66 311q5 26 -2 35.5t-27 9.5q-38 0 -47 -41l-16 -76h-102l17 77q4 20 -5 30t-26 10q-31 0 -51.5 -31.5
t-35.5 -101.5q-14 -66 5 -89t80 -23q18 0 37.5 1.5t32.5 5.5l-24 -113q-21 -7 -45.5 -11t-58.5 -4z" />
    <glyph glyph-name="uni0E54" unicode="&#xe54;" horiz-adv-x="621" 
d="M209 -10q-63 0 -112 24.5t-70.5 76t-4.5 131.5q18 84 62.5 142.5t123 89t197.5 30.5q80 0 136.5 8t105.5 34l-25 -117q-37 -22 -99.5 -31t-133.5 -9q-99 0 -150 -34t-67 -113q-13 -66 5 -92t72 -26q13 0 26 4q-1 11 0 24t4 28q14 71 63 108.5t134 37.5q30 0 57 -5t49 -16
l-20 -96q-30 15 -70 15q-32 0 -52.5 -9.5t-26.5 -36.5q-5 -25 7 -34.5t37.5 -10.5t57.5 -1h62l-23 -112h-95q-33 0 -62.5 5t-52.5 15q-34 -16 -67 -23t-68 -7z" />
    <glyph glyph-name="uni0E55" unicode="&#xe55;" horiz-adv-x="619" 
d="M209 -10q-63 0 -112 24.5t-70.5 76t-4.5 131.5q17 81 62.5 132.5t123.5 84.5q-15 2 -29.5 11.5t-20.5 14.5l20 94q15 -14 45 -27.5t66 -24t69.5 -17t54.5 -6.5q77 0 131.5 8.5t102.5 33.5l-25 -117q-37 -22 -99.5 -31t-133.5 -9q-95 0 -148 -34t-69 -113q-13 -66 5 -92
t72 -26q13 0 26 4q-1 11 0 24t4 28q14 71 63 108.5t134 37.5q30 0 57 -5t49 -16l-20 -96q-30 15 -70 15q-32 0 -52.5 -9.5t-26.5 -36.5q-5 -25 7 -34.5t37.5 -10.5t57.5 -1h62l-23 -112h-95q-33 0 -62.5 5t-52.5 15q-34 -16 -67 -23t-68 -7z" />
    <glyph glyph-name="uni0E56" unicode="&#xe56;" horiz-adv-x="641" 
d="M266 -10q-53 0 -98.5 11t-80.5 36l26 119q38 -25 80 -34.5t85 -9.5q69 0 114 30t59 95q13 62 -7 93.5t-85 31.5q-47 0 -89 -28t-64 -81h-101l-36 287h136l14 -131q36 35 87.5 55t107.5 20q76 0 123.5 -32t64.5 -88t2 -127q-25 -118 -107 -182.5t-231 -64.5z" />
    <glyph glyph-name="uni0E57" unicode="&#xe57;" horiz-adv-x="848" 
d="M192 -10q-64 0 -108.5 23.5t-62 75.5t0.5 136q29 135 85.5 197t143.5 62q40 0 62 -13t37 -40q31 28 61 40.5t76 12.5q71 0 97 -37t12 -104l-47 -225h15q39 0 55.5 16t26.5 59l73 347h136l-69 -324q-15 -73 -44 -121t-79.5 -71.5t-131.5 -23.5h-139l66 311q5 25 -1 35
t-29 10q-16 0 -29 -10.5t-18 -30.5l-16 -76h-110l16 76q9 41 -26 41q-33 0 -50.5 -36t-29.5 -97q-9 -45 -5 -70t25.5 -34.5t64.5 -9.5q15 0 36 2t34 6l-23 -111q-40 -16 -105 -16z" />
    <glyph glyph-name="uni0E58" unicode="&#xe58;" horiz-adv-x="624" 
d="M146 -10q-74 0 -111 59.5t-13 174.5q18 86 61.5 143.5t120 87t193.5 29.5q82 0 141 8t110 34l-25 -117q-44 -22 -104 -31t-143 -9q-69 0 -111.5 -13t-65.5 -44.5t-35 -87.5q-15 -71 -7.5 -95.5t40.5 -24.5q20 0 35.5 11t19.5 30l16 73h100l-16 -74q-4 -20 9 -30t30 -10
t28 4.5t21 12.5l20 92h-52l26 91h167l-56 -262q-30 -25 -64.5 -38.5t-84.5 -13.5q-36 0 -64.5 13t-45.5 38q-27 -27 -62 -39t-78 -12z" />
    <glyph glyph-name="uni0E59" unicode="&#xe59;" horiz-adv-x="744" 
d="M163 -10q-49 0 -87 24.5t-54 77t1 134.5q29 132 86 195t155 63q44 0 66.5 -14t31.5 -40q23 26 56.5 40t70.5 14q57 0 86 -29.5t22 -70.5l-2 -12h5q25 0 36.5 12t20.5 54l17 82h113l-11 -54q-16 -81 -42 -124.5t-68 -60t-108 -16.5h-78l8 40q7 31 3 45t-28 14
q-22 0 -33.5 -15.5t-9.5 -42.5l25 -306h-134l-28 323q-1 20 -8.5 30.5t-31.5 10.5q-27 0 -46 -32.5t-36 -109.5q-15 -70 -3.5 -95t54.5 -25q25 0 50 7l-24 -112q-31 -7 -75 -7z" />
    <glyph glyph-name="period" unicode="." horiz-adv-x="191" 
d="M-25 0l25 118h129l-25 -118h-129z" />
    <glyph glyph-name="comma" unicode="," horiz-adv-x="231" 
d="M-51 -120l77 213h137l-99 -213h-115z" />
    <glyph glyph-name="colon" unicode=":" horiz-adv-x="191" 
d="M43 320l25 120h128l-25 -120h-128zM-21 20l25 120h128l-25 -120h-128z" />
    <glyph glyph-name="semicolon" unicode=";" horiz-adv-x="231" 
d="M80 320l25 120h129l-25 -120h-129zM-51 -120l77 213h137l-99 -213h-115z" />
    <glyph glyph-name="ellipsis" unicode="&#x2026;" horiz-adv-x="602" 
d="M386 0l25 118h129l-25 -118h-129zM-25 0l25 118h129l-25 -118h-129zM181 0l25 118h128l-25 -118h-128z" />
    <glyph glyph-name="exclam" unicode="!" horiz-adv-x="231" 
d="M22 176l57 299l36 169h161l-36 -169l-69 -299h-149zM-25 0l24 116h169l-24 -116h-169z" />
    <glyph glyph-name="exclamdown" unicode="&#xa1;" horiz-adv-x="231" 
d="M50 358l24 116h169l-24 -116h-169zM-58 -170l36 169l69 299h149l-57 -299l-36 -169h-161z" />
    <glyph glyph-name="question" unicode="?" horiz-adv-x="498" 
d="M115 177l4 19q8 40 30.5 67t56.5 53q31 25 59.5 43t49 38t26.5 47q8 39 -11.5 55.5t-87.5 16.5q-46 0 -90 -10.5t-76 -26.5l29 135q41 18 94 29t113 11q72 0 120 -24t68.5 -66.5t8.5 -98.5q-11 -56 -41.5 -90.5t-82.5 -70.5q-43 -31 -73 -53.5t-38 -60.5l-3 -13h-156z
M71 0l24 116h169l-24 -116h-169z" />
    <glyph glyph-name="questiondown" unicode="&#xbf;" horiz-adv-x="498" 
d="M221 358l24 116h169l-24 -116h-169zM173 -180q-107 0 -160 52.5t-37 136.5q11 56 41.5 90t82.5 71q44 31 73 54t38 60l3 13h156l-4 -19q-8 -40 -30.5 -66.5t-56.5 -53.5q-31 -24 -59.5 -42.5t-49 -38t-26.5 -47.5q-8 -39 12 -55.5t87 -16.5q47 0 90.5 10.5t75.5 26.5
l-29 -135q-40 -18 -93.5 -29t-113.5 -11z" />
    <glyph glyph-name="periodcentered" unicode="&#xb7;" horiz-adv-x="191" 
d="M23 227l25 118h129l-25 -118h-129z" />
    <glyph glyph-name="bullet" unicode="&#x2022;" horiz-adv-x="325" 
d="M139 156q-55 0 -85 38t-18 93q8 37 31.5 66.5t57 47.5t70.5 18t63 -18t37.5 -47.5t3.5 -66.5t-32 -66.5t-57.5 -47t-70.5 -17.5z" />
    <glyph glyph-name="asterisk" unicode="*" horiz-adv-x="440" 
d="M160 300l-82 72l99 85l-97 44l69 93l76 -46l15 96h120l-25 -96l96 46l26 -98l-115 -44l63 -85l-102 -67l-50 97z" />
    <glyph glyph-name="numbersign" unicode="#" horiz-adv-x="708" 
d="M-5 0l82 157h-69l22 105h102l63 119h-98l23 106h130l83 157h139l-83 -157h130l83 157h139l-83 -157h66l-23 -106h-99l-62 -119h94l-22 -105h-128l-82 -157h-138l82 157h-131l-82 -157h-138zM271 262h130l63 119h-131z" />
    <glyph glyph-name="slash" unicode="/" horiz-adv-x="461" 
d="M-25 0l374 662h165l-374 -662h-165z" />
    <glyph glyph-name="backslash" unicode="\" horiz-adv-x="482" 
d="M216 -54l-101 716h168l100 -716h-167z" />
    <glyph glyph-name="uni208D" unicode="&#x208d;" horiz-adv-x="224" 
d="M-3 -146q-19 29 -24 71.5t5 90.5q10 47 33 90t55 72h108q-40 -33 -64 -75.5t-33 -86.5q-10 -46 -4 -88t32 -74h-108z" />
    <glyph glyph-name="uni208E" unicode="&#x208e;" horiz-adv-x="224" 
d="M-56 -146q41 32 64 74t33 88q9 44 3.5 86.5t-32.5 75.5h108q20 -29 25 -72t-5 -90q-10 -48 -33 -90.5t-56 -71.5h-107z" />
    <glyph glyph-name="parenleft" unicode="(" horiz-adv-x="355" 
d="M88 -72q-53 65 -63 164.5t14 210.5q23 110 75.5 210t133.5 165h183q-95 -72 -149.5 -167.5t-78.5 -207.5t-10 -207.5t78 -167.5h-183z" />
    <glyph glyph-name="parenright" unicode=")" horiz-adv-x="355" 
d="M-60 -72q95 72 149 167.5t78 207.5t10.5 207.5t-78.5 167.5h184q52 -65 61.5 -165t-13.5 -210q-24 -111 -76 -210.5t-132 -164.5h-183z" />
    <glyph glyph-name="braceleft" unicode="{" horiz-adv-x="320" 
d="M120 -104q-63 0 -89 31t-13 96l32 147q8 38 -1 57.5t-41 23.5l20 94q38 5 53.5 27.5t25.5 67.5l28 133q14 65 47.5 96.5t109.5 31.5h99l-27 -124h-25q-25 0 -36 -11.5t-16 -37.5l-29 -136q-7 -31 -24.5 -55.5t-46.5 -38.5q23 -14 30.5 -38.5t0.5 -55.5l-29 -136
q-5 -25 1 -36.5t31 -11.5h25l-27 -124h-99z" />
    <glyph glyph-name="braceright" unicode="}" horiz-adv-x="320" 
d="M-57 -104l26 124h25q25 0 36 11.5t16 36.5l29 136q7 31 25 55.5t46 38.5q-22 14 -30 38.5t-1 55.5l29 136q5 26 -1 37.5t-31 11.5h-25l27 124h99q66 0 90.5 -31.5t10.5 -96.5l-28 -133q-10 -45 -3.5 -67.5t42.5 -27.5l-20 -94q-34 -4 -51 -23.5t-25 -57.5l-32 -147
q-9 -43 -25 -71.5t-47 -42t-84 -13.5h-98z" />
    <glyph glyph-name="bracketleft" unicode="[" horiz-adv-x="367" 
d="M-47 -99l172 805h309l-22 -124h-153l-118 -557h154l-32 -124h-310z" />
    <glyph glyph-name="bracketright" unicode="]" horiz-adv-x="367" 
d="M-52 -99l22 124h154l118 557h-153l32 124h309l-172 -805h-310z" />
    <glyph glyph-name="uni207D" unicode="&#x207d;" horiz-adv-x="224" 
d="M103 352q-20 29 -24.5 71.5t5.5 90.5q10 47 33 90t55 72h108q-40 -33 -64 -75.5t-33 -86.5q-10 -46 -4.5 -88t32.5 -74h-108z" />
    <glyph glyph-name="uni207E" unicode="&#x207e;" horiz-adv-x="224" 
d="M49 352q41 32 64.5 74t33.5 88q9 44 3.5 86.5t-32.5 75.5h108q20 -29 25 -72t-5 -90q-10 -48 -33.5 -90.5t-55.5 -71.5h-108z" />
    <glyph glyph-name="hyphen" unicode="-" horiz-adv-x="457" 
d="M20 215l27 125h395l-27 -125h-395z" />
    <glyph glyph-name="uni00AD" unicode="&#xad;" horiz-adv-x="457" 
d="M20 215l27 125h395l-27 -125h-395z" />
    <glyph glyph-name="endash" unicode="&#x2013;" horiz-adv-x="557" 
d="M20 215l27 125h495l-27 -125h-495z" />
    <glyph glyph-name="emdash" unicode="&#x2014;" horiz-adv-x="820" 
d="M20 215l27 125h758l-27 -125h-758z" />
    <glyph glyph-name="figuredash" unicode="&#x2012;" horiz-adv-x="583" 
d="M20 215l27 125h521l-27 -125h-521z" />
    <glyph glyph-name="uni2015" unicode="&#x2015;" horiz-adv-x="863" 
d="M20 215l27 125h801l-27 -125h-801z" />
    <glyph glyph-name="uni2010" unicode="&#x2010;" horiz-adv-x="490" 
d="M20 215l27 125h428l-27 -125h-428z" />
    <glyph glyph-name="underscore" unicode="_" horiz-adv-x="525" 
d="M-52 -125l27 125h463l-27 -125h-463z" />
    <glyph glyph-name="quotesinglbase" unicode="&#x201a;" horiz-adv-x="257" 
d="M-64 -185l105 218h136l-121 -218h-120z" />
    <glyph glyph-name="quotedblbase" unicode="&#x201e;" horiz-adv-x="412" 
d="M-48 -106l105 217h124l-120 -217h-109zM119 -106l104 217h124l-120 -217h-108z" />
    <glyph glyph-name="quotedblleft" unicode="&#x201c;" horiz-adv-x="412" 
d="M67 436l121 218h109l-106 -218h-124zM234 436l121 218h108l-105 -218h-124z" />
    <glyph glyph-name="quotedblright" unicode="&#x201d;" horiz-adv-x="412" 
d="M67 436l106 218h124l-121 -218h-109zM234 436l105 218h124l-121 -218h-108z" />
    <glyph glyph-name="quoteleft" unicode="&#x2018;" horiz-adv-x="257" 
d="M67 436l121 218h121l-106 -218h-136z" />
    <glyph glyph-name="quoteright" unicode="&#x2019;" horiz-adv-x="257" 
d="M67 436l106 218h136l-121 -218h-121z" />
    <glyph glyph-name="guillemotleft" unicode="&#xab;" horiz-adv-x="657" 
d="M520 58l-225 196l13 61l308 196l43 -96l-214 -137l156 -137zM253 58l-225 196l13 61l308 196l42 -96l-213 -137l155 -137z" />
    <glyph glyph-name="guillemotright" unicode="&#xbb;" horiz-adv-x="657" 
d="M316 58l-43 95l214 137l-156 137l81 84l224 -196l-13 -61zM48 58l-42 95l213 137l-155 137l80 84l224 -196l-13 -61z" />
    <glyph glyph-name="guilsinglleft" unicode="&#x2039;" horiz-adv-x="390" 
d="M253 58l-225 196l13 61l308 196l42 -96l-213 -137l155 -137z" />
    <glyph glyph-name="guilsinglright" unicode="&#x203a;" horiz-adv-x="390" 
d="M48 58l-42 95l213 137l-155 137l80 84l224 -196l-13 -61z" />
    <glyph glyph-name="quotedbl" unicode="&#x22;" horiz-adv-x="382" 
d="M252 431l45 213h134l-60 -213h-119zM66 431l45 213h134l-60 -213h-119z" />
    <glyph glyph-name="quotesingle" unicode="'" horiz-adv-x="196" 
d="M66 431l45 213h134l-60 -213h-119z" />
    <glyph glyph-name="uni0E5A" unicode="&#xe5a;" horiz-adv-x="909" 
d="M299 0l49 235q-25 -12 -64 -21.5t-77 -9.5q-58 0 -101.5 20.5t-62.5 62t-6 103.5q10 44 30 81t48 69h154q-27 -34 -43.5 -66t-23.5 -64q-10 -46 5 -67t64 -21q32 0 56 7.5t46 21.5l40 189h161l-38 -180q8 -17 28 -27.5t48 -10.5q31 0 54 7.5t45 21.5l40 189h162
l-114 -540h-162l49 233q-22 -12 -52.5 -20.5t-60.5 -8.5q-19 0 -35.5 4t-30.5 14l-47 -222h-161z" />
    <glyph glyph-name="uni0E4F" unicode="&#xe4f;" horiz-adv-x="594" 
d="M237 -10q-73 0 -126 35.5t-75.5 95.5t-6.5 134t62 134t113.5 96t145.5 36q74 0 126.5 -36t76 -96t7.5 -134t-62.5 -134t-113.5 -95.5t-147 -35.5zM258 87q47 0 89.5 23t73.5 61t41 84t-1 84t-43.5 61t-88.5 23q-46 0 -89 -23t-73.5 -61t-40.5 -84t2 -84t45 -61t85 -23z
M268 132q-56 0 -82 36t-15 87q7 34 29.5 62t54.5 44.5t65 16.5q57 0 82.5 -36t14.5 -87q-7 -34 -29.5 -62t-54 -44.5t-65.5 -16.5zM284 208q20 0 37 14t21 33q4 20 -4 33.5t-34 13.5q-19 0 -35.5 -13.5t-20.5 -33.5q-4 -19 4 -33t32 -14z" />
    <glyph glyph-name="uni0E5B" unicode="&#xe5b;" horiz-adv-x="1152" 
d="M261 22q-76 0 -134 31t-83.5 90.5t-7.5 144.5q16 75 52 134.5t95 93.5t144 34q68 0 111.5 -25t61.5 -67t8 -95q-16 -84 -69 -127.5t-133 -60.5l20 95q39 16 56 35.5t24 53.5q9 44 -11 69t-80 25q-64 0 -104.5 -44t-55.5 -115q-19 -89 8 -130.5t119 -41.5q113 0 181 58.5
t90 164.5q7 34 11.5 64.5t5.5 58.5h109q28 -71 33 -153h2q10 18 21.5 42t21 49t14.5 44h76q7 -23 12.5 -58.5t6.5 -70.5h2q13 23 27.5 55t22.5 57h66q6 -19 9.5 -51.5t4.5 -55.5h2q25 38 35 89h70q-2 -13 -6.5 -27.5t-9.5 -25.5h52l-23 -83h-66q-20 -38 -53 -77h-57
q1 15 -2.5 41t-8.5 41h-2q-4 -11 -12.5 -31t-19 -40.5t-20.5 -34.5h-79q1 28 -3 61.5t-12 58.5h-2q-10 -32 -27.5 -70t-36.5 -72h-78q3 35 2 75t-9 70h-2q-22 -83 -72 -146t-125 -98t-172 -35z" />
    <glyph glyph-name="uni0E46" unicode="&#xe46;" horiz-adv-x="620" 
d="M331 0l82 386q5 23 -1 33t-26 10q-15 0 -27 -10.5t-23 -28.5h-50q-2 18 -7.5 28.5t-22.5 10.5q-41 0 -58 -80q-10 -43 2 -59t54 -16q17 0 35 2t31 6l-24 -113q-20 -7 -46.5 -11.5t-58.5 -4.5q-55 0 -96.5 23t-59.5 66t-6 103q12 55 37 101.5t67.5 75t105.5 28.5
q35 0 58 -11.5t39 -39.5q29 28 61.5 39.5t70.5 11.5q66 0 95.5 -39t14.5 -110l-85 -401h-162z" />
    <glyph glyph-name="uni0E2F" unicode="&#xe2f;" horiz-adv-x="570" 
d="M299 0l49 235q-25 -12 -61.5 -21.5t-74.5 -9.5q-56 0 -100.5 20.5t-66 62t-8.5 103.5q10 44 30 81t48 69h154q-27 -34 -43.5 -66t-23.5 -64q-10 -46 6 -67t63 -21q32 0 56 7.5t46 21.5l40 189h161l-114 -540h-161z" />
    <glyph glyph-name="uni2007" unicode="&#x2007;" horiz-adv-x="661" 
 />
    <glyph glyph-name="space" unicode=" " horiz-adv-x="215" 
 />
    <glyph glyph-name="uni00A0" unicode="&#xa0;" horiz-adv-x="215" 
 />
    <glyph glyph-name="CR" unicode="&#xd;" horiz-adv-x="215" 
 />
    <glyph glyph-name="uni0E3F" unicode="&#xe3f;" horiz-adv-x="641" 
d="M187 -86l18 86h-210l136 644h211l19 86h98l-19 -86h23q96 0 140 -48t27 -128q-11 -51 -37.5 -85.5t-63.5 -53.5q41 -16 59 -49.5t6 -90.5q-19 -92 -80.5 -140.5t-168.5 -48.5h-42l-18 -86h-98zM237 382h49l32 146h-50zM385 382q34 4 52.5 22.5t25.5 49.5q6 32 -3.5 50
t-44.5 22zM180 115h50l33 156h-50zM328 115q48 0 70.5 18t32.5 64q8 35 -7.5 54t-62.5 20z" />
    <glyph glyph-name="uni20B5" unicode="&#x20b5;" horiz-adv-x="603" 
d="M210 -120l25 117q-117 22 -169 105t-24 215q30 141 111 226.5t220 104.5l19 87h99l-17 -81q53 -1 94 -10t78 -23l-29 -141q-78 35 -173 36l-83 -389q47 0 94.5 8.5t94.5 26.5l-30 -142q-43 -13 -88 -20.5t-100 -9.5l-23 -110h-99zM265 139l77 361q-52 -20 -86.5 -65
t-49.5 -118q-16 -75 -3 -118t62 -60z" />
    <glyph glyph-name="cent" unicode="&#xa2;" horiz-adv-x="501" 
d="M181 -86l16 79q-94 11 -142 73t-24 171q24 114 91 174.5t180 70.5l17 78h99l-17 -79q57 -6 98 -27l-21 -97q-18 10 -43.5 17t-54.5 8l-62 -290q29 2 57 8.5t54 18.5l-21 -100q-26 -10 -54 -16.5t-57 -9.5l-17 -79h-99zM220 99l59 275q-43 -13 -71 -45t-40 -92
q-13 -58 -2 -91.5t54 -46.5z" />
    <glyph glyph-name="colonmonetary" unicode="&#x20a1;" horiz-adv-x="579" 
d="M61 -31l50 106q-46 32 -64.5 90t0.5 146q31 146 111.5 218.5t202.5 82.5l28 59h80l-27 -58q26 -1 48 -6l30 64h80l-39 -83l18 -6l-25 -118l-43 17l-157 -336q35 3 69 11.5t71 21.5l-25 -119q-41 -13 -81 -20.5t-88 -8.5l-28 -61h-80l30 65q-12 2 -23.5 4t-22.5 6l-35 -75
h-80zM274 146l164 350q-22 3 -46 3h-4l-160 -343q18 -7 46 -10zM177 218l123 263q-43 -19 -72.5 -61t-43.5 -109q-6 -28 -8 -51.5t1 -41.5z" />
    <glyph glyph-name="currency" unicode="&#xa4;" horiz-adv-x="570" 
d="M54 41l-52 87l90 57q-13 38 -3 84t38 82l-64 59l88 86l67 -65q24 14 51 22t56 8q59 0 96 -31l97 65l52 -85l-92 -59q14 -38 5 -82q-5 -22 -15.5 -43.5t-24.5 -39.5l65 -60l-87 -84l-69 63q-51 -30 -108 -30q-56 0 -94 30zM267 188q34 0 63 23.5t36 57.5t-7.5 57.5
t-56.5 23.5q-34 0 -61.5 -23.5t-34.5 -57.5t7 -57.5t54 -23.5z" />
    <glyph glyph-name="dollar" unicode="$" horiz-adv-x="555" 
d="M157 -86l16 77q-54 2 -98 11.5t-75 28.5l23 113q37 -17 82.5 -27.5t91.5 -12.5l38 177l-11 4q-80 24 -120 67t-24 117q17 77 75.5 124t158.5 58l17 79h99l-17 -77q45 -3 81.5 -11t61.5 -19l-25 -115q-31 13 -67.5 21t-74.5 9l-36 -168q92 -28 126 -77.5t20 -116.5
q-16 -73 -66.5 -121t-159.5 -61l-17 -80h-99zM260 400l29 132q-29 -6 -48 -21t-24 -42q-5 -25 4.5 -40.5t38.5 -28.5zM298 111q26 7 41.5 22t21.5 43q5 26 -2 42.5t-32 29.5z" />
    <glyph glyph-name="dong" unicode="&#x20ab;" horiz-adv-x="583" 
d="M191 -10q-59 0 -103.5 25.5t-63 79t-0.5 138.5q27 128 100.5 189.5t178.5 61.5q76 0 123 -32l14 69h-150l22 102h150l11 51h161l-11 -51h30l-22 -102h-30l-110 -521h-139l-1 40q-34 -25 -73 -37.5t-87 -12.5zM262 107q53 0 98 36l41 192q-28 31 -81 31q-51 0 -84 -32
t-48 -102q-15 -68 2 -96.5t72 -28.5zM-21 -161l25 114h460l-25 -114h-460z" />
    <glyph glyph-name="Euro" unicode="&#x20ac;" horiz-adv-x="583" 
d="M331 -10q-121 0 -185.5 55.5t-71.5 152.5h-67l18 85h53q1 8 2.5 15.5t2.5 14.5q2 8 3.5 16t3.5 15h-52l18 85h61q28 70 72.5 120t113.5 77.5t168 27.5q56 0 92 -9t73 -24l-29 -139q-37 19 -71 26.5t-84 7.5q-61 0 -100.5 -21.5t-64.5 -65.5h165l-18 -85h-180
q-2 -7 -3.5 -15t-3.5 -16t-3 -15.5t-3 -14.5h180l-18 -85h-166q7 -37 38.5 -54t96.5 -17q48 0 83.5 7t83.5 25l-29 -139q-44 -15 -82 -22.5t-97 -7.5z" />
    <glyph glyph-name="florin" unicode="&#x192;" horiz-adv-x="514" 
d="M-63 -123q-36 0 -62 5.5t-46 15.5l46 107q25 -11 54 -11q36 0 59.5 14t40.5 54l121 290h-63l52 122h63l17 39q22 54 53.5 93.5t79.5 61.5t117 22q36 0 62 -5.5t47 -15.5l-46 -108q-13 5 -26 8t-29 3q-39 0 -61 -14.5t-36 -47.5l-16 -36h116l-59 -122h-109l-125 -299
q-23 -55 -55 -94.5t-79 -60.5t-116 -21z" />
    <glyph glyph-name="uni20B2" unicode="&#x20b2;" horiz-adv-x="647" 
d="M233 -120l24 113q-130 14 -188 97.5t-28 222.5q31 145 119.5 233t236.5 104l18 85h99l-18 -82q48 -1 87 -8t73 -19l-30 -138q-36 14 -75.5 20.5t-83.5 7.5l-32 -150h202l-68 -319q-34 -20 -87.5 -35.5t-126.5 -20.5l-23 -111h-99zM286 131l80 375q-127 -34 -161 -193
q-19 -85 -2.5 -128t83.5 -54zM385 129q42 3 70 14l26 122h-67z" />
    <glyph glyph-name="lira" unicode="&#x20a4;" horiz-adv-x="489" 
d="M-25 0l25 121h23q27 0 40.5 16t20.5 42h-64l20 97h64l8 35h-64l20 97h64l10 45q13 60 38 105t71 70.5t119 25.5q41 0 71 -6.5t52 -17.5l-22 -107q-13 7 -33.5 10t-40.5 3q-32 0 -50 -8t-27.5 -27t-17.5 -53l-9 -40h151l-26 -97h-145l-8 -35h151l-26 -97h-145
q-9 -39 -35 -58h217l-25 -121h-427z" />
    <glyph glyph-name="uni20BA" unicode="&#x20ba;" horiz-adv-x="584" 
d="M60 0l62 292l-85 -26l15 72l85 26l14 66l-85 -26l16 72l84 26l30 142h127l-21 -100l180 56l-15 -71l-180 -56l-14 -67l180 56l-15 -71l-180 -56l-52 -241q176 9 212 177l12 55h128l-9 -42q-60 -284 -374 -284h-115z" />
    <glyph glyph-name="uni20A6" unicode="&#x20a6;" horiz-adv-x="682" 
d="M32 0l34 162h-57l22 102h56l16 76h-56l21 102h57l43 202h139l124 -384l81 384h161l-43 -202h57l-21 -102h-58l-16 -76h58l-22 -102h-57l-34 -162h-139l-123 382l-81 -382h-162z" />
    <glyph glyph-name="peseta" unicode="&#x20a7;" horiz-adv-x="1301" 
d="M668 -10q-76 0 -114 45t-22 124l17 80h-107q-34 -25 -76.5 -38.5t-94.5 -13.5h-76l-39 -187h-161l136 644h241q68 0 112 -30.5t60.5 -82.5t2.5 -117q-3 -15 -7.5 -29t-9.5 -28h44l25 117l170 35l-33 -152h114l-28 -118h-111l-15 -70q-7 -36 6.5 -49.5t47.5 -13.5
q30 0 61 10l-22 -106q-51 -20 -121 -20zM222 313h42q50 0 81 27.5t40 73.5q11 50 -3.5 77t-71.5 27h-44zM990 -10q-57 0 -105.5 8t-76.5 20l26 123q32 -15 76.5 -23t80.5 -8q43 0 63 4t24 22q5 20 -25 30t-83 29q-61 23 -87.5 53.5t-13.5 90.5q14 70 75 107.5t176 37.5
q44 0 87 -7t68 -16l-25 -121q-26 13 -60 19t-63 6q-37 0 -63.5 -4.5t-29.5 -21.5q-4 -19 22 -26.5t76 -24.5q51 -17 78 -36.5t34.5 -46.5t-1.5 -68q-16 -71 -79.5 -109t-173.5 -38z" />
    <glyph glyph-name="uni20B1" unicode="&#x20b1;" horiz-adv-x="623" 
d="M1 0l70 331h-35l17 80h35l5 24h-35l17 80h35l27 129h272q77 0 122 -35.5t55 -93.5h56l-17 -80h-40q0 -4 -0.5 -7t-1.5 -6l-3 -11h40l-17 -80h-55q-34 -60 -94 -94.5t-143 -34.5h-133l-42 -202h-135zM240 515h207q-21 27 -81 27h-120zM218 411h231l3 11l2 13h-231z
M195 304h115q31 0 54 7t39 20h-202z" />
    <glyph glyph-name="uni20BD" unicode="&#x20bd;" horiz-adv-x="647" 
d="M28 0l13 63h-53l25 117h53l10 46h-53l25 120h53l63 298h305q105 0 152.5 -58t29.5 -153q-12 -67 -51.5 -113t-98 -70t-129.5 -24h-134l-10 -46h106l-25 -117h-106l-13 -63h-162zM263 346h103q59 0 85 19.5t36 65.5q11 49 -6 71t-72 22h-108z" />
    <glyph glyph-name="uni20B9" unicode="&#x20b9;" horiz-adv-x="456" 
d="M137 0l-34 153q-6 30 -23.5 42.5t-60.5 12.5l20 94h59q48 0 83.5 17t49.5 63h-174l20 96h173q-1 34 -24.5 51.5t-65.5 17.5h-69l20 97h394l-20 -97h-96q12 -12 17.5 -30t4.5 -39h59l-20 -96h-58q-19 -56 -61 -91t-104 -53q23 -15 30.5 -32.5t13.5 -46.5l34 -159h-168z
" />
    <glyph glyph-name="sterling" unicode="&#xa3;" horiz-adv-x="489" 
d="M-25 0l25 121h23q24 0 39.5 14.5t19.5 37.5l22 103h-64l26 122h64l16 76q17 81 69 130.5t155 49.5q41 0 71 -6.5t52 -17.5l-22 -107q-13 7 -33.5 10t-40.5 3q-40 0 -61.5 -17t-29.5 -52l-15 -69h151l-33 -122h-144l-20 -94q-4 -22 -12 -36t-23 -25h217l-25 -121h-427z
" />
    <glyph glyph-name="yen" unicode="&#xa5;" horiz-adv-x="686" 
d="M206 0l16 75h-140l20 92h139l10 48h-139l20 92h99l-120 337h162l88 -267l200 267h174l-263 -337h100l-20 -92h-139l-10 -48h139l-20 -92h-138l-16 -75h-162z" />
    <glyph glyph-name="uni2219" unicode="&#x2219;" horiz-adv-x="192" 
d="M26 243l25 119h130l-25 -119h-130z" />
    <glyph glyph-name="uni2215" unicode="&#x2215;" horiz-adv-x="544" 
d="M-25 0l457 662h165l-457 -662h-165z" />
    <glyph glyph-name="plus" unicode="+" horiz-adv-x="457" 
d="M128 88l27 127h-135l27 125h135l27 129h126l-27 -129h134l-27 -125h-134l-27 -127h-126z" />
    <glyph glyph-name="minus" unicode="&#x2212;" horiz-adv-x="457" 
d="M20 215l27 125h395l-27 -125h-395z" />
    <glyph glyph-name="multiply" unicode="&#xd7;" horiz-adv-x="422" 
d="M271 70l-79 101l-119 -96l-63 79l119 97l-80 101l96 79l77 -102l124 101l62 -79l-123 -102l80 -101z" />
    <glyph glyph-name="divide" unicode="&#xf7;" horiz-adv-x="457" 
d="M199 404l23 106h118l-23 -106h-118zM20 215l27 125h395l-27 -125h-395zM124 48l22 106h118l-22 -106h-118z" />
    <glyph glyph-name="equal" unicode="=" horiz-adv-x="455" 
d="M40 308l24 112h392l-24 -112h-392zM3 132l24 113h392l-24 -113h-392z" />
    <glyph glyph-name="notequal" unicode="&#x2260;" horiz-adv-x="455" 
d="M47 68l35 64h-79l24 113h116l35 63h-138l24 112h175l31 57h122l-31 -57h95l-24 -112h-132l-35 -63h154l-24 -113h-191l-35 -64h-122z" />
    <glyph glyph-name="greater" unicode="&#x3e;" horiz-adv-x="540" 
d="M-20 27l32 156l334 130l-279 129l32 145l433 -213l-28 -133z" />
    <glyph glyph-name="less" unicode="&#x3c;" horiz-adv-x="540" 
d="M458 27l-432 214l28 133l523 213l-32 -155l-334 -129l279 -130z" />
    <glyph glyph-name="greaterequal" unicode="&#x2265;" horiz-adv-x="540" 
d="M3 132l28 140l332 123l-279 124l28 129l435 -203l-23 -109zM-25 0l22 108h478l-22 -108h-478z" />
    <glyph glyph-name="lessequal" unicode="&#x2264;" horiz-adv-x="540" 
d="M481 132l-435 204l23 109l521 203l-28 -139l-334 -124l281 -123zM-25 0l22 108h478l-22 -108h-478z" />
    <glyph glyph-name="plusminus" unicode="&#xb1;" horiz-adv-x="462" 
d="M146 164l27 127h-135l27 124h135l27 129h126l-27 -129h135l-27 -124h-135l-27 -127h-126zM-23 0l26 124h396l-26 -124h-396z" />
    <glyph glyph-name="approxequal" unicode="&#x2248;" horiz-adv-x="465" 
d="M333 282q-28 0 -49.5 8t-41.5 18.5t-41.5 18.5t-50.5 8q-31 0 -57.5 -7.5t-55.5 -32.5l25 118q22 18 51.5 25.5t59.5 7.5t53.5 -8t44.5 -18.5t43 -18.5t49 -8q29 0 53.5 7.5t52.5 32.5l-26 -120q-21 -18 -50.5 -24.5t-59.5 -6.5zM296 107q-28 0 -49.5 8t-41.5 18.5
t-41.5 18.5t-50.5 8q-31 0 -57.5 -7.5t-55.5 -32.5l25 117q22 18 51.5 25.5t59.5 7.5t53.5 -8t44.5 -18.5t43 -18.5t49 -8q29 0 53 7.5t52 32.5l-25 -119q-21 -18 -50.5 -24.5t-59.5 -6.5z" />
    <glyph glyph-name="asciitilde" unicode="~" horiz-adv-x="542" 
d="M377 197q-33 0 -60.5 10t-53.5 23.5t-53.5 23.5t-59.5 10q-38 0 -69.5 -13.5t-62.5 -44.5l32 150q23 23 58 37t72 14q34 0 62.5 -10t54.5 -23.5t53 -23.5t58 -10q38 0 68.5 13t61.5 44l-32 -150q-22 -24 -56.5 -37t-72.5 -13z" />
    <glyph glyph-name="logicalnot" unicode="&#xac;" horiz-adv-x="510" 
d="M323 127l27 127h-322l27 124h447l-54 -251h-125z" />
    <glyph glyph-name="asciicircum" unicode="^" horiz-adv-x="510" 
d="M55 377l216 247h112l119 -247h-149l-48 130l-100 -130h-150z" />
    <glyph glyph-name="infinity" unicode="&#x221e;" horiz-adv-x="680" 
d="M168 119q-46 0 -80.5 18t-49.5 54t-4 90q17 82 69 122t134 40q45 0 77 -20t48 -52q29 32 70.5 52t85.5 20q74 0 111.5 -41.5t22.5 -120.5q-16 -82 -69.5 -122t-133.5 -40q-44 0 -76.5 20t-48.5 52q-29 -32 -70 -52t-86 -20zM197 222q27 0 50.5 15t43.5 43q-16 60 -69 60
q-31 0 -50 -16t-25 -43q-5 -27 7 -43t43 -16zM465 222q31 0 50 16t24 43q6 27 -6 43t-43 16q-53 0 -95 -61q9 -27 26 -42t44 -15z" />
    <glyph glyph-name="integral" unicode="&#x222b;" horiz-adv-x="438" 
d="M40 -130q-36 0 -63 5.5t-49 15.5l22 107q14 -5 28 -8t30 -3q38 0 57.5 14.5t26.5 47.5l99 464q11 52 35.5 91.5t68 62.5t108.5 23q36 0 63 -5.5t50 -15.5l-23 -108q-14 5 -28 8t-30 3q-38 0 -57.5 -14.5t-26.5 -47.5l-99 -464q-10 -51 -35.5 -90.5t-68.5 -62.5t-108 -23z
" />
    <glyph glyph-name="uni2126" unicode="&#x2126;" horiz-adv-x="752" 
d="M-18 0l25 122h114q-43 41 -63.5 103.5t-4.5 141.5q20 99 70.5 172.5t135.5 114.5t208 41q102 0 171 -41t97.5 -114.5t7.5 -172.5q-18 -82 -62 -143t-112 -102h114l-25 -122h-297l26 126q82 42 127.5 99t61.5 132q20 95 -9 147.5t-129 52.5q-90 0 -147 -54.5t-77 -145.5
q-16 -75 5.5 -132t85.5 -99l-26 -126h-297z" />
    <glyph glyph-name="product" unicode="&#x220f;" horiz-adv-x="635" 
d="M-33 -129l178 835h532l-178 -835h-161l151 711h-210l-151 -711h-161z" />
    <glyph glyph-name="summation" unicode="&#x2211;" horiz-adv-x="537" 
d="M-51 -120l20 98l279 289l-157 288l20 89h475l-26 -124h-269l141 -258l-251 -258h269l-26 -124h-475z" />
    <glyph glyph-name="radical" unicode="&#x221a;" horiz-adv-x="709" 
d="M205 0l-53 330h-107l26 125h215l33 -273l295 532h159l-402 -714h-166z" />
    </font>
</defs>
</svg>
